M48
;DRILL file {KiCad 4.0.2-stable} date Thursday, March 16, 2017 'PMt' 02:05:15 PM
;FORMAT={2:4/ absolute / inch / keep zeros}
FMAT,2
INCH,TZ
T1C0.024
T2C0.030
T3C0.032
T4C0.040
T5C0.047
T6C0.050
T7C0.100
T8C0.118
T9C0.157
%
G90
G05
M72
T1
X036850Y-042228
X036850Y-042728
X036850Y-043228
T2
X037972Y-028232
X037972Y-029232
X037972Y-030232
X037972Y-031232
X037972Y-032232
X037972Y-033232
X037972Y-034232
X037972Y-035232
T3
X042374Y-027551
X042374Y-033551
X043374Y-027551
X043374Y-033551
X044374Y-027551
X044374Y-033551
X044874Y-028551
X045374Y-027551
X045374Y-033551
X045874Y-028551
X046374Y-027551
X046374Y-033551
X047374Y-027551
X047374Y-033551
X048374Y-027551
X048374Y-033551
X048874Y-028551
X049374Y-027551
X049374Y-033551
X049874Y-028551
X050374Y-027551
X050374Y-033551
X051374Y-027551
X051374Y-033551
X052374Y-027551
X052374Y-033551
X053374Y-027551
X053374Y-033551
T4
X040059Y-037667
X041059Y-037667
X042059Y-037667
X043059Y-037667
X044059Y-037667
X045059Y-037667
X046059Y-037667
X047059Y-037667
X048059Y-037667
X049059Y-037667
X050059Y-037667
X051059Y-037667
X052059Y-037667
X053059Y-037667
X054059Y-037667
X055059Y-037667
T5
X037008Y-046102
X037008Y-047480
X037008Y-048858
T6
X055543Y-032972
X055543Y-033972
T7
X040571Y-053602
X054547Y-053602
T8
X032972Y-028232
X032972Y-035232
X041543Y-025972
X041543Y-035972
X055543Y-025972
X055543Y-035972
T9
X031772Y-040000
X049094Y-022677
X049094Y-057480
X066417Y-040000
T0
M30
