G04 #@! TF.FileFunction,Soldermask,Top*
%FSLAX46Y46*%
G04 Gerber Fmt 4.6, Leading zero omitted, Abs format (unit mm)*
G04 Created by KiCad (PCBNEW 4.0.2-stable) date Thursday, March 16, 2017 'PMt' 02:05:18 PM*
%MOMM*%
G01*
G04 APERTURE LIST*
%ADD10C,0.100000*%
%ADD11C,2.800000*%
%ADD12R,2.800000X2.800000*%
%ADD13O,1.900000X1.300000*%
%ADD14R,1.900000X1.300000*%
%ADD15C,4.210000*%
%ADD16C,1.924000*%
%ADD17C,3.500000*%
%ADD18C,4.600000*%
%ADD19O,1.901140X2.599640*%
%ADD20C,2.220000*%
G04 APERTURE END LIST*
D10*
D11*
X94000000Y-120600000D03*
X94000000Y-124100000D03*
D12*
X94000000Y-117100000D03*
D13*
X93600000Y-108530000D03*
X93600000Y-107260000D03*
D14*
X93600000Y-109800000D03*
D15*
X103050000Y-136150000D03*
D16*
X139850000Y-95675000D03*
X137310000Y-95675000D03*
X134770000Y-95675000D03*
X132230000Y-95675000D03*
X129690000Y-95675000D03*
X127150000Y-95675000D03*
X124610000Y-95675000D03*
X122070000Y-95675000D03*
X119530000Y-95675000D03*
X116990000Y-95675000D03*
X114450000Y-95675000D03*
X111910000Y-95675000D03*
X109370000Y-95675000D03*
X106830000Y-95675000D03*
X104290000Y-95675000D03*
X101750000Y-95675000D03*
D15*
X138550000Y-136150000D03*
D17*
X83750000Y-71710000D03*
D16*
X96450000Y-71710000D03*
X96450000Y-74250000D03*
X96450000Y-76790000D03*
X96450000Y-79330000D03*
X96450000Y-81870000D03*
X96450000Y-84410000D03*
X96450000Y-86950000D03*
X96450000Y-89490000D03*
D17*
X83750000Y-89490000D03*
D18*
X80700000Y-101600000D03*
X168700000Y-101600000D03*
X124700000Y-57600000D03*
X124700000Y-146000000D03*
D19*
X116520000Y-72520000D03*
X113980000Y-72520000D03*
X135570000Y-85220000D03*
X133030000Y-85220000D03*
X130490000Y-85220000D03*
X127950000Y-85220000D03*
X125410000Y-85220000D03*
X122870000Y-85220000D03*
X120330000Y-85220000D03*
X117790000Y-85220000D03*
X115250000Y-85220000D03*
X112710000Y-85220000D03*
X110170000Y-85220000D03*
X107630000Y-85220000D03*
X107630000Y-69980000D03*
X110170000Y-69980000D03*
X112710000Y-69980000D03*
X115250000Y-69980000D03*
X117790000Y-69980000D03*
X120330000Y-69980000D03*
X122870000Y-69980000D03*
X125410000Y-69980000D03*
X127950000Y-69980000D03*
X130490000Y-69980000D03*
X133030000Y-69980000D03*
X135570000Y-69980000D03*
X124140000Y-72520000D03*
X126680000Y-72520000D03*
D20*
X141080000Y-83750000D03*
D17*
X105520000Y-65970000D03*
X141080000Y-65970000D03*
X105520000Y-91370000D03*
X141080000Y-91370000D03*
D20*
X141080000Y-86290000D03*
M02*
