G04 #@! TF.FileFunction,Legend,Top*
%FSLAX46Y46*%
G04 Gerber Fmt 4.6, Leading zero omitted, Abs format (unit mm)*
G04 Created by KiCad (PCBNEW 4.0.2-stable) date Tuesday, August 01, 2017 'PMt' 03:56:38 PM*
%MOMM*%
G01*
G04 APERTURE LIST*
%ADD10C,0.100000*%
%ADD11C,0.300000*%
%ADD12C,0.150000*%
%ADD13C,0.120000*%
%ADD14C,0.125000*%
G04 APERTURE END LIST*
D10*
D11*
X97971429Y-117707143D02*
X98185715Y-117778571D01*
X98542858Y-117778571D01*
X98685715Y-117707143D01*
X98757144Y-117635714D01*
X98828572Y-117492857D01*
X98828572Y-117350000D01*
X98757144Y-117207143D01*
X98685715Y-117135714D01*
X98542858Y-117064286D01*
X98257144Y-116992857D01*
X98114286Y-116921429D01*
X98042858Y-116850000D01*
X97971429Y-116707143D01*
X97971429Y-116564286D01*
X98042858Y-116421429D01*
X98114286Y-116350000D01*
X98257144Y-116278571D01*
X98614286Y-116278571D01*
X98828572Y-116350000D01*
X97928572Y-124007143D02*
X99071429Y-124007143D01*
X97928572Y-120607143D02*
X99071429Y-120607143D01*
X98500000Y-121178571D02*
X98500000Y-120035714D01*
D12*
X89900000Y-118800000D02*
X89500000Y-118800000D01*
X89900000Y-122400000D02*
X89500000Y-122400000D01*
X91000000Y-115300000D02*
X91000000Y-125900000D01*
X89900000Y-115300000D02*
X89900000Y-125900000D01*
X97100000Y-115300000D02*
X89500000Y-115300000D01*
X89500000Y-125900000D02*
X97100000Y-125900000D01*
X97100000Y-125900000D02*
X97100000Y-115300000D01*
D13*
X95450000Y-110330000D02*
X95450000Y-106730000D01*
X95438478Y-110368478D02*
G75*
G02X91000000Y-108530000I-1838478J1838478D01*
G01*
X95438478Y-106691522D02*
G75*
G03X91000000Y-108530000I-1838478J-1838478D01*
G01*
D12*
X141120000Y-138200000D02*
X141120000Y-138400000D01*
X103655000Y-132505000D02*
X103655000Y-102025000D01*
X103655000Y-102025000D02*
X120800000Y-102025000D01*
X120800000Y-102025000D02*
X120800000Y-132505000D01*
X120800000Y-132505000D02*
X103655000Y-132505000D01*
X141120000Y-138355000D02*
X100480000Y-138355000D01*
X100480000Y-138300000D02*
X100480000Y-94405000D01*
X100480000Y-94405000D02*
X141120000Y-94405000D01*
X141120000Y-94405000D02*
X141120000Y-138300000D01*
X146940000Y-135860000D02*
X146940000Y-66010000D01*
X146940000Y-66010000D02*
X165990000Y-66010000D01*
X165990000Y-66010000D02*
X165990000Y-135860000D01*
X165990000Y-135860000D02*
X146940000Y-135860000D01*
X143620000Y-66030000D02*
X143620000Y-93970000D01*
X102980000Y-93970000D02*
X102980000Y-66030000D01*
X109330000Y-97780000D02*
X109330000Y-83810000D01*
X109330000Y-97780000D02*
X118220000Y-97780000D01*
X118220000Y-97780000D02*
X118220000Y-83810000D01*
X118220000Y-83810000D02*
X109330000Y-83810000D01*
X137270000Y-63490000D02*
X137270000Y-68570000D01*
X137270000Y-68570000D02*
X130920000Y-68570000D01*
X130920000Y-68570000D02*
X130920000Y-63490000D01*
X109330000Y-63490000D02*
X109330000Y-68570000D01*
X109330000Y-68570000D02*
X115680000Y-68570000D01*
X115680000Y-68570000D02*
X115680000Y-63490000D01*
X105520000Y-96510000D02*
X141080000Y-96510000D01*
X105520000Y-63490000D02*
X141080000Y-63490000D01*
X102980000Y-93970000D02*
G75*
G03X105520000Y-96510000I2540000J0D01*
G01*
X141080000Y-96510000D02*
G75*
G03X143620000Y-93970000I0J2540000D01*
G01*
X143620000Y-66030000D02*
G75*
G03X141080000Y-63490000I-2540000J0D01*
G01*
X105520000Y-63490000D02*
G75*
G03X102980000Y-66030000I0J-2540000D01*
G01*
X96450000Y-69170000D02*
X83750000Y-69170000D01*
X98990000Y-89490000D02*
X98990000Y-71710000D01*
X83750000Y-92030000D02*
X96450000Y-92030000D01*
X98990000Y-71710000D02*
G75*
G03X96450000Y-69170000I-2540000J0D01*
G01*
X96450000Y-92030000D02*
G75*
G03X98990000Y-89490000I0J2540000D01*
G01*
X81210000Y-71710000D02*
X81210000Y-89490000D01*
X83750000Y-69170000D02*
G75*
G03X81210000Y-71710000I0J-2540000D01*
G01*
X81210000Y-89490000D02*
G75*
G03X83750000Y-92030000I2540000J0D01*
G01*
X92052381Y-121338095D02*
X91052381Y-121338095D01*
X91052381Y-120957142D01*
X91100000Y-120861904D01*
X91147619Y-120814285D01*
X91242857Y-120766666D01*
X91385714Y-120766666D01*
X91480952Y-120814285D01*
X91528571Y-120861904D01*
X91576190Y-120957142D01*
X91576190Y-121338095D01*
X91147619Y-120385714D02*
X91100000Y-120338095D01*
X91052381Y-120242857D01*
X91052381Y-120004761D01*
X91100000Y-119909523D01*
X91147619Y-119861904D01*
X91242857Y-119814285D01*
X91338095Y-119814285D01*
X91480952Y-119861904D01*
X92052381Y-120433333D01*
X92052381Y-119814285D01*
X90587619Y-108625238D02*
X90540000Y-108720476D01*
X90444762Y-108815714D01*
X90301905Y-108958571D01*
X90254286Y-109053810D01*
X90254286Y-109149048D01*
X90492381Y-109101429D02*
X90444762Y-109196667D01*
X90349524Y-109291905D01*
X90159048Y-109339524D01*
X89825714Y-109339524D01*
X89635238Y-109291905D01*
X89540000Y-109196667D01*
X89492381Y-109101429D01*
X89492381Y-108910952D01*
X89540000Y-108815714D01*
X89635238Y-108720476D01*
X89825714Y-108672857D01*
X90159048Y-108672857D01*
X90349524Y-108720476D01*
X90444762Y-108815714D01*
X90492381Y-108910952D01*
X90492381Y-109101429D01*
X90492381Y-107720476D02*
X90492381Y-108291905D01*
X90492381Y-108006191D02*
X89492381Y-108006191D01*
X89635238Y-108101429D01*
X89730476Y-108196667D01*
X89778095Y-108291905D01*
X125753095Y-130687381D02*
X125753095Y-131496905D01*
X125800714Y-131592143D01*
X125848333Y-131639762D01*
X125943571Y-131687381D01*
X126134048Y-131687381D01*
X126229286Y-131639762D01*
X126276905Y-131592143D01*
X126324524Y-131496905D01*
X126324524Y-130687381D01*
X127324524Y-131687381D02*
X126753095Y-131687381D01*
X127038809Y-131687381D02*
X127038809Y-130687381D01*
X126943571Y-130830238D01*
X126848333Y-130925476D01*
X126753095Y-130973095D01*
X112719524Y-120090476D02*
X112814762Y-119804761D01*
X112814762Y-119328571D01*
X112719524Y-119138095D01*
X112624286Y-119042857D01*
X112433810Y-118947618D01*
X112243333Y-118947618D01*
X112052857Y-119042857D01*
X111957619Y-119138095D01*
X111862381Y-119328571D01*
X111767143Y-119709523D01*
X111671905Y-119899999D01*
X111576667Y-119995238D01*
X111386190Y-120090476D01*
X111195714Y-120090476D01*
X111005238Y-119995238D01*
X110910000Y-119899999D01*
X110814762Y-119709523D01*
X110814762Y-119233333D01*
X110910000Y-118947618D01*
X112814762Y-118090476D02*
X110814762Y-118090476D01*
X112814762Y-117138095D02*
X110814762Y-117138095D01*
X112243333Y-116471428D01*
X110814762Y-115804761D01*
X112814762Y-115804761D01*
X102204762Y-100661905D02*
X102252381Y-100519048D01*
X102252381Y-100280952D01*
X102204762Y-100185714D01*
X102157143Y-100138095D01*
X102061905Y-100090476D01*
X101966667Y-100090476D01*
X101871429Y-100138095D01*
X101823810Y-100185714D01*
X101776190Y-100280952D01*
X101728571Y-100471429D01*
X101680952Y-100566667D01*
X101633333Y-100614286D01*
X101538095Y-100661905D01*
X101442857Y-100661905D01*
X101347619Y-100614286D01*
X101300000Y-100566667D01*
X101252381Y-100471429D01*
X101252381Y-100233333D01*
X101300000Y-100090476D01*
X101585714Y-99661905D02*
X102585714Y-99661905D01*
X101633333Y-99661905D02*
X101585714Y-99566667D01*
X101585714Y-99376190D01*
X101633333Y-99280952D01*
X101680952Y-99233333D01*
X101776190Y-99185714D01*
X102061905Y-99185714D01*
X102157143Y-99233333D01*
X102204762Y-99280952D01*
X102252381Y-99376190D01*
X102252381Y-99566667D01*
X102204762Y-99661905D01*
X102252381Y-98757143D02*
X101252381Y-98757143D01*
X101871429Y-98661905D02*
X102252381Y-98376190D01*
X101585714Y-98376190D02*
X101966667Y-98757143D01*
X101871429Y-97947619D02*
X101871429Y-97185714D01*
X104704762Y-100661905D02*
X104752381Y-100519048D01*
X104752381Y-100280952D01*
X104704762Y-100185714D01*
X104657143Y-100138095D01*
X104561905Y-100090476D01*
X104466667Y-100090476D01*
X104371429Y-100138095D01*
X104323810Y-100185714D01*
X104276190Y-100280952D01*
X104228571Y-100471429D01*
X104180952Y-100566667D01*
X104133333Y-100614286D01*
X104038095Y-100661905D01*
X103942857Y-100661905D01*
X103847619Y-100614286D01*
X103800000Y-100566667D01*
X103752381Y-100471429D01*
X103752381Y-100233333D01*
X103800000Y-100090476D01*
X104085714Y-99661905D02*
X105085714Y-99661905D01*
X104133333Y-99661905D02*
X104085714Y-99566667D01*
X104085714Y-99376190D01*
X104133333Y-99280952D01*
X104180952Y-99233333D01*
X104276190Y-99185714D01*
X104561905Y-99185714D01*
X104657143Y-99233333D01*
X104704762Y-99280952D01*
X104752381Y-99376190D01*
X104752381Y-99566667D01*
X104704762Y-99661905D01*
X104752381Y-98757143D02*
X103752381Y-98757143D01*
X104371429Y-98661905D02*
X104752381Y-98376190D01*
X104085714Y-98376190D02*
X104466667Y-98757143D01*
X104371429Y-97947619D02*
X104371429Y-97185714D01*
X104752381Y-97566666D02*
X103990476Y-97566666D01*
X107252381Y-100519047D02*
X106252381Y-100519047D01*
X106966667Y-100185713D01*
X106252381Y-99852380D01*
X107252381Y-99852380D01*
X107252381Y-99376190D02*
X106585714Y-99376190D01*
X106252381Y-99376190D02*
X106300000Y-99423809D01*
X106347619Y-99376190D01*
X106300000Y-99328571D01*
X106252381Y-99376190D01*
X106347619Y-99376190D01*
X107204762Y-98471428D02*
X107252381Y-98566666D01*
X107252381Y-98757143D01*
X107204762Y-98852381D01*
X107157143Y-98900000D01*
X107061905Y-98947619D01*
X106776190Y-98947619D01*
X106680952Y-98900000D01*
X106633333Y-98852381D01*
X106585714Y-98757143D01*
X106585714Y-98566666D01*
X106633333Y-98471428D01*
X106871429Y-98042857D02*
X106871429Y-97280952D01*
X109752381Y-100519047D02*
X108752381Y-100519047D01*
X109466667Y-100185713D01*
X108752381Y-99852380D01*
X109752381Y-99852380D01*
X109752381Y-99376190D02*
X109085714Y-99376190D01*
X108752381Y-99376190D02*
X108800000Y-99423809D01*
X108847619Y-99376190D01*
X108800000Y-99328571D01*
X108752381Y-99376190D01*
X108847619Y-99376190D01*
X109704762Y-98471428D02*
X109752381Y-98566666D01*
X109752381Y-98757143D01*
X109704762Y-98852381D01*
X109657143Y-98900000D01*
X109561905Y-98947619D01*
X109276190Y-98947619D01*
X109180952Y-98900000D01*
X109133333Y-98852381D01*
X109085714Y-98757143D01*
X109085714Y-98566666D01*
X109133333Y-98471428D01*
X109371429Y-98042857D02*
X109371429Y-97280952D01*
X109752381Y-97661904D02*
X108990476Y-97661904D01*
X112252381Y-98661905D02*
X111252381Y-98661905D01*
X112252381Y-98090476D01*
X111252381Y-98090476D01*
X112204762Y-97661905D02*
X112252381Y-97519048D01*
X112252381Y-97280952D01*
X112204762Y-97185714D01*
X112157143Y-97138095D01*
X112061905Y-97090476D01*
X111966667Y-97090476D01*
X111871429Y-97138095D01*
X111823810Y-97185714D01*
X111776190Y-97280952D01*
X111728571Y-97471429D01*
X111680952Y-97566667D01*
X111633333Y-97614286D01*
X111538095Y-97661905D01*
X111442857Y-97661905D01*
X111347619Y-97614286D01*
X111300000Y-97566667D01*
X111252381Y-97471429D01*
X111252381Y-97233333D01*
X111300000Y-97090476D01*
X114752381Y-100661905D02*
X113752381Y-100661905D01*
X113752381Y-100280952D01*
X113800000Y-100185714D01*
X113847619Y-100138095D01*
X113942857Y-100090476D01*
X114085714Y-100090476D01*
X114180952Y-100138095D01*
X114228571Y-100185714D01*
X114276190Y-100280952D01*
X114276190Y-100661905D01*
X114704762Y-99709524D02*
X114752381Y-99566667D01*
X114752381Y-99328571D01*
X114704762Y-99233333D01*
X114657143Y-99185714D01*
X114561905Y-99138095D01*
X114466667Y-99138095D01*
X114371429Y-99185714D01*
X114323810Y-99233333D01*
X114276190Y-99328571D01*
X114228571Y-99519048D01*
X114180952Y-99614286D01*
X114133333Y-99661905D01*
X114038095Y-99709524D01*
X113942857Y-99709524D01*
X113847619Y-99661905D01*
X113800000Y-99614286D01*
X113752381Y-99519048D01*
X113752381Y-99280952D01*
X113800000Y-99138095D01*
X114085714Y-98852381D02*
X114085714Y-98471429D01*
X113752381Y-98709524D02*
X114609524Y-98709524D01*
X114704762Y-98661905D01*
X114752381Y-98566667D01*
X114752381Y-98471429D01*
X114752381Y-97709523D02*
X114228571Y-97709523D01*
X114133333Y-97757142D01*
X114085714Y-97852380D01*
X114085714Y-98042857D01*
X114133333Y-98138095D01*
X114704762Y-97709523D02*
X114752381Y-97804761D01*
X114752381Y-98042857D01*
X114704762Y-98138095D01*
X114609524Y-98185714D01*
X114514286Y-98185714D01*
X114419048Y-98138095D01*
X114371429Y-98042857D01*
X114371429Y-97804761D01*
X114323810Y-97709523D01*
X114085714Y-97376190D02*
X114085714Y-96995238D01*
X113752381Y-97233333D02*
X114609524Y-97233333D01*
X114704762Y-97185714D01*
X114752381Y-97090476D01*
X114752381Y-96995238D01*
X117252381Y-97578571D02*
X116776190Y-97911905D01*
X117252381Y-98150000D02*
X116252381Y-98150000D01*
X116252381Y-97769047D01*
X116300000Y-97673809D01*
X116347619Y-97626190D01*
X116442857Y-97578571D01*
X116585714Y-97578571D01*
X116680952Y-97626190D01*
X116728571Y-97673809D01*
X116776190Y-97769047D01*
X116776190Y-98150000D01*
X117252381Y-97150000D02*
X116252381Y-97150000D01*
X119752381Y-99221429D02*
X118752381Y-99221429D01*
X119752381Y-98650000D02*
X119180952Y-99078572D01*
X118752381Y-98650000D02*
X119323810Y-99221429D01*
X119704762Y-97840476D02*
X119752381Y-97935714D01*
X119752381Y-98126191D01*
X119704762Y-98221429D01*
X119609524Y-98269048D01*
X119228571Y-98269048D01*
X119133333Y-98221429D01*
X119085714Y-98126191D01*
X119085714Y-97935714D01*
X119133333Y-97840476D01*
X119228571Y-97792857D01*
X119323810Y-97792857D01*
X119419048Y-98269048D01*
X119085714Y-97459524D02*
X119752381Y-97221429D01*
X119085714Y-96983333D02*
X119752381Y-97221429D01*
X119990476Y-97316667D01*
X120038095Y-97364286D01*
X120085714Y-97459524D01*
X122502381Y-98697619D02*
X122026190Y-99030953D01*
X122502381Y-99269048D02*
X121502381Y-99269048D01*
X121502381Y-98888095D01*
X121550000Y-98792857D01*
X121597619Y-98745238D01*
X121692857Y-98697619D01*
X121835714Y-98697619D01*
X121930952Y-98745238D01*
X121978571Y-98792857D01*
X122026190Y-98888095D01*
X122026190Y-99269048D01*
X121502381Y-98411905D02*
X121502381Y-97840476D01*
X122502381Y-98126191D02*
X121502381Y-98126191D01*
X122454762Y-97554762D02*
X122502381Y-97411905D01*
X122502381Y-97173809D01*
X122454762Y-97078571D01*
X122407143Y-97030952D01*
X122311905Y-96983333D01*
X122216667Y-96983333D01*
X122121429Y-97030952D01*
X122073810Y-97078571D01*
X122026190Y-97173809D01*
X121978571Y-97364286D01*
X121930952Y-97459524D01*
X121883333Y-97507143D01*
X121788095Y-97554762D01*
X121692857Y-97554762D01*
X121597619Y-97507143D01*
X121550000Y-97459524D01*
X121502381Y-97364286D01*
X121502381Y-97126190D01*
X121550000Y-96983333D01*
X124002381Y-98661905D02*
X124002381Y-98090476D01*
X125002381Y-98376191D02*
X124002381Y-98376191D01*
X124002381Y-97852381D02*
X125002381Y-97185714D01*
X124002381Y-97185714D02*
X125002381Y-97852381D01*
X127502381Y-98066666D02*
X127026190Y-98400000D01*
X127502381Y-98638095D02*
X126502381Y-98638095D01*
X126502381Y-98257142D01*
X126550000Y-98161904D01*
X126597619Y-98114285D01*
X126692857Y-98066666D01*
X126835714Y-98066666D01*
X126930952Y-98114285D01*
X126978571Y-98161904D01*
X127026190Y-98257142D01*
X127026190Y-98638095D01*
X126502381Y-97733333D02*
X127502381Y-97066666D01*
X126502381Y-97066666D02*
X127502381Y-97733333D01*
X130002381Y-98530952D02*
X129526190Y-98864286D01*
X130002381Y-99102381D02*
X129002381Y-99102381D01*
X129002381Y-98721428D01*
X129050000Y-98626190D01*
X129097619Y-98578571D01*
X129192857Y-98530952D01*
X129335714Y-98530952D01*
X129430952Y-98578571D01*
X129478571Y-98626190D01*
X129526190Y-98721428D01*
X129526190Y-99102381D01*
X129954762Y-98150000D02*
X130002381Y-98054762D01*
X130002381Y-97864286D01*
X129954762Y-97769047D01*
X129859524Y-97721428D01*
X129811905Y-97721428D01*
X129716667Y-97769047D01*
X129669048Y-97864286D01*
X129669048Y-98007143D01*
X129621429Y-98102381D01*
X129526190Y-98150000D01*
X129478571Y-98150000D01*
X129383333Y-98102381D01*
X129335714Y-98007143D01*
X129335714Y-97864286D01*
X129383333Y-97769047D01*
X129335714Y-97435714D02*
X129335714Y-97054762D01*
X129002381Y-97292857D02*
X129859524Y-97292857D01*
X129954762Y-97245238D01*
X130002381Y-97150000D01*
X130002381Y-97054762D01*
X131502381Y-99173809D02*
X132502381Y-98840476D01*
X131502381Y-98507142D01*
X132502381Y-98173809D02*
X131835714Y-98173809D01*
X131502381Y-98173809D02*
X131550000Y-98221428D01*
X131597619Y-98173809D01*
X131550000Y-98126190D01*
X131502381Y-98173809D01*
X131597619Y-98173809D01*
X132502381Y-97554762D02*
X132454762Y-97650000D01*
X132407143Y-97697619D01*
X132311905Y-97745238D01*
X132026190Y-97745238D01*
X131930952Y-97697619D01*
X131883333Y-97650000D01*
X131835714Y-97554762D01*
X131835714Y-97411904D01*
X131883333Y-97316666D01*
X131930952Y-97269047D01*
X132026190Y-97221428D01*
X132311905Y-97221428D01*
X132407143Y-97269047D01*
X132454762Y-97316666D01*
X132502381Y-97411904D01*
X132502381Y-97554762D01*
X134300000Y-99161904D02*
X134252381Y-99257142D01*
X134252381Y-99399999D01*
X134300000Y-99542857D01*
X134395238Y-99638095D01*
X134490476Y-99685714D01*
X134680952Y-99733333D01*
X134823810Y-99733333D01*
X135014286Y-99685714D01*
X135109524Y-99638095D01*
X135204762Y-99542857D01*
X135252381Y-99399999D01*
X135252381Y-99304761D01*
X135204762Y-99161904D01*
X135157143Y-99114285D01*
X134823810Y-99114285D01*
X134823810Y-99304761D01*
X135252381Y-98685714D02*
X134252381Y-98685714D01*
X135252381Y-98114285D01*
X134252381Y-98114285D01*
X135252381Y-97638095D02*
X134252381Y-97638095D01*
X134252381Y-97400000D01*
X134300000Y-97257142D01*
X134395238Y-97161904D01*
X134490476Y-97114285D01*
X134680952Y-97066666D01*
X134823810Y-97066666D01*
X135014286Y-97114285D01*
X135109524Y-97161904D01*
X135204762Y-97257142D01*
X135252381Y-97400000D01*
X135252381Y-97638095D01*
X137228571Y-98816666D02*
X137276190Y-98673809D01*
X137323810Y-98626190D01*
X137419048Y-98578571D01*
X137561905Y-98578571D01*
X137657143Y-98626190D01*
X137704762Y-98673809D01*
X137752381Y-98769047D01*
X137752381Y-99150000D01*
X136752381Y-99150000D01*
X136752381Y-98816666D01*
X136800000Y-98721428D01*
X136847619Y-98673809D01*
X136942857Y-98626190D01*
X137038095Y-98626190D01*
X137133333Y-98673809D01*
X137180952Y-98721428D01*
X137228571Y-98816666D01*
X137228571Y-99150000D01*
X137752381Y-97721428D02*
X137228571Y-97721428D01*
X137133333Y-97769047D01*
X137085714Y-97864285D01*
X137085714Y-98054762D01*
X137133333Y-98150000D01*
X137704762Y-97721428D02*
X137752381Y-97816666D01*
X137752381Y-98054762D01*
X137704762Y-98150000D01*
X137609524Y-98197619D01*
X137514286Y-98197619D01*
X137419048Y-98150000D01*
X137371429Y-98054762D01*
X137371429Y-97816666D01*
X137323810Y-97721428D01*
X137085714Y-97388095D02*
X137085714Y-97007143D01*
X136752381Y-97245238D02*
X137609524Y-97245238D01*
X137704762Y-97197619D01*
X137752381Y-97102381D01*
X137752381Y-97007143D01*
X139252381Y-98090476D02*
X139252381Y-98566667D01*
X139728571Y-98614286D01*
X139680952Y-98566667D01*
X139633333Y-98471429D01*
X139633333Y-98233333D01*
X139680952Y-98138095D01*
X139728571Y-98090476D01*
X139823810Y-98042857D01*
X140061905Y-98042857D01*
X140157143Y-98090476D01*
X140204762Y-98138095D01*
X140252381Y-98233333D01*
X140252381Y-98471429D01*
X140204762Y-98566667D01*
X140157143Y-98614286D01*
X139252381Y-97757143D02*
X140252381Y-97423810D01*
X139252381Y-97090476D01*
X122561905Y-82992381D02*
X122561905Y-81992381D01*
X122942858Y-81992381D01*
X123038096Y-82040000D01*
X123085715Y-82087619D01*
X123133334Y-82182857D01*
X123133334Y-82325714D01*
X123085715Y-82420952D01*
X123038096Y-82468571D01*
X122942858Y-82516190D01*
X122561905Y-82516190D01*
X124085715Y-82992381D02*
X123514286Y-82992381D01*
X123800000Y-82992381D02*
X123800000Y-81992381D01*
X123704762Y-82135238D01*
X123609524Y-82230476D01*
X123514286Y-82278095D01*
X138159048Y-73721429D02*
X138920953Y-73721429D01*
X138159048Y-71181429D02*
X138920953Y-71181429D01*
X138540001Y-71562381D02*
X138540001Y-70800476D01*
D14*
X138206667Y-72344286D02*
X138278096Y-72368095D01*
X138301905Y-72391905D01*
X138325715Y-72439524D01*
X138325715Y-72510952D01*
X138301905Y-72558571D01*
X138278096Y-72582381D01*
X138230477Y-72606190D01*
X138040001Y-72606190D01*
X138040001Y-72106190D01*
X138206667Y-72106190D01*
X138254286Y-72130000D01*
X138278096Y-72153810D01*
X138301905Y-72201429D01*
X138301905Y-72249048D01*
X138278096Y-72296667D01*
X138254286Y-72320476D01*
X138206667Y-72344286D01*
X138040001Y-72344286D01*
X138754286Y-72606190D02*
X138754286Y-72344286D01*
X138730477Y-72296667D01*
X138682858Y-72272857D01*
X138587620Y-72272857D01*
X138540001Y-72296667D01*
X138754286Y-72582381D02*
X138706667Y-72606190D01*
X138587620Y-72606190D01*
X138540001Y-72582381D01*
X138516191Y-72534762D01*
X138516191Y-72487143D01*
X138540001Y-72439524D01*
X138587620Y-72415714D01*
X138706667Y-72415714D01*
X138754286Y-72391905D01*
X138920953Y-72272857D02*
X139111429Y-72272857D01*
X138992382Y-72106190D02*
X138992382Y-72534762D01*
X139016191Y-72582381D01*
X139063810Y-72606190D01*
X139111429Y-72606190D01*
D12*
X107679048Y-71181429D02*
X108440953Y-71181429D01*
X108060001Y-71562381D02*
X108060001Y-70800476D01*
X107679048Y-73721429D02*
X108440953Y-73721429D01*
D14*
X107536191Y-72606190D02*
X107298096Y-72606190D01*
X107298096Y-72106190D01*
X107774286Y-72606190D02*
X107726667Y-72582381D01*
X107702858Y-72558571D01*
X107679048Y-72510952D01*
X107679048Y-72368095D01*
X107702858Y-72320476D01*
X107726667Y-72296667D01*
X107774286Y-72272857D01*
X107845715Y-72272857D01*
X107893334Y-72296667D01*
X107917143Y-72320476D01*
X107940953Y-72368095D01*
X107940953Y-72510952D01*
X107917143Y-72558571D01*
X107893334Y-72582381D01*
X107845715Y-72606190D01*
X107774286Y-72606190D01*
X108369524Y-72606190D02*
X108369524Y-72344286D01*
X108345715Y-72296667D01*
X108298096Y-72272857D01*
X108202858Y-72272857D01*
X108155239Y-72296667D01*
X108369524Y-72582381D02*
X108321905Y-72606190D01*
X108202858Y-72606190D01*
X108155239Y-72582381D01*
X108131429Y-72534762D01*
X108131429Y-72487143D01*
X108155239Y-72439524D01*
X108202858Y-72415714D01*
X108321905Y-72415714D01*
X108369524Y-72391905D01*
X108821905Y-72606190D02*
X108821905Y-72106190D01*
X108821905Y-72582381D02*
X108774286Y-72606190D01*
X108679048Y-72606190D01*
X108631429Y-72582381D01*
X108607620Y-72558571D01*
X108583810Y-72510952D01*
X108583810Y-72368095D01*
X108607620Y-72320476D01*
X108631429Y-72296667D01*
X108679048Y-72272857D01*
X108774286Y-72272857D01*
X108821905Y-72296667D01*
D12*
X91052381Y-80861905D02*
X91861905Y-80861905D01*
X91957143Y-80814286D01*
X92004762Y-80766667D01*
X92052381Y-80671429D01*
X92052381Y-80480952D01*
X92004762Y-80385714D01*
X91957143Y-80338095D01*
X91861905Y-80290476D01*
X91052381Y-80290476D01*
X91147619Y-79861905D02*
X91100000Y-79814286D01*
X91052381Y-79719048D01*
X91052381Y-79480952D01*
X91100000Y-79385714D01*
X91147619Y-79338095D01*
X91242857Y-79290476D01*
X91338095Y-79290476D01*
X91480952Y-79338095D01*
X92052381Y-79909524D01*
X92052381Y-79290476D01*
X98059286Y-72120714D02*
X97702143Y-72370714D01*
X98059286Y-72549286D02*
X97309286Y-72549286D01*
X97309286Y-72263571D01*
X97345000Y-72192143D01*
X97380714Y-72156428D01*
X97452143Y-72120714D01*
X97559286Y-72120714D01*
X97630714Y-72156428D01*
X97666429Y-72192143D01*
X97702143Y-72263571D01*
X97702143Y-72549286D01*
X98023571Y-71835000D02*
X98059286Y-71727857D01*
X98059286Y-71549286D01*
X98023571Y-71477857D01*
X97987857Y-71442143D01*
X97916429Y-71406428D01*
X97845000Y-71406428D01*
X97773571Y-71442143D01*
X97737857Y-71477857D01*
X97702143Y-71549286D01*
X97666429Y-71692143D01*
X97630714Y-71763571D01*
X97595000Y-71799286D01*
X97523571Y-71835000D01*
X97452143Y-71835000D01*
X97380714Y-71799286D01*
X97345000Y-71763571D01*
X97309286Y-71692143D01*
X97309286Y-71513571D01*
X97345000Y-71406428D01*
X97309286Y-71192142D02*
X97309286Y-70763571D01*
X98059286Y-70977857D02*
X97309286Y-70977857D01*
X97309286Y-90257856D02*
X98059286Y-90007856D01*
X97309286Y-89757856D01*
X98059286Y-89507857D02*
X97559286Y-89507857D01*
X97309286Y-89507857D02*
X97345000Y-89543571D01*
X97380714Y-89507857D01*
X97345000Y-89472142D01*
X97309286Y-89507857D01*
X97380714Y-89507857D01*
X97559286Y-89150714D02*
X98059286Y-89150714D01*
X97630714Y-89150714D02*
X97595000Y-89114999D01*
X97559286Y-89043571D01*
X97559286Y-88936428D01*
X97595000Y-88864999D01*
X97666429Y-88829285D01*
X98059286Y-88829285D01*
M02*
