G04 #@! TF.FileFunction,Copper,L1,Top,Signal*
%FSLAX46Y46*%
G04 Gerber Fmt 4.6, Leading zero omitted, Abs format (unit mm)*
G04 Created by KiCad (PCBNEW 4.0.2-stable) date Tuesday, August 01, 2017 'PMt' 03:56:38 PM*
%MOMM*%
G01*
G04 APERTURE LIST*
%ADD10C,0.100000*%
%ADD11C,2.400000*%
%ADD12R,2.400000X2.400000*%
%ADD13O,1.500000X0.900000*%
%ADD14R,1.500000X0.900000*%
%ADD15C,3.810000*%
%ADD16C,1.524000*%
%ADD17C,4.200000*%
%ADD18C,1.820000*%
%ADD19C,3.100000*%
%ADD20C,0.250000*%
%ADD21C,0.350000*%
%ADD22C,0.254000*%
G04 APERTURE END LIST*
D10*
D11*
X94000000Y-120600000D03*
X94000000Y-124100000D03*
D12*
X94000000Y-117100000D03*
D13*
X93600000Y-108530000D03*
X93600000Y-107260000D03*
D14*
X93600000Y-109800000D03*
D15*
X103050000Y-136150000D03*
D16*
X139850000Y-95675000D03*
X137310000Y-95675000D03*
X134770000Y-95675000D03*
X132230000Y-95675000D03*
X129690000Y-95675000D03*
X127150000Y-95675000D03*
X124610000Y-95675000D03*
X122070000Y-95675000D03*
X119530000Y-95675000D03*
X116990000Y-95675000D03*
X114450000Y-95675000D03*
X111910000Y-95675000D03*
X109370000Y-95675000D03*
X106830000Y-95675000D03*
X104290000Y-95675000D03*
X101750000Y-95675000D03*
D15*
X138550000Y-136150000D03*
D17*
X80700000Y-101600000D03*
X168700000Y-101600000D03*
X124700000Y-57600000D03*
X124700000Y-146000000D03*
D18*
X105520000Y-73650000D03*
D19*
X141080000Y-91430000D03*
X105520000Y-91430000D03*
X141080000Y-66030000D03*
X105520000Y-66030000D03*
D18*
X105520000Y-71110000D03*
X141080000Y-73650000D03*
X141080000Y-71110000D03*
D19*
X83750000Y-71710000D03*
D16*
X96450000Y-71710000D03*
X96450000Y-74250000D03*
X96450000Y-76790000D03*
X96450000Y-79330000D03*
X96450000Y-81870000D03*
X96450000Y-84410000D03*
X96450000Y-86950000D03*
X96450000Y-89490000D03*
D19*
X83750000Y-89490000D03*
D16*
X116520000Y-72520000D03*
X113980000Y-72520000D03*
X135570000Y-85220000D03*
X133030000Y-85220000D03*
X130490000Y-85220000D03*
X127950000Y-85220000D03*
X125410000Y-85220000D03*
X122870000Y-85220000D03*
X120330000Y-85220000D03*
X117790000Y-85220000D03*
X115250000Y-85220000D03*
X112710000Y-85220000D03*
X110170000Y-85220000D03*
X107630000Y-85220000D03*
X107630000Y-69980000D03*
X110170000Y-69980000D03*
X112710000Y-69980000D03*
X115250000Y-69980000D03*
X117790000Y-69980000D03*
X120330000Y-69980000D03*
X122870000Y-69980000D03*
X125410000Y-69980000D03*
X127950000Y-69980000D03*
X130490000Y-69980000D03*
X133030000Y-69980000D03*
X135570000Y-69980000D03*
X124140000Y-72520000D03*
X126680000Y-72520000D03*
D20*
X142443200Y-132486400D02*
X142494000Y-132486400D01*
X93600000Y-108530000D02*
X94770000Y-108530000D01*
X119550000Y-81900000D02*
X122870000Y-85220000D01*
X107200000Y-81900000D02*
X119550000Y-81900000D01*
X100000000Y-89100000D02*
X107200000Y-81900000D01*
X100000000Y-103300000D02*
X100000000Y-89100000D01*
X94770000Y-108530000D02*
X100000000Y-103300000D01*
X122315000Y-88300000D02*
X129690000Y-95675000D01*
X120700000Y-88300000D02*
X122315000Y-88300000D01*
X117790000Y-85390000D02*
X120700000Y-88300000D01*
X117790000Y-85220000D02*
X117790000Y-85390000D01*
X115250000Y-85220000D02*
X115250000Y-85250000D01*
X115250000Y-85250000D02*
X120200000Y-90200000D01*
X120200000Y-90200000D02*
X121675000Y-90200000D01*
X121675000Y-90200000D02*
X127150000Y-95675000D01*
X112710000Y-85220000D02*
X112710000Y-85510000D01*
X112710000Y-85510000D02*
X119300000Y-92100000D01*
X119300000Y-92100000D02*
X121035000Y-92100000D01*
X121035000Y-92100000D02*
X124610000Y-95675000D01*
X110170000Y-85220000D02*
X110170000Y-86315000D01*
X110170000Y-86315000D02*
X119530000Y-95675000D01*
X107630000Y-85220000D02*
X107630000Y-88855000D01*
X107630000Y-88855000D02*
X114450000Y-95675000D01*
X117790000Y-69980000D02*
X117790000Y-70690000D01*
X117790000Y-70690000D02*
X118700000Y-71600000D01*
X118700000Y-71600000D02*
X118700000Y-73500000D01*
X118700000Y-73500000D02*
X117300000Y-74900000D01*
X117300000Y-74900000D02*
X103500000Y-74900000D01*
X103500000Y-74900000D02*
X97200000Y-68600000D01*
X97200000Y-68600000D02*
X95700000Y-68600000D01*
X95700000Y-68600000D02*
X89300000Y-75000000D01*
X89300000Y-75000000D02*
X89300000Y-112400000D01*
X89300000Y-112400000D02*
X94000000Y-117100000D01*
D21*
X137310000Y-95675000D02*
X137310000Y-71720000D01*
X137310000Y-71720000D02*
X135570000Y-69980000D01*
X141080000Y-71110000D02*
X136700000Y-71110000D01*
X136700000Y-71110000D02*
X135570000Y-69980000D01*
X135570000Y-69980000D02*
X135570000Y-70070000D01*
D20*
X120360000Y-76300000D02*
X124140000Y-72520000D01*
X104800000Y-76300000D02*
X120360000Y-76300000D01*
X99230000Y-81870000D02*
X104800000Y-76300000D01*
X96450000Y-81870000D02*
X99230000Y-81870000D01*
X96450000Y-84410000D02*
X101390000Y-84410000D01*
X101390000Y-84410000D02*
X107000000Y-78800000D01*
X107000000Y-78800000D02*
X120400000Y-78800000D01*
X120400000Y-78800000D02*
X126680000Y-72520000D01*
X93600000Y-109800000D02*
X93600000Y-111700000D01*
X96800000Y-117800000D02*
X94000000Y-120600000D01*
X96800000Y-114900000D02*
X96800000Y-117800000D01*
X93600000Y-111700000D02*
X96800000Y-114900000D01*
D22*
G36*
X160496000Y-64900000D02*
X160519141Y-65016336D01*
X160585040Y-65114960D01*
X160673000Y-65173733D01*
X160673000Y-137896000D01*
X160500000Y-137896000D01*
X160383664Y-137919141D01*
X160285040Y-137985040D01*
X160219141Y-138083664D01*
X160196000Y-138200000D01*
X160196000Y-138571376D01*
X86904000Y-138374353D01*
X86904000Y-136592024D01*
X100817614Y-136592024D01*
X101156700Y-137412674D01*
X101784023Y-138041094D01*
X102604080Y-138381611D01*
X103492024Y-138382386D01*
X104312674Y-138043300D01*
X104941094Y-137415977D01*
X105281611Y-136595920D01*
X105281614Y-136592024D01*
X136317614Y-136592024D01*
X136656700Y-137412674D01*
X137284023Y-138041094D01*
X138104080Y-138381611D01*
X138992024Y-138382386D01*
X139812674Y-138043300D01*
X140441094Y-137415977D01*
X140781611Y-136595920D01*
X140782386Y-135707976D01*
X140443300Y-134887326D01*
X139815977Y-134258906D01*
X138995920Y-133918389D01*
X138107976Y-133917614D01*
X137287326Y-134256700D01*
X136658906Y-134884023D01*
X136318389Y-135704080D01*
X136317614Y-136592024D01*
X105281614Y-136592024D01*
X105282386Y-135707976D01*
X104943300Y-134887326D01*
X104315977Y-134258906D01*
X103495920Y-133918389D01*
X102607976Y-133917614D01*
X101787326Y-134256700D01*
X101158906Y-134884023D01*
X100818389Y-135704080D01*
X100817614Y-136592024D01*
X86904000Y-136592024D01*
X86904000Y-124412308D01*
X92422727Y-124412308D01*
X92662305Y-124992132D01*
X93105535Y-125436136D01*
X93684939Y-125676725D01*
X94312308Y-125677273D01*
X94892132Y-125437695D01*
X95336136Y-124994465D01*
X95576725Y-124415061D01*
X95577273Y-123787692D01*
X95337695Y-123207868D01*
X94894465Y-122763864D01*
X94315061Y-122523275D01*
X93687692Y-122522727D01*
X93107868Y-122762305D01*
X92663864Y-123205535D01*
X92423275Y-123784939D01*
X92422727Y-124412308D01*
X86904000Y-124412308D01*
X86904000Y-104800000D01*
X86880859Y-104683664D01*
X86814960Y-104585040D01*
X86716336Y-104519141D01*
X86600000Y-104496000D01*
X86527000Y-104496000D01*
X86527000Y-75000000D01*
X88848000Y-75000000D01*
X88848000Y-112400000D01*
X88882406Y-112572973D01*
X88980388Y-112719612D01*
X92466594Y-116205818D01*
X92466594Y-118300000D01*
X92489395Y-118421179D01*
X92561012Y-118532474D01*
X92670286Y-118607138D01*
X92800000Y-118633406D01*
X95200000Y-118633406D01*
X95321179Y-118610605D01*
X95402500Y-118558276D01*
X94716621Y-119244155D01*
X94305072Y-119073265D01*
X93697593Y-119072735D01*
X93136154Y-119304717D01*
X92706227Y-119733894D01*
X92473265Y-120294928D01*
X92472735Y-120902407D01*
X92704717Y-121463846D01*
X93133894Y-121893773D01*
X93694928Y-122126735D01*
X94302407Y-122127265D01*
X94863846Y-121895283D01*
X95293773Y-121466106D01*
X95526735Y-120905072D01*
X95527265Y-120297593D01*
X95356036Y-119883188D01*
X97119612Y-118119612D01*
X97217594Y-117972973D01*
X97252000Y-117800000D01*
X97252000Y-114900000D01*
X97217594Y-114727027D01*
X97119612Y-114580387D01*
X94052000Y-111512776D01*
X94052000Y-110583406D01*
X94350000Y-110583406D01*
X94471179Y-110560605D01*
X94582474Y-110488988D01*
X94657138Y-110379714D01*
X94683406Y-110250000D01*
X94683406Y-109350000D01*
X94660605Y-109228821D01*
X94588988Y-109117526D01*
X94490175Y-109050010D01*
X94535617Y-108982000D01*
X94770000Y-108982000D01*
X94942973Y-108947594D01*
X95089612Y-108849612D01*
X100319612Y-103619612D01*
X100417594Y-103472973D01*
X100452000Y-103300000D01*
X100452000Y-101600000D01*
X102896000Y-101600000D01*
X102896000Y-133000000D01*
X102919141Y-133116336D01*
X102985040Y-133214960D01*
X103083664Y-133280859D01*
X103200000Y-133304000D01*
X121200000Y-133304000D01*
X121316336Y-133280859D01*
X121414960Y-133214960D01*
X121480859Y-133116336D01*
X121504000Y-133000000D01*
X121504000Y-132486400D01*
X141991200Y-132486400D01*
X142025606Y-132659373D01*
X142123588Y-132806012D01*
X142270227Y-132903994D01*
X142443200Y-132938400D01*
X142494000Y-132938400D01*
X142666973Y-132903994D01*
X142813612Y-132806012D01*
X142911594Y-132659373D01*
X142946000Y-132486400D01*
X142911594Y-132313427D01*
X142813612Y-132166788D01*
X142666973Y-132068806D01*
X142494000Y-132034400D01*
X142443200Y-132034400D01*
X142270227Y-132068806D01*
X142123588Y-132166788D01*
X142025606Y-132313427D01*
X141991200Y-132486400D01*
X121504000Y-132486400D01*
X121504000Y-119400000D01*
X143396000Y-119400000D01*
X143396000Y-127400000D01*
X143419141Y-127516336D01*
X143485040Y-127614960D01*
X143583664Y-127680859D01*
X143700000Y-127704000D01*
X147700000Y-127704000D01*
X147816336Y-127680859D01*
X147914960Y-127614960D01*
X147980859Y-127516336D01*
X148004000Y-127400000D01*
X148004000Y-119400000D01*
X147980859Y-119283664D01*
X147914960Y-119185040D01*
X147816336Y-119119141D01*
X147700000Y-119096000D01*
X143700000Y-119096000D01*
X143583664Y-119119141D01*
X143485040Y-119185040D01*
X143419141Y-119283664D01*
X143396000Y-119400000D01*
X121504000Y-119400000D01*
X121504000Y-101600000D01*
X121480859Y-101483664D01*
X121414960Y-101385040D01*
X121316336Y-101319141D01*
X121200000Y-101296000D01*
X103200000Y-101296000D01*
X103083664Y-101319141D01*
X102985040Y-101385040D01*
X102919141Y-101483664D01*
X102896000Y-101600000D01*
X100452000Y-101600000D01*
X100452000Y-95890665D01*
X100660811Y-95890665D01*
X100826252Y-96291063D01*
X101132326Y-96597671D01*
X101532434Y-96763811D01*
X101965665Y-96764189D01*
X102366063Y-96598748D01*
X102672671Y-96292674D01*
X102838811Y-95892566D01*
X102838812Y-95890665D01*
X103200811Y-95890665D01*
X103366252Y-96291063D01*
X103672326Y-96597671D01*
X104072434Y-96763811D01*
X104505665Y-96764189D01*
X104906063Y-96598748D01*
X105212671Y-96292674D01*
X105378811Y-95892566D01*
X105378812Y-95890665D01*
X105740811Y-95890665D01*
X105906252Y-96291063D01*
X106212326Y-96597671D01*
X106612434Y-96763811D01*
X107045665Y-96764189D01*
X107446063Y-96598748D01*
X107752671Y-96292674D01*
X107918811Y-95892566D01*
X107918812Y-95890665D01*
X108280811Y-95890665D01*
X108446252Y-96291063D01*
X108752326Y-96597671D01*
X109152434Y-96763811D01*
X109585665Y-96764189D01*
X109986063Y-96598748D01*
X110292671Y-96292674D01*
X110458811Y-95892566D01*
X110458812Y-95890665D01*
X110820811Y-95890665D01*
X110986252Y-96291063D01*
X111292326Y-96597671D01*
X111692434Y-96763811D01*
X112125665Y-96764189D01*
X112526063Y-96598748D01*
X112832671Y-96292674D01*
X112998811Y-95892566D01*
X112999189Y-95459335D01*
X112833748Y-95058937D01*
X112527674Y-94752329D01*
X112127566Y-94586189D01*
X111694335Y-94585811D01*
X111293937Y-94751252D01*
X110987329Y-95057326D01*
X110821189Y-95457434D01*
X110820811Y-95890665D01*
X110458812Y-95890665D01*
X110459189Y-95459335D01*
X110293748Y-95058937D01*
X109987674Y-94752329D01*
X109587566Y-94586189D01*
X109154335Y-94585811D01*
X108753937Y-94751252D01*
X108447329Y-95057326D01*
X108281189Y-95457434D01*
X108280811Y-95890665D01*
X107918812Y-95890665D01*
X107919189Y-95459335D01*
X107753748Y-95058937D01*
X107447674Y-94752329D01*
X107047566Y-94586189D01*
X106614335Y-94585811D01*
X106213937Y-94751252D01*
X105907329Y-95057326D01*
X105741189Y-95457434D01*
X105740811Y-95890665D01*
X105378812Y-95890665D01*
X105379189Y-95459335D01*
X105213748Y-95058937D01*
X104907674Y-94752329D01*
X104507566Y-94586189D01*
X104074335Y-94585811D01*
X103673937Y-94751252D01*
X103367329Y-95057326D01*
X103201189Y-95457434D01*
X103200811Y-95890665D01*
X102838812Y-95890665D01*
X102839189Y-95459335D01*
X102673748Y-95058937D01*
X102367674Y-94752329D01*
X101967566Y-94586189D01*
X101534335Y-94585811D01*
X101133937Y-94751252D01*
X100827329Y-95057326D01*
X100661189Y-95457434D01*
X100660811Y-95890665D01*
X100452000Y-95890665D01*
X100452000Y-91801720D01*
X103642675Y-91801720D01*
X103927829Y-92491846D01*
X104455376Y-93020316D01*
X105145004Y-93306674D01*
X105891720Y-93307325D01*
X106581846Y-93022171D01*
X107110316Y-92494624D01*
X107396674Y-91804996D01*
X107397325Y-91058280D01*
X107112171Y-90368154D01*
X106584624Y-89839684D01*
X105894996Y-89553326D01*
X105148280Y-89552675D01*
X104458154Y-89837829D01*
X103929684Y-90365376D01*
X103643326Y-91055004D01*
X103642675Y-91801720D01*
X100452000Y-91801720D01*
X100452000Y-89287224D01*
X104303559Y-85435665D01*
X106540811Y-85435665D01*
X106706252Y-85836063D01*
X107012326Y-86142671D01*
X107178000Y-86211465D01*
X107178000Y-88855000D01*
X107212406Y-89027973D01*
X107310388Y-89174612D01*
X113429265Y-95293490D01*
X113361189Y-95457434D01*
X113360811Y-95890665D01*
X113526252Y-96291063D01*
X113832326Y-96597671D01*
X114232434Y-96763811D01*
X114665665Y-96764189D01*
X115066063Y-96598748D01*
X115372671Y-96292674D01*
X115538811Y-95892566D01*
X115538812Y-95890665D01*
X115900811Y-95890665D01*
X116066252Y-96291063D01*
X116372326Y-96597671D01*
X116772434Y-96763811D01*
X117205665Y-96764189D01*
X117606063Y-96598748D01*
X117912671Y-96292674D01*
X118078811Y-95892566D01*
X118079189Y-95459335D01*
X117913748Y-95058937D01*
X117607674Y-94752329D01*
X117207566Y-94586189D01*
X116774335Y-94585811D01*
X116373937Y-94751252D01*
X116067329Y-95057326D01*
X115901189Y-95457434D01*
X115900811Y-95890665D01*
X115538812Y-95890665D01*
X115539189Y-95459335D01*
X115373748Y-95058937D01*
X115067674Y-94752329D01*
X114667566Y-94586189D01*
X114234335Y-94585811D01*
X114068541Y-94654316D01*
X108082000Y-88667776D01*
X108082000Y-86211537D01*
X108246063Y-86143748D01*
X108552671Y-85837674D01*
X108718811Y-85437566D01*
X108718812Y-85435665D01*
X109080811Y-85435665D01*
X109246252Y-85836063D01*
X109552326Y-86142671D01*
X109718000Y-86211465D01*
X109718000Y-86315000D01*
X109752406Y-86487973D01*
X109850388Y-86634612D01*
X118509265Y-95293489D01*
X118441189Y-95457434D01*
X118440811Y-95890665D01*
X118606252Y-96291063D01*
X118912326Y-96597671D01*
X119312434Y-96763811D01*
X119745665Y-96764189D01*
X120146063Y-96598748D01*
X120452671Y-96292674D01*
X120618811Y-95892566D01*
X120618812Y-95890665D01*
X120980811Y-95890665D01*
X121146252Y-96291063D01*
X121452326Y-96597671D01*
X121852434Y-96763811D01*
X122285665Y-96764189D01*
X122686063Y-96598748D01*
X122992671Y-96292674D01*
X123158811Y-95892566D01*
X123159189Y-95459335D01*
X122993748Y-95058937D01*
X122687674Y-94752329D01*
X122287566Y-94586189D01*
X121854335Y-94585811D01*
X121453937Y-94751252D01*
X121147329Y-95057326D01*
X120981189Y-95457434D01*
X120980811Y-95890665D01*
X120618812Y-95890665D01*
X120619189Y-95459335D01*
X120453748Y-95058937D01*
X120147674Y-94752329D01*
X119747566Y-94586189D01*
X119314335Y-94585811D01*
X119148540Y-94654316D01*
X110681271Y-86187047D01*
X110786063Y-86143748D01*
X111092671Y-85837674D01*
X111258811Y-85437566D01*
X111258812Y-85435665D01*
X111620811Y-85435665D01*
X111786252Y-85836063D01*
X112092326Y-86142671D01*
X112492434Y-86308811D01*
X112869916Y-86309140D01*
X118980387Y-92419612D01*
X119088493Y-92491846D01*
X119127027Y-92517594D01*
X119300000Y-92552000D01*
X120847776Y-92552000D01*
X123589265Y-95293490D01*
X123521189Y-95457434D01*
X123520811Y-95890665D01*
X123686252Y-96291063D01*
X123992326Y-96597671D01*
X124392434Y-96763811D01*
X124825665Y-96764189D01*
X125226063Y-96598748D01*
X125532671Y-96292674D01*
X125698811Y-95892566D01*
X125699189Y-95459335D01*
X125533748Y-95058937D01*
X125227674Y-94752329D01*
X124827566Y-94586189D01*
X124394335Y-94585811D01*
X124228541Y-94654316D01*
X121354612Y-91780388D01*
X121207973Y-91682406D01*
X121035000Y-91648000D01*
X119487225Y-91648000D01*
X113645647Y-85806423D01*
X113798811Y-85437566D01*
X113798812Y-85435665D01*
X114160811Y-85435665D01*
X114326252Y-85836063D01*
X114632326Y-86142671D01*
X115032434Y-86308811D01*
X115465665Y-86309189D01*
X115610231Y-86249455D01*
X119880388Y-90519612D01*
X120027027Y-90617594D01*
X120200000Y-90652000D01*
X121487776Y-90652000D01*
X126129265Y-95293489D01*
X126061189Y-95457434D01*
X126060811Y-95890665D01*
X126226252Y-96291063D01*
X126532326Y-96597671D01*
X126932434Y-96763811D01*
X127365665Y-96764189D01*
X127766063Y-96598748D01*
X128072671Y-96292674D01*
X128238811Y-95892566D01*
X128239189Y-95459335D01*
X128073748Y-95058937D01*
X127767674Y-94752329D01*
X127367566Y-94586189D01*
X126934335Y-94585811D01*
X126768540Y-94654316D01*
X121994612Y-89880388D01*
X121847973Y-89782406D01*
X121675000Y-89748000D01*
X120387224Y-89748000D01*
X116261933Y-85622709D01*
X116338811Y-85437566D01*
X116338812Y-85435665D01*
X116700811Y-85435665D01*
X116866252Y-85836063D01*
X117172326Y-86142671D01*
X117572434Y-86308811D01*
X118005665Y-86309189D01*
X118051165Y-86290389D01*
X120380387Y-88619612D01*
X120474365Y-88682406D01*
X120527027Y-88717594D01*
X120700000Y-88752000D01*
X122127776Y-88752000D01*
X128669265Y-95293489D01*
X128601189Y-95457434D01*
X128600811Y-95890665D01*
X128766252Y-96291063D01*
X129072326Y-96597671D01*
X129472434Y-96763811D01*
X129905665Y-96764189D01*
X130306063Y-96598748D01*
X130472318Y-96432782D01*
X131651823Y-96432782D01*
X131743548Y-96560610D01*
X132119485Y-96679353D01*
X132512247Y-96645194D01*
X132716452Y-96560610D01*
X132808177Y-96432782D01*
X132230000Y-95854605D01*
X131651823Y-96432782D01*
X130472318Y-96432782D01*
X130612671Y-96292674D01*
X130778811Y-95892566D01*
X130779097Y-95564485D01*
X131225647Y-95564485D01*
X131259806Y-95957247D01*
X131344390Y-96161452D01*
X131472218Y-96253177D01*
X132050395Y-95675000D01*
X132409605Y-95675000D01*
X132987782Y-96253177D01*
X133115610Y-96161452D01*
X133198012Y-95900567D01*
X133630803Y-95900567D01*
X133803840Y-96319349D01*
X134123966Y-96640034D01*
X134542445Y-96813802D01*
X134995567Y-96814197D01*
X135414349Y-96641160D01*
X135735034Y-96321034D01*
X135908802Y-95902555D01*
X135909197Y-95449433D01*
X135736160Y-95030651D01*
X135416034Y-94709966D01*
X134997555Y-94536198D01*
X134544433Y-94535803D01*
X134125651Y-94708840D01*
X133804966Y-95028966D01*
X133631198Y-95447445D01*
X133630803Y-95900567D01*
X133198012Y-95900567D01*
X133234353Y-95785515D01*
X133200194Y-95392753D01*
X133115610Y-95188548D01*
X132987782Y-95096823D01*
X132409605Y-95675000D01*
X132050395Y-95675000D01*
X131472218Y-95096823D01*
X131344390Y-95188548D01*
X131225647Y-95564485D01*
X130779097Y-95564485D01*
X130779189Y-95459335D01*
X130613748Y-95058937D01*
X130472276Y-94917218D01*
X131651823Y-94917218D01*
X132230000Y-95495395D01*
X132808177Y-94917218D01*
X132716452Y-94789390D01*
X132340515Y-94670647D01*
X131947753Y-94704806D01*
X131743548Y-94789390D01*
X131651823Y-94917218D01*
X130472276Y-94917218D01*
X130307674Y-94752329D01*
X129907566Y-94586189D01*
X129474335Y-94585811D01*
X129308540Y-94654316D01*
X122634612Y-87980388D01*
X122487973Y-87882406D01*
X122315000Y-87848000D01*
X120887225Y-87848000D01*
X118760856Y-85721632D01*
X118878811Y-85437566D01*
X118878812Y-85435665D01*
X119240811Y-85435665D01*
X119406252Y-85836063D01*
X119712326Y-86142671D01*
X120112434Y-86308811D01*
X120545665Y-86309189D01*
X120946063Y-86143748D01*
X121252671Y-85837674D01*
X121418811Y-85437566D01*
X121419189Y-85004335D01*
X121253748Y-84603937D01*
X120947674Y-84297329D01*
X120547566Y-84131189D01*
X120114335Y-84130811D01*
X119713937Y-84296252D01*
X119407329Y-84602326D01*
X119241189Y-85002434D01*
X119240811Y-85435665D01*
X118878812Y-85435665D01*
X118879189Y-85004335D01*
X118713748Y-84603937D01*
X118407674Y-84297329D01*
X118007566Y-84131189D01*
X117574335Y-84130811D01*
X117173937Y-84296252D01*
X116867329Y-84602326D01*
X116701189Y-85002434D01*
X116700811Y-85435665D01*
X116338812Y-85435665D01*
X116339189Y-85004335D01*
X116173748Y-84603937D01*
X115867674Y-84297329D01*
X115467566Y-84131189D01*
X115034335Y-84130811D01*
X114633937Y-84296252D01*
X114327329Y-84602326D01*
X114161189Y-85002434D01*
X114160811Y-85435665D01*
X113798812Y-85435665D01*
X113799189Y-85004335D01*
X113633748Y-84603937D01*
X113327674Y-84297329D01*
X112927566Y-84131189D01*
X112494335Y-84130811D01*
X112093937Y-84296252D01*
X111787329Y-84602326D01*
X111621189Y-85002434D01*
X111620811Y-85435665D01*
X111258812Y-85435665D01*
X111259189Y-85004335D01*
X111093748Y-84603937D01*
X110787674Y-84297329D01*
X110387566Y-84131189D01*
X109954335Y-84130811D01*
X109553937Y-84296252D01*
X109247329Y-84602326D01*
X109081189Y-85002434D01*
X109080811Y-85435665D01*
X108718812Y-85435665D01*
X108719189Y-85004335D01*
X108553748Y-84603937D01*
X108247674Y-84297329D01*
X107847566Y-84131189D01*
X107414335Y-84130811D01*
X107013937Y-84296252D01*
X106707329Y-84602326D01*
X106541189Y-85002434D01*
X106540811Y-85435665D01*
X104303559Y-85435665D01*
X107387225Y-82352000D01*
X119362776Y-82352000D01*
X121849265Y-84838489D01*
X121781189Y-85002434D01*
X121780811Y-85435665D01*
X121946252Y-85836063D01*
X122252326Y-86142671D01*
X122652434Y-86308811D01*
X123085665Y-86309189D01*
X123486063Y-86143748D01*
X123792671Y-85837674D01*
X123958811Y-85437566D01*
X123958812Y-85435665D01*
X124320811Y-85435665D01*
X124486252Y-85836063D01*
X124792326Y-86142671D01*
X125192434Y-86308811D01*
X125625665Y-86309189D01*
X126026063Y-86143748D01*
X126332671Y-85837674D01*
X126495488Y-85445567D01*
X126810803Y-85445567D01*
X126983840Y-85864349D01*
X127303966Y-86185034D01*
X127722445Y-86358802D01*
X128175567Y-86359197D01*
X128594349Y-86186160D01*
X128915034Y-85866034D01*
X129088802Y-85447555D01*
X129088812Y-85435665D01*
X129400811Y-85435665D01*
X129566252Y-85836063D01*
X129872326Y-86142671D01*
X130272434Y-86308811D01*
X130705665Y-86309189D01*
X131106063Y-86143748D01*
X131412671Y-85837674D01*
X131578811Y-85437566D01*
X131578812Y-85435665D01*
X131940811Y-85435665D01*
X132106252Y-85836063D01*
X132412326Y-86142671D01*
X132812434Y-86308811D01*
X133245665Y-86309189D01*
X133646063Y-86143748D01*
X133952671Y-85837674D01*
X134118811Y-85437566D01*
X134118812Y-85435665D01*
X134480811Y-85435665D01*
X134646252Y-85836063D01*
X134952326Y-86142671D01*
X135352434Y-86308811D01*
X135785665Y-86309189D01*
X136186063Y-86143748D01*
X136492671Y-85837674D01*
X136658811Y-85437566D01*
X136659189Y-85004335D01*
X136493748Y-84603937D01*
X136187674Y-84297329D01*
X135787566Y-84131189D01*
X135354335Y-84130811D01*
X134953937Y-84296252D01*
X134647329Y-84602326D01*
X134481189Y-85002434D01*
X134480811Y-85435665D01*
X134118812Y-85435665D01*
X134119189Y-85004335D01*
X133953748Y-84603937D01*
X133647674Y-84297329D01*
X133247566Y-84131189D01*
X132814335Y-84130811D01*
X132413937Y-84296252D01*
X132107329Y-84602326D01*
X131941189Y-85002434D01*
X131940811Y-85435665D01*
X131578812Y-85435665D01*
X131579189Y-85004335D01*
X131413748Y-84603937D01*
X131107674Y-84297329D01*
X130707566Y-84131189D01*
X130274335Y-84130811D01*
X129873937Y-84296252D01*
X129567329Y-84602326D01*
X129401189Y-85002434D01*
X129400811Y-85435665D01*
X129088812Y-85435665D01*
X129089197Y-84994433D01*
X128916160Y-84575651D01*
X128596034Y-84254966D01*
X128177555Y-84081198D01*
X127724433Y-84080803D01*
X127305651Y-84253840D01*
X126984966Y-84573966D01*
X126811198Y-84992445D01*
X126810803Y-85445567D01*
X126495488Y-85445567D01*
X126498811Y-85437566D01*
X126499189Y-85004335D01*
X126333748Y-84603937D01*
X126027674Y-84297329D01*
X125627566Y-84131189D01*
X125194335Y-84130811D01*
X124793937Y-84296252D01*
X124487329Y-84602326D01*
X124321189Y-85002434D01*
X124320811Y-85435665D01*
X123958812Y-85435665D01*
X123959189Y-85004335D01*
X123793748Y-84603937D01*
X123487674Y-84297329D01*
X123087566Y-84131189D01*
X122654335Y-84130811D01*
X122488540Y-84199316D01*
X119869612Y-81580388D01*
X119722973Y-81482406D01*
X119550000Y-81448000D01*
X107200000Y-81448000D01*
X107027027Y-81482406D01*
X106880388Y-81580387D01*
X99680388Y-88780388D01*
X99582406Y-88927027D01*
X99548000Y-89100000D01*
X99548000Y-103112776D01*
X94582776Y-108078000D01*
X94535617Y-108078000D01*
X94470522Y-107980578D01*
X94265319Y-107843466D01*
X94277175Y-107838713D01*
X94469928Y-107650322D01*
X94538938Y-107489781D01*
X94508641Y-107387000D01*
X93727000Y-107387000D01*
X93727000Y-107407000D01*
X93473000Y-107407000D01*
X93473000Y-107387000D01*
X92691359Y-107387000D01*
X92661062Y-107489781D01*
X92730072Y-107650322D01*
X92922825Y-107838713D01*
X92934681Y-107843466D01*
X92729478Y-107980578D01*
X92561046Y-108232655D01*
X92501900Y-108530000D01*
X92561046Y-108827345D01*
X92710577Y-109051135D01*
X92617526Y-109111012D01*
X92542862Y-109220286D01*
X92516594Y-109350000D01*
X92516594Y-110250000D01*
X92539395Y-110371179D01*
X92611012Y-110482474D01*
X92720286Y-110557138D01*
X92850000Y-110583406D01*
X93148000Y-110583406D01*
X93148000Y-111700000D01*
X93182406Y-111872973D01*
X93280388Y-112019612D01*
X96348000Y-115087225D01*
X96348000Y-117612776D01*
X95455527Y-118505249D01*
X95507138Y-118429714D01*
X95533406Y-118300000D01*
X95533406Y-115900000D01*
X95510605Y-115778821D01*
X95438988Y-115667526D01*
X95329714Y-115592862D01*
X95200000Y-115566594D01*
X93105818Y-115566594D01*
X89752000Y-112212776D01*
X89752000Y-107030219D01*
X92661062Y-107030219D01*
X92691359Y-107133000D01*
X93473000Y-107133000D01*
X93473000Y-106581000D01*
X93727000Y-106581000D01*
X93727000Y-107133000D01*
X94508641Y-107133000D01*
X94538938Y-107030219D01*
X94469928Y-106869678D01*
X94277175Y-106681287D01*
X94027000Y-106581000D01*
X93727000Y-106581000D01*
X93473000Y-106581000D01*
X93173000Y-106581000D01*
X92922825Y-106681287D01*
X92730072Y-106869678D01*
X92661062Y-107030219D01*
X89752000Y-107030219D01*
X89752000Y-90247782D01*
X95871823Y-90247782D01*
X95963548Y-90375610D01*
X96339485Y-90494353D01*
X96732247Y-90460194D01*
X96936452Y-90375610D01*
X97028177Y-90247782D01*
X96450000Y-89669605D01*
X95871823Y-90247782D01*
X89752000Y-90247782D01*
X89752000Y-89379485D01*
X95445647Y-89379485D01*
X95479806Y-89772247D01*
X95564390Y-89976452D01*
X95692218Y-90068177D01*
X96270395Y-89490000D01*
X96629605Y-89490000D01*
X97207782Y-90068177D01*
X97335610Y-89976452D01*
X97454353Y-89600515D01*
X97420194Y-89207753D01*
X97335610Y-89003548D01*
X97207782Y-88911823D01*
X96629605Y-89490000D01*
X96270395Y-89490000D01*
X95692218Y-88911823D01*
X95564390Y-89003548D01*
X95445647Y-89379485D01*
X89752000Y-89379485D01*
X89752000Y-88732218D01*
X95871823Y-88732218D01*
X96450000Y-89310395D01*
X97028177Y-88732218D01*
X96936452Y-88604390D01*
X96560515Y-88485647D01*
X96167753Y-88519806D01*
X95963548Y-88604390D01*
X95871823Y-88732218D01*
X89752000Y-88732218D01*
X89752000Y-87175567D01*
X95310803Y-87175567D01*
X95483840Y-87594349D01*
X95803966Y-87915034D01*
X96222445Y-88088802D01*
X96675567Y-88089197D01*
X97094349Y-87916160D01*
X97415034Y-87596034D01*
X97588802Y-87177555D01*
X97589197Y-86724433D01*
X97416160Y-86305651D01*
X97096034Y-85984966D01*
X96677555Y-85811198D01*
X96224433Y-85810803D01*
X95805651Y-85983840D01*
X95484966Y-86303966D01*
X95311198Y-86722445D01*
X95310803Y-87175567D01*
X89752000Y-87175567D01*
X89752000Y-84625665D01*
X95360811Y-84625665D01*
X95526252Y-85026063D01*
X95832326Y-85332671D01*
X96232434Y-85498811D01*
X96665665Y-85499189D01*
X97066063Y-85333748D01*
X97372671Y-85027674D01*
X97441465Y-84862000D01*
X101390000Y-84862000D01*
X101562973Y-84827594D01*
X101709612Y-84729612D01*
X107187224Y-79252000D01*
X120400000Y-79252000D01*
X120572973Y-79217594D01*
X120719612Y-79119612D01*
X126298489Y-73540735D01*
X126462434Y-73608811D01*
X126895665Y-73609189D01*
X127296063Y-73443748D01*
X127602671Y-73137674D01*
X127768811Y-72737566D01*
X127769189Y-72304335D01*
X127603748Y-71903937D01*
X127297674Y-71597329D01*
X126897566Y-71431189D01*
X126464335Y-71430811D01*
X126063937Y-71596252D01*
X125757329Y-71902326D01*
X125591189Y-72302434D01*
X125590811Y-72735665D01*
X125659316Y-72901460D01*
X120212776Y-78348000D01*
X107000000Y-78348000D01*
X106827027Y-78382406D01*
X106680388Y-78480388D01*
X101202776Y-83958000D01*
X97441537Y-83958000D01*
X97373748Y-83793937D01*
X97067674Y-83487329D01*
X96667566Y-83321189D01*
X96234335Y-83320811D01*
X95833937Y-83486252D01*
X95527329Y-83792326D01*
X95361189Y-84192434D01*
X95360811Y-84625665D01*
X89752000Y-84625665D01*
X89752000Y-82085665D01*
X95360811Y-82085665D01*
X95526252Y-82486063D01*
X95832326Y-82792671D01*
X96232434Y-82958811D01*
X96665665Y-82959189D01*
X97066063Y-82793748D01*
X97372671Y-82487674D01*
X97441465Y-82322000D01*
X99230000Y-82322000D01*
X99402973Y-82287594D01*
X99549612Y-82189612D01*
X104987225Y-76752000D01*
X120360000Y-76752000D01*
X120532973Y-76717594D01*
X120679612Y-76619612D01*
X123758489Y-73540735D01*
X123922434Y-73608811D01*
X124355665Y-73609189D01*
X124756063Y-73443748D01*
X125062671Y-73137674D01*
X125228811Y-72737566D01*
X125229189Y-72304335D01*
X125063748Y-71903937D01*
X124757674Y-71597329D01*
X124357566Y-71431189D01*
X123924335Y-71430811D01*
X123523937Y-71596252D01*
X123217329Y-71902326D01*
X123051189Y-72302434D01*
X123050811Y-72735665D01*
X123119316Y-72901460D01*
X120172776Y-75848000D01*
X104800000Y-75848000D01*
X104627027Y-75882406D01*
X104480388Y-75980387D01*
X99042776Y-81418000D01*
X97441537Y-81418000D01*
X97373748Y-81253937D01*
X97067674Y-80947329D01*
X96667566Y-80781189D01*
X96234335Y-80780811D01*
X95833937Y-80946252D01*
X95527329Y-81252326D01*
X95361189Y-81652434D01*
X95360811Y-82085665D01*
X89752000Y-82085665D01*
X89752000Y-79545665D01*
X95360811Y-79545665D01*
X95526252Y-79946063D01*
X95832326Y-80252671D01*
X96232434Y-80418811D01*
X96665665Y-80419189D01*
X97066063Y-80253748D01*
X97372671Y-79947674D01*
X97538811Y-79547566D01*
X97539189Y-79114335D01*
X97373748Y-78713937D01*
X97067674Y-78407329D01*
X96667566Y-78241189D01*
X96234335Y-78240811D01*
X95833937Y-78406252D01*
X95527329Y-78712326D01*
X95361189Y-79112434D01*
X95360811Y-79545665D01*
X89752000Y-79545665D01*
X89752000Y-77005665D01*
X95360811Y-77005665D01*
X95526252Y-77406063D01*
X95832326Y-77712671D01*
X96232434Y-77878811D01*
X96665665Y-77879189D01*
X97066063Y-77713748D01*
X97372671Y-77407674D01*
X97538811Y-77007566D01*
X97539189Y-76574335D01*
X97373748Y-76173937D01*
X97067674Y-75867329D01*
X96667566Y-75701189D01*
X96234335Y-75700811D01*
X95833937Y-75866252D01*
X95527329Y-76172326D01*
X95361189Y-76572434D01*
X95360811Y-77005665D01*
X89752000Y-77005665D01*
X89752000Y-75187224D01*
X90473559Y-74465665D01*
X95360811Y-74465665D01*
X95526252Y-74866063D01*
X95832326Y-75172671D01*
X96232434Y-75338811D01*
X96665665Y-75339189D01*
X97066063Y-75173748D01*
X97372671Y-74867674D01*
X97538811Y-74467566D01*
X97539189Y-74034335D01*
X97373748Y-73633937D01*
X97067674Y-73327329D01*
X96667566Y-73161189D01*
X96234335Y-73160811D01*
X95833937Y-73326252D01*
X95527329Y-73632326D01*
X95361189Y-74032434D01*
X95360811Y-74465665D01*
X90473559Y-74465665D01*
X93013559Y-71925665D01*
X95360811Y-71925665D01*
X95526252Y-72326063D01*
X95832326Y-72632671D01*
X96232434Y-72798811D01*
X96665665Y-72799189D01*
X97066063Y-72633748D01*
X97372671Y-72327674D01*
X97538811Y-71927566D01*
X97539189Y-71494335D01*
X97373748Y-71093937D01*
X97067674Y-70787329D01*
X96667566Y-70621189D01*
X96234335Y-70620811D01*
X95833937Y-70786252D01*
X95527329Y-71092326D01*
X95361189Y-71492434D01*
X95360811Y-71925665D01*
X93013559Y-71925665D01*
X95887224Y-69052000D01*
X97012776Y-69052000D01*
X103180387Y-75219612D01*
X103327027Y-75317594D01*
X103500000Y-75352000D01*
X117300000Y-75352000D01*
X117472973Y-75317594D01*
X117619612Y-75219612D01*
X119019612Y-73819612D01*
X119117594Y-73672973D01*
X119152000Y-73500000D01*
X119152000Y-71600000D01*
X119117594Y-71427027D01*
X119077567Y-71367123D01*
X119019612Y-71280387D01*
X118524621Y-70785397D01*
X118712671Y-70597674D01*
X118878811Y-70197566D01*
X118878812Y-70195665D01*
X119240811Y-70195665D01*
X119406252Y-70596063D01*
X119712326Y-70902671D01*
X120112434Y-71068811D01*
X120545665Y-71069189D01*
X120946063Y-70903748D01*
X121252671Y-70597674D01*
X121418811Y-70197566D01*
X121418812Y-70195665D01*
X121780811Y-70195665D01*
X121946252Y-70596063D01*
X122252326Y-70902671D01*
X122652434Y-71068811D01*
X123085665Y-71069189D01*
X123486063Y-70903748D01*
X123792671Y-70597674D01*
X123958811Y-70197566D01*
X123958812Y-70195665D01*
X124320811Y-70195665D01*
X124486252Y-70596063D01*
X124792326Y-70902671D01*
X125192434Y-71068811D01*
X125625665Y-71069189D01*
X126026063Y-70903748D01*
X126192318Y-70737782D01*
X127371823Y-70737782D01*
X127463548Y-70865610D01*
X127839485Y-70984353D01*
X128232247Y-70950194D01*
X128436452Y-70865610D01*
X128528177Y-70737782D01*
X127950000Y-70159605D01*
X127371823Y-70737782D01*
X126192318Y-70737782D01*
X126332671Y-70597674D01*
X126498811Y-70197566D01*
X126499097Y-69869485D01*
X126945647Y-69869485D01*
X126979806Y-70262247D01*
X127064390Y-70466452D01*
X127192218Y-70558177D01*
X127770395Y-69980000D01*
X128129605Y-69980000D01*
X128707782Y-70558177D01*
X128835610Y-70466452D01*
X128921140Y-70195665D01*
X129400811Y-70195665D01*
X129566252Y-70596063D01*
X129872326Y-70902671D01*
X130272434Y-71068811D01*
X130705665Y-71069189D01*
X131106063Y-70903748D01*
X131412671Y-70597674D01*
X131578811Y-70197566D01*
X131578812Y-70195665D01*
X131940811Y-70195665D01*
X132106252Y-70596063D01*
X132412326Y-70902671D01*
X132812434Y-71068811D01*
X133245665Y-71069189D01*
X133646063Y-70903748D01*
X133952671Y-70597674D01*
X134115488Y-70205567D01*
X134430803Y-70205567D01*
X134603840Y-70624349D01*
X134923966Y-70945034D01*
X135342445Y-71118802D01*
X135795567Y-71119197D01*
X135889669Y-71080315D01*
X136758000Y-71948646D01*
X136758000Y-94670682D01*
X136665651Y-94708840D01*
X136344966Y-95028966D01*
X136171198Y-95447445D01*
X136170803Y-95900567D01*
X136343840Y-96319349D01*
X136663966Y-96640034D01*
X137082445Y-96813802D01*
X137535567Y-96814197D01*
X137954349Y-96641160D01*
X138275034Y-96321034D01*
X138448802Y-95902555D01*
X138448812Y-95890665D01*
X138760811Y-95890665D01*
X138926252Y-96291063D01*
X139232326Y-96597671D01*
X139632434Y-96763811D01*
X140065665Y-96764189D01*
X140466063Y-96598748D01*
X140772671Y-96292674D01*
X140938811Y-95892566D01*
X140939189Y-95459335D01*
X140773748Y-95058937D01*
X140467674Y-94752329D01*
X140067566Y-94586189D01*
X139634335Y-94585811D01*
X139233937Y-94751252D01*
X138927329Y-95057326D01*
X138761189Y-95457434D01*
X138760811Y-95890665D01*
X138448812Y-95890665D01*
X138449197Y-95449433D01*
X138276160Y-95030651D01*
X137956034Y-94709966D01*
X137862000Y-94670920D01*
X137862000Y-91801720D01*
X139202675Y-91801720D01*
X139487829Y-92491846D01*
X140015376Y-93020316D01*
X140705004Y-93306674D01*
X141451720Y-93307325D01*
X142141846Y-93022171D01*
X142670316Y-92494624D01*
X142956674Y-91804996D01*
X142957325Y-91058280D01*
X142672171Y-90368154D01*
X142144624Y-89839684D01*
X141454996Y-89553326D01*
X140708280Y-89552675D01*
X140018154Y-89837829D01*
X139489684Y-90365376D01*
X139203326Y-91055004D01*
X139202675Y-91801720D01*
X137862000Y-91801720D01*
X137862000Y-71720000D01*
X137850463Y-71662000D01*
X139915545Y-71662000D01*
X139988298Y-71838075D01*
X140350021Y-72200429D01*
X140782957Y-72380200D01*
X140351925Y-72558298D01*
X139989571Y-72920021D01*
X139793224Y-73392877D01*
X139792777Y-73904877D01*
X139988298Y-74378075D01*
X140350021Y-74740429D01*
X140822877Y-74936776D01*
X141334877Y-74937223D01*
X141808075Y-74741702D01*
X142170429Y-74379979D01*
X142366776Y-73907123D01*
X142367131Y-73500000D01*
X143396000Y-73500000D01*
X143396000Y-81500000D01*
X143419141Y-81616336D01*
X143485040Y-81714960D01*
X143583664Y-81780859D01*
X143700000Y-81804000D01*
X147700000Y-81804000D01*
X147816336Y-81780859D01*
X147914960Y-81714960D01*
X147980859Y-81616336D01*
X148004000Y-81500000D01*
X148004000Y-73500000D01*
X147980859Y-73383664D01*
X147914960Y-73285040D01*
X147816336Y-73219141D01*
X147700000Y-73196000D01*
X143700000Y-73196000D01*
X143583664Y-73219141D01*
X143485040Y-73285040D01*
X143419141Y-73383664D01*
X143396000Y-73500000D01*
X142367131Y-73500000D01*
X142367223Y-73395123D01*
X142171702Y-72921925D01*
X141809979Y-72559571D01*
X141377043Y-72379800D01*
X141808075Y-72201702D01*
X142170429Y-71839979D01*
X142366776Y-71367123D01*
X142367223Y-70855123D01*
X142171702Y-70381925D01*
X141809979Y-70019571D01*
X141337123Y-69823224D01*
X140825123Y-69822777D01*
X140351925Y-70018298D01*
X139989571Y-70380021D01*
X139915668Y-70558000D01*
X136928646Y-70558000D01*
X136670483Y-70299837D01*
X136708802Y-70207555D01*
X136709197Y-69754433D01*
X136536160Y-69335651D01*
X136216034Y-69014966D01*
X135797555Y-68841198D01*
X135344433Y-68840803D01*
X134925651Y-69013840D01*
X134604966Y-69333966D01*
X134431198Y-69752445D01*
X134430803Y-70205567D01*
X134115488Y-70205567D01*
X134118811Y-70197566D01*
X134119189Y-69764335D01*
X133953748Y-69363937D01*
X133647674Y-69057329D01*
X133247566Y-68891189D01*
X132814335Y-68890811D01*
X132413937Y-69056252D01*
X132107329Y-69362326D01*
X131941189Y-69762434D01*
X131940811Y-70195665D01*
X131578812Y-70195665D01*
X131579189Y-69764335D01*
X131413748Y-69363937D01*
X131107674Y-69057329D01*
X130707566Y-68891189D01*
X130274335Y-68890811D01*
X129873937Y-69056252D01*
X129567329Y-69362326D01*
X129401189Y-69762434D01*
X129400811Y-70195665D01*
X128921140Y-70195665D01*
X128954353Y-70090515D01*
X128920194Y-69697753D01*
X128835610Y-69493548D01*
X128707782Y-69401823D01*
X128129605Y-69980000D01*
X127770395Y-69980000D01*
X127192218Y-69401823D01*
X127064390Y-69493548D01*
X126945647Y-69869485D01*
X126499097Y-69869485D01*
X126499189Y-69764335D01*
X126333748Y-69363937D01*
X126192276Y-69222218D01*
X127371823Y-69222218D01*
X127950000Y-69800395D01*
X128528177Y-69222218D01*
X128436452Y-69094390D01*
X128060515Y-68975647D01*
X127667753Y-69009806D01*
X127463548Y-69094390D01*
X127371823Y-69222218D01*
X126192276Y-69222218D01*
X126027674Y-69057329D01*
X125627566Y-68891189D01*
X125194335Y-68890811D01*
X124793937Y-69056252D01*
X124487329Y-69362326D01*
X124321189Y-69762434D01*
X124320811Y-70195665D01*
X123958812Y-70195665D01*
X123959189Y-69764335D01*
X123793748Y-69363937D01*
X123487674Y-69057329D01*
X123087566Y-68891189D01*
X122654335Y-68890811D01*
X122253937Y-69056252D01*
X121947329Y-69362326D01*
X121781189Y-69762434D01*
X121780811Y-70195665D01*
X121418812Y-70195665D01*
X121419189Y-69764335D01*
X121253748Y-69363937D01*
X120947674Y-69057329D01*
X120547566Y-68891189D01*
X120114335Y-68890811D01*
X119713937Y-69056252D01*
X119407329Y-69362326D01*
X119241189Y-69762434D01*
X119240811Y-70195665D01*
X118878812Y-70195665D01*
X118879189Y-69764335D01*
X118713748Y-69363937D01*
X118407674Y-69057329D01*
X118007566Y-68891189D01*
X117574335Y-68890811D01*
X117173937Y-69056252D01*
X116867329Y-69362326D01*
X116701189Y-69762434D01*
X116700811Y-70195665D01*
X116866252Y-70596063D01*
X117172326Y-70902671D01*
X117499161Y-71038385D01*
X118248000Y-71787225D01*
X118248000Y-73312776D01*
X117112776Y-74448000D01*
X106471517Y-74448000D01*
X106568066Y-74351619D01*
X106756785Y-73897134D01*
X106757214Y-73405025D01*
X106569289Y-72950211D01*
X106355117Y-72735665D01*
X112890811Y-72735665D01*
X113056252Y-73136063D01*
X113362326Y-73442671D01*
X113762434Y-73608811D01*
X114195665Y-73609189D01*
X114596063Y-73443748D01*
X114902671Y-73137674D01*
X115068811Y-72737566D01*
X115068812Y-72735665D01*
X115430811Y-72735665D01*
X115596252Y-73136063D01*
X115902326Y-73442671D01*
X116302434Y-73608811D01*
X116735665Y-73609189D01*
X117136063Y-73443748D01*
X117442671Y-73137674D01*
X117608811Y-72737566D01*
X117609189Y-72304335D01*
X117443748Y-71903937D01*
X117137674Y-71597329D01*
X116737566Y-71431189D01*
X116304335Y-71430811D01*
X115903937Y-71596252D01*
X115597329Y-71902326D01*
X115431189Y-72302434D01*
X115430811Y-72735665D01*
X115068812Y-72735665D01*
X115069189Y-72304335D01*
X114903748Y-71903937D01*
X114597674Y-71597329D01*
X114197566Y-71431189D01*
X113764335Y-71430811D01*
X113363937Y-71596252D01*
X113057329Y-71902326D01*
X112891189Y-72302434D01*
X112890811Y-72735665D01*
X106355117Y-72735665D01*
X106221619Y-72601934D01*
X105767134Y-72413215D01*
X105275025Y-72412786D01*
X104820211Y-72600711D01*
X104471934Y-72948381D01*
X104283215Y-73402866D01*
X104282786Y-73894975D01*
X104470711Y-74349789D01*
X104568751Y-74448000D01*
X103687225Y-74448000D01*
X100594200Y-71354975D01*
X104282786Y-71354975D01*
X104470711Y-71809789D01*
X104818381Y-72158066D01*
X105272866Y-72346785D01*
X105764975Y-72347214D01*
X106219789Y-72159289D01*
X106568066Y-71811619D01*
X106756785Y-71357134D01*
X106757214Y-70865025D01*
X106569289Y-70410211D01*
X106355117Y-70195665D01*
X106540811Y-70195665D01*
X106706252Y-70596063D01*
X107012326Y-70902671D01*
X107412434Y-71068811D01*
X107845665Y-71069189D01*
X108246063Y-70903748D01*
X108552671Y-70597674D01*
X108718811Y-70197566D01*
X108718812Y-70195665D01*
X109080811Y-70195665D01*
X109246252Y-70596063D01*
X109552326Y-70902671D01*
X109952434Y-71068811D01*
X110385665Y-71069189D01*
X110786063Y-70903748D01*
X111092671Y-70597674D01*
X111258811Y-70197566D01*
X111258812Y-70195665D01*
X111620811Y-70195665D01*
X111786252Y-70596063D01*
X112092326Y-70902671D01*
X112492434Y-71068811D01*
X112925665Y-71069189D01*
X113326063Y-70903748D01*
X113632671Y-70597674D01*
X113798811Y-70197566D01*
X113798812Y-70195665D01*
X114160811Y-70195665D01*
X114326252Y-70596063D01*
X114632326Y-70902671D01*
X115032434Y-71068811D01*
X115465665Y-71069189D01*
X115866063Y-70903748D01*
X116172671Y-70597674D01*
X116338811Y-70197566D01*
X116339189Y-69764335D01*
X116173748Y-69363937D01*
X115867674Y-69057329D01*
X115467566Y-68891189D01*
X115034335Y-68890811D01*
X114633937Y-69056252D01*
X114327329Y-69362326D01*
X114161189Y-69762434D01*
X114160811Y-70195665D01*
X113798812Y-70195665D01*
X113799189Y-69764335D01*
X113633748Y-69363937D01*
X113327674Y-69057329D01*
X112927566Y-68891189D01*
X112494335Y-68890811D01*
X112093937Y-69056252D01*
X111787329Y-69362326D01*
X111621189Y-69762434D01*
X111620811Y-70195665D01*
X111258812Y-70195665D01*
X111259189Y-69764335D01*
X111093748Y-69363937D01*
X110787674Y-69057329D01*
X110387566Y-68891189D01*
X109954335Y-68890811D01*
X109553937Y-69056252D01*
X109247329Y-69362326D01*
X109081189Y-69762434D01*
X109080811Y-70195665D01*
X108718812Y-70195665D01*
X108719189Y-69764335D01*
X108553748Y-69363937D01*
X108247674Y-69057329D01*
X107847566Y-68891189D01*
X107414335Y-68890811D01*
X107013937Y-69056252D01*
X106707329Y-69362326D01*
X106541189Y-69762434D01*
X106540811Y-70195665D01*
X106355117Y-70195665D01*
X106221619Y-70061934D01*
X105767134Y-69873215D01*
X105275025Y-69872786D01*
X104820211Y-70060711D01*
X104471934Y-70408381D01*
X104283215Y-70862866D01*
X104282786Y-71354975D01*
X100594200Y-71354975D01*
X97519612Y-68280388D01*
X97372973Y-68182406D01*
X97200000Y-68148000D01*
X95700000Y-68148000D01*
X95527027Y-68182406D01*
X95380388Y-68280388D01*
X88980388Y-74680388D01*
X88882406Y-74827027D01*
X88848000Y-75000000D01*
X86527000Y-75000000D01*
X86527000Y-65204000D01*
X86800000Y-65204000D01*
X86916336Y-65180859D01*
X87014960Y-65114960D01*
X87080859Y-65016336D01*
X87104000Y-64900000D01*
X87104000Y-64724964D01*
X104239921Y-64655681D01*
X103929684Y-64965376D01*
X103643326Y-65655004D01*
X103642675Y-66401720D01*
X103927829Y-67091846D01*
X104455376Y-67620316D01*
X105145004Y-67906674D01*
X105891720Y-67907325D01*
X106581846Y-67622171D01*
X107110316Y-67094624D01*
X107396674Y-66404996D01*
X107397325Y-65658280D01*
X107112171Y-64968154D01*
X106789952Y-64645371D01*
X139944532Y-64511323D01*
X139489684Y-64965376D01*
X139203326Y-65655004D01*
X139202675Y-66401720D01*
X139487829Y-67091846D01*
X140015376Y-67620316D01*
X140705004Y-67906674D01*
X141451720Y-67907325D01*
X142141846Y-67622171D01*
X142670316Y-67094624D01*
X142956674Y-66404996D01*
X142957325Y-65658280D01*
X142672171Y-64968154D01*
X142207006Y-64502175D01*
X160496000Y-64428231D01*
X160496000Y-64900000D01*
X160496000Y-64900000D01*
G37*
X160496000Y-64900000D02*
X160519141Y-65016336D01*
X160585040Y-65114960D01*
X160673000Y-65173733D01*
X160673000Y-137896000D01*
X160500000Y-137896000D01*
X160383664Y-137919141D01*
X160285040Y-137985040D01*
X160219141Y-138083664D01*
X160196000Y-138200000D01*
X160196000Y-138571376D01*
X86904000Y-138374353D01*
X86904000Y-136592024D01*
X100817614Y-136592024D01*
X101156700Y-137412674D01*
X101784023Y-138041094D01*
X102604080Y-138381611D01*
X103492024Y-138382386D01*
X104312674Y-138043300D01*
X104941094Y-137415977D01*
X105281611Y-136595920D01*
X105281614Y-136592024D01*
X136317614Y-136592024D01*
X136656700Y-137412674D01*
X137284023Y-138041094D01*
X138104080Y-138381611D01*
X138992024Y-138382386D01*
X139812674Y-138043300D01*
X140441094Y-137415977D01*
X140781611Y-136595920D01*
X140782386Y-135707976D01*
X140443300Y-134887326D01*
X139815977Y-134258906D01*
X138995920Y-133918389D01*
X138107976Y-133917614D01*
X137287326Y-134256700D01*
X136658906Y-134884023D01*
X136318389Y-135704080D01*
X136317614Y-136592024D01*
X105281614Y-136592024D01*
X105282386Y-135707976D01*
X104943300Y-134887326D01*
X104315977Y-134258906D01*
X103495920Y-133918389D01*
X102607976Y-133917614D01*
X101787326Y-134256700D01*
X101158906Y-134884023D01*
X100818389Y-135704080D01*
X100817614Y-136592024D01*
X86904000Y-136592024D01*
X86904000Y-124412308D01*
X92422727Y-124412308D01*
X92662305Y-124992132D01*
X93105535Y-125436136D01*
X93684939Y-125676725D01*
X94312308Y-125677273D01*
X94892132Y-125437695D01*
X95336136Y-124994465D01*
X95576725Y-124415061D01*
X95577273Y-123787692D01*
X95337695Y-123207868D01*
X94894465Y-122763864D01*
X94315061Y-122523275D01*
X93687692Y-122522727D01*
X93107868Y-122762305D01*
X92663864Y-123205535D01*
X92423275Y-123784939D01*
X92422727Y-124412308D01*
X86904000Y-124412308D01*
X86904000Y-104800000D01*
X86880859Y-104683664D01*
X86814960Y-104585040D01*
X86716336Y-104519141D01*
X86600000Y-104496000D01*
X86527000Y-104496000D01*
X86527000Y-75000000D01*
X88848000Y-75000000D01*
X88848000Y-112400000D01*
X88882406Y-112572973D01*
X88980388Y-112719612D01*
X92466594Y-116205818D01*
X92466594Y-118300000D01*
X92489395Y-118421179D01*
X92561012Y-118532474D01*
X92670286Y-118607138D01*
X92800000Y-118633406D01*
X95200000Y-118633406D01*
X95321179Y-118610605D01*
X95402500Y-118558276D01*
X94716621Y-119244155D01*
X94305072Y-119073265D01*
X93697593Y-119072735D01*
X93136154Y-119304717D01*
X92706227Y-119733894D01*
X92473265Y-120294928D01*
X92472735Y-120902407D01*
X92704717Y-121463846D01*
X93133894Y-121893773D01*
X93694928Y-122126735D01*
X94302407Y-122127265D01*
X94863846Y-121895283D01*
X95293773Y-121466106D01*
X95526735Y-120905072D01*
X95527265Y-120297593D01*
X95356036Y-119883188D01*
X97119612Y-118119612D01*
X97217594Y-117972973D01*
X97252000Y-117800000D01*
X97252000Y-114900000D01*
X97217594Y-114727027D01*
X97119612Y-114580387D01*
X94052000Y-111512776D01*
X94052000Y-110583406D01*
X94350000Y-110583406D01*
X94471179Y-110560605D01*
X94582474Y-110488988D01*
X94657138Y-110379714D01*
X94683406Y-110250000D01*
X94683406Y-109350000D01*
X94660605Y-109228821D01*
X94588988Y-109117526D01*
X94490175Y-109050010D01*
X94535617Y-108982000D01*
X94770000Y-108982000D01*
X94942973Y-108947594D01*
X95089612Y-108849612D01*
X100319612Y-103619612D01*
X100417594Y-103472973D01*
X100452000Y-103300000D01*
X100452000Y-101600000D01*
X102896000Y-101600000D01*
X102896000Y-133000000D01*
X102919141Y-133116336D01*
X102985040Y-133214960D01*
X103083664Y-133280859D01*
X103200000Y-133304000D01*
X121200000Y-133304000D01*
X121316336Y-133280859D01*
X121414960Y-133214960D01*
X121480859Y-133116336D01*
X121504000Y-133000000D01*
X121504000Y-132486400D01*
X141991200Y-132486400D01*
X142025606Y-132659373D01*
X142123588Y-132806012D01*
X142270227Y-132903994D01*
X142443200Y-132938400D01*
X142494000Y-132938400D01*
X142666973Y-132903994D01*
X142813612Y-132806012D01*
X142911594Y-132659373D01*
X142946000Y-132486400D01*
X142911594Y-132313427D01*
X142813612Y-132166788D01*
X142666973Y-132068806D01*
X142494000Y-132034400D01*
X142443200Y-132034400D01*
X142270227Y-132068806D01*
X142123588Y-132166788D01*
X142025606Y-132313427D01*
X141991200Y-132486400D01*
X121504000Y-132486400D01*
X121504000Y-119400000D01*
X143396000Y-119400000D01*
X143396000Y-127400000D01*
X143419141Y-127516336D01*
X143485040Y-127614960D01*
X143583664Y-127680859D01*
X143700000Y-127704000D01*
X147700000Y-127704000D01*
X147816336Y-127680859D01*
X147914960Y-127614960D01*
X147980859Y-127516336D01*
X148004000Y-127400000D01*
X148004000Y-119400000D01*
X147980859Y-119283664D01*
X147914960Y-119185040D01*
X147816336Y-119119141D01*
X147700000Y-119096000D01*
X143700000Y-119096000D01*
X143583664Y-119119141D01*
X143485040Y-119185040D01*
X143419141Y-119283664D01*
X143396000Y-119400000D01*
X121504000Y-119400000D01*
X121504000Y-101600000D01*
X121480859Y-101483664D01*
X121414960Y-101385040D01*
X121316336Y-101319141D01*
X121200000Y-101296000D01*
X103200000Y-101296000D01*
X103083664Y-101319141D01*
X102985040Y-101385040D01*
X102919141Y-101483664D01*
X102896000Y-101600000D01*
X100452000Y-101600000D01*
X100452000Y-95890665D01*
X100660811Y-95890665D01*
X100826252Y-96291063D01*
X101132326Y-96597671D01*
X101532434Y-96763811D01*
X101965665Y-96764189D01*
X102366063Y-96598748D01*
X102672671Y-96292674D01*
X102838811Y-95892566D01*
X102838812Y-95890665D01*
X103200811Y-95890665D01*
X103366252Y-96291063D01*
X103672326Y-96597671D01*
X104072434Y-96763811D01*
X104505665Y-96764189D01*
X104906063Y-96598748D01*
X105212671Y-96292674D01*
X105378811Y-95892566D01*
X105378812Y-95890665D01*
X105740811Y-95890665D01*
X105906252Y-96291063D01*
X106212326Y-96597671D01*
X106612434Y-96763811D01*
X107045665Y-96764189D01*
X107446063Y-96598748D01*
X107752671Y-96292674D01*
X107918811Y-95892566D01*
X107918812Y-95890665D01*
X108280811Y-95890665D01*
X108446252Y-96291063D01*
X108752326Y-96597671D01*
X109152434Y-96763811D01*
X109585665Y-96764189D01*
X109986063Y-96598748D01*
X110292671Y-96292674D01*
X110458811Y-95892566D01*
X110458812Y-95890665D01*
X110820811Y-95890665D01*
X110986252Y-96291063D01*
X111292326Y-96597671D01*
X111692434Y-96763811D01*
X112125665Y-96764189D01*
X112526063Y-96598748D01*
X112832671Y-96292674D01*
X112998811Y-95892566D01*
X112999189Y-95459335D01*
X112833748Y-95058937D01*
X112527674Y-94752329D01*
X112127566Y-94586189D01*
X111694335Y-94585811D01*
X111293937Y-94751252D01*
X110987329Y-95057326D01*
X110821189Y-95457434D01*
X110820811Y-95890665D01*
X110458812Y-95890665D01*
X110459189Y-95459335D01*
X110293748Y-95058937D01*
X109987674Y-94752329D01*
X109587566Y-94586189D01*
X109154335Y-94585811D01*
X108753937Y-94751252D01*
X108447329Y-95057326D01*
X108281189Y-95457434D01*
X108280811Y-95890665D01*
X107918812Y-95890665D01*
X107919189Y-95459335D01*
X107753748Y-95058937D01*
X107447674Y-94752329D01*
X107047566Y-94586189D01*
X106614335Y-94585811D01*
X106213937Y-94751252D01*
X105907329Y-95057326D01*
X105741189Y-95457434D01*
X105740811Y-95890665D01*
X105378812Y-95890665D01*
X105379189Y-95459335D01*
X105213748Y-95058937D01*
X104907674Y-94752329D01*
X104507566Y-94586189D01*
X104074335Y-94585811D01*
X103673937Y-94751252D01*
X103367329Y-95057326D01*
X103201189Y-95457434D01*
X103200811Y-95890665D01*
X102838812Y-95890665D01*
X102839189Y-95459335D01*
X102673748Y-95058937D01*
X102367674Y-94752329D01*
X101967566Y-94586189D01*
X101534335Y-94585811D01*
X101133937Y-94751252D01*
X100827329Y-95057326D01*
X100661189Y-95457434D01*
X100660811Y-95890665D01*
X100452000Y-95890665D01*
X100452000Y-91801720D01*
X103642675Y-91801720D01*
X103927829Y-92491846D01*
X104455376Y-93020316D01*
X105145004Y-93306674D01*
X105891720Y-93307325D01*
X106581846Y-93022171D01*
X107110316Y-92494624D01*
X107396674Y-91804996D01*
X107397325Y-91058280D01*
X107112171Y-90368154D01*
X106584624Y-89839684D01*
X105894996Y-89553326D01*
X105148280Y-89552675D01*
X104458154Y-89837829D01*
X103929684Y-90365376D01*
X103643326Y-91055004D01*
X103642675Y-91801720D01*
X100452000Y-91801720D01*
X100452000Y-89287224D01*
X104303559Y-85435665D01*
X106540811Y-85435665D01*
X106706252Y-85836063D01*
X107012326Y-86142671D01*
X107178000Y-86211465D01*
X107178000Y-88855000D01*
X107212406Y-89027973D01*
X107310388Y-89174612D01*
X113429265Y-95293490D01*
X113361189Y-95457434D01*
X113360811Y-95890665D01*
X113526252Y-96291063D01*
X113832326Y-96597671D01*
X114232434Y-96763811D01*
X114665665Y-96764189D01*
X115066063Y-96598748D01*
X115372671Y-96292674D01*
X115538811Y-95892566D01*
X115538812Y-95890665D01*
X115900811Y-95890665D01*
X116066252Y-96291063D01*
X116372326Y-96597671D01*
X116772434Y-96763811D01*
X117205665Y-96764189D01*
X117606063Y-96598748D01*
X117912671Y-96292674D01*
X118078811Y-95892566D01*
X118079189Y-95459335D01*
X117913748Y-95058937D01*
X117607674Y-94752329D01*
X117207566Y-94586189D01*
X116774335Y-94585811D01*
X116373937Y-94751252D01*
X116067329Y-95057326D01*
X115901189Y-95457434D01*
X115900811Y-95890665D01*
X115538812Y-95890665D01*
X115539189Y-95459335D01*
X115373748Y-95058937D01*
X115067674Y-94752329D01*
X114667566Y-94586189D01*
X114234335Y-94585811D01*
X114068541Y-94654316D01*
X108082000Y-88667776D01*
X108082000Y-86211537D01*
X108246063Y-86143748D01*
X108552671Y-85837674D01*
X108718811Y-85437566D01*
X108718812Y-85435665D01*
X109080811Y-85435665D01*
X109246252Y-85836063D01*
X109552326Y-86142671D01*
X109718000Y-86211465D01*
X109718000Y-86315000D01*
X109752406Y-86487973D01*
X109850388Y-86634612D01*
X118509265Y-95293489D01*
X118441189Y-95457434D01*
X118440811Y-95890665D01*
X118606252Y-96291063D01*
X118912326Y-96597671D01*
X119312434Y-96763811D01*
X119745665Y-96764189D01*
X120146063Y-96598748D01*
X120452671Y-96292674D01*
X120618811Y-95892566D01*
X120618812Y-95890665D01*
X120980811Y-95890665D01*
X121146252Y-96291063D01*
X121452326Y-96597671D01*
X121852434Y-96763811D01*
X122285665Y-96764189D01*
X122686063Y-96598748D01*
X122992671Y-96292674D01*
X123158811Y-95892566D01*
X123159189Y-95459335D01*
X122993748Y-95058937D01*
X122687674Y-94752329D01*
X122287566Y-94586189D01*
X121854335Y-94585811D01*
X121453937Y-94751252D01*
X121147329Y-95057326D01*
X120981189Y-95457434D01*
X120980811Y-95890665D01*
X120618812Y-95890665D01*
X120619189Y-95459335D01*
X120453748Y-95058937D01*
X120147674Y-94752329D01*
X119747566Y-94586189D01*
X119314335Y-94585811D01*
X119148540Y-94654316D01*
X110681271Y-86187047D01*
X110786063Y-86143748D01*
X111092671Y-85837674D01*
X111258811Y-85437566D01*
X111258812Y-85435665D01*
X111620811Y-85435665D01*
X111786252Y-85836063D01*
X112092326Y-86142671D01*
X112492434Y-86308811D01*
X112869916Y-86309140D01*
X118980387Y-92419612D01*
X119088493Y-92491846D01*
X119127027Y-92517594D01*
X119300000Y-92552000D01*
X120847776Y-92552000D01*
X123589265Y-95293490D01*
X123521189Y-95457434D01*
X123520811Y-95890665D01*
X123686252Y-96291063D01*
X123992326Y-96597671D01*
X124392434Y-96763811D01*
X124825665Y-96764189D01*
X125226063Y-96598748D01*
X125532671Y-96292674D01*
X125698811Y-95892566D01*
X125699189Y-95459335D01*
X125533748Y-95058937D01*
X125227674Y-94752329D01*
X124827566Y-94586189D01*
X124394335Y-94585811D01*
X124228541Y-94654316D01*
X121354612Y-91780388D01*
X121207973Y-91682406D01*
X121035000Y-91648000D01*
X119487225Y-91648000D01*
X113645647Y-85806423D01*
X113798811Y-85437566D01*
X113798812Y-85435665D01*
X114160811Y-85435665D01*
X114326252Y-85836063D01*
X114632326Y-86142671D01*
X115032434Y-86308811D01*
X115465665Y-86309189D01*
X115610231Y-86249455D01*
X119880388Y-90519612D01*
X120027027Y-90617594D01*
X120200000Y-90652000D01*
X121487776Y-90652000D01*
X126129265Y-95293489D01*
X126061189Y-95457434D01*
X126060811Y-95890665D01*
X126226252Y-96291063D01*
X126532326Y-96597671D01*
X126932434Y-96763811D01*
X127365665Y-96764189D01*
X127766063Y-96598748D01*
X128072671Y-96292674D01*
X128238811Y-95892566D01*
X128239189Y-95459335D01*
X128073748Y-95058937D01*
X127767674Y-94752329D01*
X127367566Y-94586189D01*
X126934335Y-94585811D01*
X126768540Y-94654316D01*
X121994612Y-89880388D01*
X121847973Y-89782406D01*
X121675000Y-89748000D01*
X120387224Y-89748000D01*
X116261933Y-85622709D01*
X116338811Y-85437566D01*
X116338812Y-85435665D01*
X116700811Y-85435665D01*
X116866252Y-85836063D01*
X117172326Y-86142671D01*
X117572434Y-86308811D01*
X118005665Y-86309189D01*
X118051165Y-86290389D01*
X120380387Y-88619612D01*
X120474365Y-88682406D01*
X120527027Y-88717594D01*
X120700000Y-88752000D01*
X122127776Y-88752000D01*
X128669265Y-95293489D01*
X128601189Y-95457434D01*
X128600811Y-95890665D01*
X128766252Y-96291063D01*
X129072326Y-96597671D01*
X129472434Y-96763811D01*
X129905665Y-96764189D01*
X130306063Y-96598748D01*
X130472318Y-96432782D01*
X131651823Y-96432782D01*
X131743548Y-96560610D01*
X132119485Y-96679353D01*
X132512247Y-96645194D01*
X132716452Y-96560610D01*
X132808177Y-96432782D01*
X132230000Y-95854605D01*
X131651823Y-96432782D01*
X130472318Y-96432782D01*
X130612671Y-96292674D01*
X130778811Y-95892566D01*
X130779097Y-95564485D01*
X131225647Y-95564485D01*
X131259806Y-95957247D01*
X131344390Y-96161452D01*
X131472218Y-96253177D01*
X132050395Y-95675000D01*
X132409605Y-95675000D01*
X132987782Y-96253177D01*
X133115610Y-96161452D01*
X133198012Y-95900567D01*
X133630803Y-95900567D01*
X133803840Y-96319349D01*
X134123966Y-96640034D01*
X134542445Y-96813802D01*
X134995567Y-96814197D01*
X135414349Y-96641160D01*
X135735034Y-96321034D01*
X135908802Y-95902555D01*
X135909197Y-95449433D01*
X135736160Y-95030651D01*
X135416034Y-94709966D01*
X134997555Y-94536198D01*
X134544433Y-94535803D01*
X134125651Y-94708840D01*
X133804966Y-95028966D01*
X133631198Y-95447445D01*
X133630803Y-95900567D01*
X133198012Y-95900567D01*
X133234353Y-95785515D01*
X133200194Y-95392753D01*
X133115610Y-95188548D01*
X132987782Y-95096823D01*
X132409605Y-95675000D01*
X132050395Y-95675000D01*
X131472218Y-95096823D01*
X131344390Y-95188548D01*
X131225647Y-95564485D01*
X130779097Y-95564485D01*
X130779189Y-95459335D01*
X130613748Y-95058937D01*
X130472276Y-94917218D01*
X131651823Y-94917218D01*
X132230000Y-95495395D01*
X132808177Y-94917218D01*
X132716452Y-94789390D01*
X132340515Y-94670647D01*
X131947753Y-94704806D01*
X131743548Y-94789390D01*
X131651823Y-94917218D01*
X130472276Y-94917218D01*
X130307674Y-94752329D01*
X129907566Y-94586189D01*
X129474335Y-94585811D01*
X129308540Y-94654316D01*
X122634612Y-87980388D01*
X122487973Y-87882406D01*
X122315000Y-87848000D01*
X120887225Y-87848000D01*
X118760856Y-85721632D01*
X118878811Y-85437566D01*
X118878812Y-85435665D01*
X119240811Y-85435665D01*
X119406252Y-85836063D01*
X119712326Y-86142671D01*
X120112434Y-86308811D01*
X120545665Y-86309189D01*
X120946063Y-86143748D01*
X121252671Y-85837674D01*
X121418811Y-85437566D01*
X121419189Y-85004335D01*
X121253748Y-84603937D01*
X120947674Y-84297329D01*
X120547566Y-84131189D01*
X120114335Y-84130811D01*
X119713937Y-84296252D01*
X119407329Y-84602326D01*
X119241189Y-85002434D01*
X119240811Y-85435665D01*
X118878812Y-85435665D01*
X118879189Y-85004335D01*
X118713748Y-84603937D01*
X118407674Y-84297329D01*
X118007566Y-84131189D01*
X117574335Y-84130811D01*
X117173937Y-84296252D01*
X116867329Y-84602326D01*
X116701189Y-85002434D01*
X116700811Y-85435665D01*
X116338812Y-85435665D01*
X116339189Y-85004335D01*
X116173748Y-84603937D01*
X115867674Y-84297329D01*
X115467566Y-84131189D01*
X115034335Y-84130811D01*
X114633937Y-84296252D01*
X114327329Y-84602326D01*
X114161189Y-85002434D01*
X114160811Y-85435665D01*
X113798812Y-85435665D01*
X113799189Y-85004335D01*
X113633748Y-84603937D01*
X113327674Y-84297329D01*
X112927566Y-84131189D01*
X112494335Y-84130811D01*
X112093937Y-84296252D01*
X111787329Y-84602326D01*
X111621189Y-85002434D01*
X111620811Y-85435665D01*
X111258812Y-85435665D01*
X111259189Y-85004335D01*
X111093748Y-84603937D01*
X110787674Y-84297329D01*
X110387566Y-84131189D01*
X109954335Y-84130811D01*
X109553937Y-84296252D01*
X109247329Y-84602326D01*
X109081189Y-85002434D01*
X109080811Y-85435665D01*
X108718812Y-85435665D01*
X108719189Y-85004335D01*
X108553748Y-84603937D01*
X108247674Y-84297329D01*
X107847566Y-84131189D01*
X107414335Y-84130811D01*
X107013937Y-84296252D01*
X106707329Y-84602326D01*
X106541189Y-85002434D01*
X106540811Y-85435665D01*
X104303559Y-85435665D01*
X107387225Y-82352000D01*
X119362776Y-82352000D01*
X121849265Y-84838489D01*
X121781189Y-85002434D01*
X121780811Y-85435665D01*
X121946252Y-85836063D01*
X122252326Y-86142671D01*
X122652434Y-86308811D01*
X123085665Y-86309189D01*
X123486063Y-86143748D01*
X123792671Y-85837674D01*
X123958811Y-85437566D01*
X123958812Y-85435665D01*
X124320811Y-85435665D01*
X124486252Y-85836063D01*
X124792326Y-86142671D01*
X125192434Y-86308811D01*
X125625665Y-86309189D01*
X126026063Y-86143748D01*
X126332671Y-85837674D01*
X126495488Y-85445567D01*
X126810803Y-85445567D01*
X126983840Y-85864349D01*
X127303966Y-86185034D01*
X127722445Y-86358802D01*
X128175567Y-86359197D01*
X128594349Y-86186160D01*
X128915034Y-85866034D01*
X129088802Y-85447555D01*
X129088812Y-85435665D01*
X129400811Y-85435665D01*
X129566252Y-85836063D01*
X129872326Y-86142671D01*
X130272434Y-86308811D01*
X130705665Y-86309189D01*
X131106063Y-86143748D01*
X131412671Y-85837674D01*
X131578811Y-85437566D01*
X131578812Y-85435665D01*
X131940811Y-85435665D01*
X132106252Y-85836063D01*
X132412326Y-86142671D01*
X132812434Y-86308811D01*
X133245665Y-86309189D01*
X133646063Y-86143748D01*
X133952671Y-85837674D01*
X134118811Y-85437566D01*
X134118812Y-85435665D01*
X134480811Y-85435665D01*
X134646252Y-85836063D01*
X134952326Y-86142671D01*
X135352434Y-86308811D01*
X135785665Y-86309189D01*
X136186063Y-86143748D01*
X136492671Y-85837674D01*
X136658811Y-85437566D01*
X136659189Y-85004335D01*
X136493748Y-84603937D01*
X136187674Y-84297329D01*
X135787566Y-84131189D01*
X135354335Y-84130811D01*
X134953937Y-84296252D01*
X134647329Y-84602326D01*
X134481189Y-85002434D01*
X134480811Y-85435665D01*
X134118812Y-85435665D01*
X134119189Y-85004335D01*
X133953748Y-84603937D01*
X133647674Y-84297329D01*
X133247566Y-84131189D01*
X132814335Y-84130811D01*
X132413937Y-84296252D01*
X132107329Y-84602326D01*
X131941189Y-85002434D01*
X131940811Y-85435665D01*
X131578812Y-85435665D01*
X131579189Y-85004335D01*
X131413748Y-84603937D01*
X131107674Y-84297329D01*
X130707566Y-84131189D01*
X130274335Y-84130811D01*
X129873937Y-84296252D01*
X129567329Y-84602326D01*
X129401189Y-85002434D01*
X129400811Y-85435665D01*
X129088812Y-85435665D01*
X129089197Y-84994433D01*
X128916160Y-84575651D01*
X128596034Y-84254966D01*
X128177555Y-84081198D01*
X127724433Y-84080803D01*
X127305651Y-84253840D01*
X126984966Y-84573966D01*
X126811198Y-84992445D01*
X126810803Y-85445567D01*
X126495488Y-85445567D01*
X126498811Y-85437566D01*
X126499189Y-85004335D01*
X126333748Y-84603937D01*
X126027674Y-84297329D01*
X125627566Y-84131189D01*
X125194335Y-84130811D01*
X124793937Y-84296252D01*
X124487329Y-84602326D01*
X124321189Y-85002434D01*
X124320811Y-85435665D01*
X123958812Y-85435665D01*
X123959189Y-85004335D01*
X123793748Y-84603937D01*
X123487674Y-84297329D01*
X123087566Y-84131189D01*
X122654335Y-84130811D01*
X122488540Y-84199316D01*
X119869612Y-81580388D01*
X119722973Y-81482406D01*
X119550000Y-81448000D01*
X107200000Y-81448000D01*
X107027027Y-81482406D01*
X106880388Y-81580387D01*
X99680388Y-88780388D01*
X99582406Y-88927027D01*
X99548000Y-89100000D01*
X99548000Y-103112776D01*
X94582776Y-108078000D01*
X94535617Y-108078000D01*
X94470522Y-107980578D01*
X94265319Y-107843466D01*
X94277175Y-107838713D01*
X94469928Y-107650322D01*
X94538938Y-107489781D01*
X94508641Y-107387000D01*
X93727000Y-107387000D01*
X93727000Y-107407000D01*
X93473000Y-107407000D01*
X93473000Y-107387000D01*
X92691359Y-107387000D01*
X92661062Y-107489781D01*
X92730072Y-107650322D01*
X92922825Y-107838713D01*
X92934681Y-107843466D01*
X92729478Y-107980578D01*
X92561046Y-108232655D01*
X92501900Y-108530000D01*
X92561046Y-108827345D01*
X92710577Y-109051135D01*
X92617526Y-109111012D01*
X92542862Y-109220286D01*
X92516594Y-109350000D01*
X92516594Y-110250000D01*
X92539395Y-110371179D01*
X92611012Y-110482474D01*
X92720286Y-110557138D01*
X92850000Y-110583406D01*
X93148000Y-110583406D01*
X93148000Y-111700000D01*
X93182406Y-111872973D01*
X93280388Y-112019612D01*
X96348000Y-115087225D01*
X96348000Y-117612776D01*
X95455527Y-118505249D01*
X95507138Y-118429714D01*
X95533406Y-118300000D01*
X95533406Y-115900000D01*
X95510605Y-115778821D01*
X95438988Y-115667526D01*
X95329714Y-115592862D01*
X95200000Y-115566594D01*
X93105818Y-115566594D01*
X89752000Y-112212776D01*
X89752000Y-107030219D01*
X92661062Y-107030219D01*
X92691359Y-107133000D01*
X93473000Y-107133000D01*
X93473000Y-106581000D01*
X93727000Y-106581000D01*
X93727000Y-107133000D01*
X94508641Y-107133000D01*
X94538938Y-107030219D01*
X94469928Y-106869678D01*
X94277175Y-106681287D01*
X94027000Y-106581000D01*
X93727000Y-106581000D01*
X93473000Y-106581000D01*
X93173000Y-106581000D01*
X92922825Y-106681287D01*
X92730072Y-106869678D01*
X92661062Y-107030219D01*
X89752000Y-107030219D01*
X89752000Y-90247782D01*
X95871823Y-90247782D01*
X95963548Y-90375610D01*
X96339485Y-90494353D01*
X96732247Y-90460194D01*
X96936452Y-90375610D01*
X97028177Y-90247782D01*
X96450000Y-89669605D01*
X95871823Y-90247782D01*
X89752000Y-90247782D01*
X89752000Y-89379485D01*
X95445647Y-89379485D01*
X95479806Y-89772247D01*
X95564390Y-89976452D01*
X95692218Y-90068177D01*
X96270395Y-89490000D01*
X96629605Y-89490000D01*
X97207782Y-90068177D01*
X97335610Y-89976452D01*
X97454353Y-89600515D01*
X97420194Y-89207753D01*
X97335610Y-89003548D01*
X97207782Y-88911823D01*
X96629605Y-89490000D01*
X96270395Y-89490000D01*
X95692218Y-88911823D01*
X95564390Y-89003548D01*
X95445647Y-89379485D01*
X89752000Y-89379485D01*
X89752000Y-88732218D01*
X95871823Y-88732218D01*
X96450000Y-89310395D01*
X97028177Y-88732218D01*
X96936452Y-88604390D01*
X96560515Y-88485647D01*
X96167753Y-88519806D01*
X95963548Y-88604390D01*
X95871823Y-88732218D01*
X89752000Y-88732218D01*
X89752000Y-87175567D01*
X95310803Y-87175567D01*
X95483840Y-87594349D01*
X95803966Y-87915034D01*
X96222445Y-88088802D01*
X96675567Y-88089197D01*
X97094349Y-87916160D01*
X97415034Y-87596034D01*
X97588802Y-87177555D01*
X97589197Y-86724433D01*
X97416160Y-86305651D01*
X97096034Y-85984966D01*
X96677555Y-85811198D01*
X96224433Y-85810803D01*
X95805651Y-85983840D01*
X95484966Y-86303966D01*
X95311198Y-86722445D01*
X95310803Y-87175567D01*
X89752000Y-87175567D01*
X89752000Y-84625665D01*
X95360811Y-84625665D01*
X95526252Y-85026063D01*
X95832326Y-85332671D01*
X96232434Y-85498811D01*
X96665665Y-85499189D01*
X97066063Y-85333748D01*
X97372671Y-85027674D01*
X97441465Y-84862000D01*
X101390000Y-84862000D01*
X101562973Y-84827594D01*
X101709612Y-84729612D01*
X107187224Y-79252000D01*
X120400000Y-79252000D01*
X120572973Y-79217594D01*
X120719612Y-79119612D01*
X126298489Y-73540735D01*
X126462434Y-73608811D01*
X126895665Y-73609189D01*
X127296063Y-73443748D01*
X127602671Y-73137674D01*
X127768811Y-72737566D01*
X127769189Y-72304335D01*
X127603748Y-71903937D01*
X127297674Y-71597329D01*
X126897566Y-71431189D01*
X126464335Y-71430811D01*
X126063937Y-71596252D01*
X125757329Y-71902326D01*
X125591189Y-72302434D01*
X125590811Y-72735665D01*
X125659316Y-72901460D01*
X120212776Y-78348000D01*
X107000000Y-78348000D01*
X106827027Y-78382406D01*
X106680388Y-78480388D01*
X101202776Y-83958000D01*
X97441537Y-83958000D01*
X97373748Y-83793937D01*
X97067674Y-83487329D01*
X96667566Y-83321189D01*
X96234335Y-83320811D01*
X95833937Y-83486252D01*
X95527329Y-83792326D01*
X95361189Y-84192434D01*
X95360811Y-84625665D01*
X89752000Y-84625665D01*
X89752000Y-82085665D01*
X95360811Y-82085665D01*
X95526252Y-82486063D01*
X95832326Y-82792671D01*
X96232434Y-82958811D01*
X96665665Y-82959189D01*
X97066063Y-82793748D01*
X97372671Y-82487674D01*
X97441465Y-82322000D01*
X99230000Y-82322000D01*
X99402973Y-82287594D01*
X99549612Y-82189612D01*
X104987225Y-76752000D01*
X120360000Y-76752000D01*
X120532973Y-76717594D01*
X120679612Y-76619612D01*
X123758489Y-73540735D01*
X123922434Y-73608811D01*
X124355665Y-73609189D01*
X124756063Y-73443748D01*
X125062671Y-73137674D01*
X125228811Y-72737566D01*
X125229189Y-72304335D01*
X125063748Y-71903937D01*
X124757674Y-71597329D01*
X124357566Y-71431189D01*
X123924335Y-71430811D01*
X123523937Y-71596252D01*
X123217329Y-71902326D01*
X123051189Y-72302434D01*
X123050811Y-72735665D01*
X123119316Y-72901460D01*
X120172776Y-75848000D01*
X104800000Y-75848000D01*
X104627027Y-75882406D01*
X104480388Y-75980387D01*
X99042776Y-81418000D01*
X97441537Y-81418000D01*
X97373748Y-81253937D01*
X97067674Y-80947329D01*
X96667566Y-80781189D01*
X96234335Y-80780811D01*
X95833937Y-80946252D01*
X95527329Y-81252326D01*
X95361189Y-81652434D01*
X95360811Y-82085665D01*
X89752000Y-82085665D01*
X89752000Y-79545665D01*
X95360811Y-79545665D01*
X95526252Y-79946063D01*
X95832326Y-80252671D01*
X96232434Y-80418811D01*
X96665665Y-80419189D01*
X97066063Y-80253748D01*
X97372671Y-79947674D01*
X97538811Y-79547566D01*
X97539189Y-79114335D01*
X97373748Y-78713937D01*
X97067674Y-78407329D01*
X96667566Y-78241189D01*
X96234335Y-78240811D01*
X95833937Y-78406252D01*
X95527329Y-78712326D01*
X95361189Y-79112434D01*
X95360811Y-79545665D01*
X89752000Y-79545665D01*
X89752000Y-77005665D01*
X95360811Y-77005665D01*
X95526252Y-77406063D01*
X95832326Y-77712671D01*
X96232434Y-77878811D01*
X96665665Y-77879189D01*
X97066063Y-77713748D01*
X97372671Y-77407674D01*
X97538811Y-77007566D01*
X97539189Y-76574335D01*
X97373748Y-76173937D01*
X97067674Y-75867329D01*
X96667566Y-75701189D01*
X96234335Y-75700811D01*
X95833937Y-75866252D01*
X95527329Y-76172326D01*
X95361189Y-76572434D01*
X95360811Y-77005665D01*
X89752000Y-77005665D01*
X89752000Y-75187224D01*
X90473559Y-74465665D01*
X95360811Y-74465665D01*
X95526252Y-74866063D01*
X95832326Y-75172671D01*
X96232434Y-75338811D01*
X96665665Y-75339189D01*
X97066063Y-75173748D01*
X97372671Y-74867674D01*
X97538811Y-74467566D01*
X97539189Y-74034335D01*
X97373748Y-73633937D01*
X97067674Y-73327329D01*
X96667566Y-73161189D01*
X96234335Y-73160811D01*
X95833937Y-73326252D01*
X95527329Y-73632326D01*
X95361189Y-74032434D01*
X95360811Y-74465665D01*
X90473559Y-74465665D01*
X93013559Y-71925665D01*
X95360811Y-71925665D01*
X95526252Y-72326063D01*
X95832326Y-72632671D01*
X96232434Y-72798811D01*
X96665665Y-72799189D01*
X97066063Y-72633748D01*
X97372671Y-72327674D01*
X97538811Y-71927566D01*
X97539189Y-71494335D01*
X97373748Y-71093937D01*
X97067674Y-70787329D01*
X96667566Y-70621189D01*
X96234335Y-70620811D01*
X95833937Y-70786252D01*
X95527329Y-71092326D01*
X95361189Y-71492434D01*
X95360811Y-71925665D01*
X93013559Y-71925665D01*
X95887224Y-69052000D01*
X97012776Y-69052000D01*
X103180387Y-75219612D01*
X103327027Y-75317594D01*
X103500000Y-75352000D01*
X117300000Y-75352000D01*
X117472973Y-75317594D01*
X117619612Y-75219612D01*
X119019612Y-73819612D01*
X119117594Y-73672973D01*
X119152000Y-73500000D01*
X119152000Y-71600000D01*
X119117594Y-71427027D01*
X119077567Y-71367123D01*
X119019612Y-71280387D01*
X118524621Y-70785397D01*
X118712671Y-70597674D01*
X118878811Y-70197566D01*
X118878812Y-70195665D01*
X119240811Y-70195665D01*
X119406252Y-70596063D01*
X119712326Y-70902671D01*
X120112434Y-71068811D01*
X120545665Y-71069189D01*
X120946063Y-70903748D01*
X121252671Y-70597674D01*
X121418811Y-70197566D01*
X121418812Y-70195665D01*
X121780811Y-70195665D01*
X121946252Y-70596063D01*
X122252326Y-70902671D01*
X122652434Y-71068811D01*
X123085665Y-71069189D01*
X123486063Y-70903748D01*
X123792671Y-70597674D01*
X123958811Y-70197566D01*
X123958812Y-70195665D01*
X124320811Y-70195665D01*
X124486252Y-70596063D01*
X124792326Y-70902671D01*
X125192434Y-71068811D01*
X125625665Y-71069189D01*
X126026063Y-70903748D01*
X126192318Y-70737782D01*
X127371823Y-70737782D01*
X127463548Y-70865610D01*
X127839485Y-70984353D01*
X128232247Y-70950194D01*
X128436452Y-70865610D01*
X128528177Y-70737782D01*
X127950000Y-70159605D01*
X127371823Y-70737782D01*
X126192318Y-70737782D01*
X126332671Y-70597674D01*
X126498811Y-70197566D01*
X126499097Y-69869485D01*
X126945647Y-69869485D01*
X126979806Y-70262247D01*
X127064390Y-70466452D01*
X127192218Y-70558177D01*
X127770395Y-69980000D01*
X128129605Y-69980000D01*
X128707782Y-70558177D01*
X128835610Y-70466452D01*
X128921140Y-70195665D01*
X129400811Y-70195665D01*
X129566252Y-70596063D01*
X129872326Y-70902671D01*
X130272434Y-71068811D01*
X130705665Y-71069189D01*
X131106063Y-70903748D01*
X131412671Y-70597674D01*
X131578811Y-70197566D01*
X131578812Y-70195665D01*
X131940811Y-70195665D01*
X132106252Y-70596063D01*
X132412326Y-70902671D01*
X132812434Y-71068811D01*
X133245665Y-71069189D01*
X133646063Y-70903748D01*
X133952671Y-70597674D01*
X134115488Y-70205567D01*
X134430803Y-70205567D01*
X134603840Y-70624349D01*
X134923966Y-70945034D01*
X135342445Y-71118802D01*
X135795567Y-71119197D01*
X135889669Y-71080315D01*
X136758000Y-71948646D01*
X136758000Y-94670682D01*
X136665651Y-94708840D01*
X136344966Y-95028966D01*
X136171198Y-95447445D01*
X136170803Y-95900567D01*
X136343840Y-96319349D01*
X136663966Y-96640034D01*
X137082445Y-96813802D01*
X137535567Y-96814197D01*
X137954349Y-96641160D01*
X138275034Y-96321034D01*
X138448802Y-95902555D01*
X138448812Y-95890665D01*
X138760811Y-95890665D01*
X138926252Y-96291063D01*
X139232326Y-96597671D01*
X139632434Y-96763811D01*
X140065665Y-96764189D01*
X140466063Y-96598748D01*
X140772671Y-96292674D01*
X140938811Y-95892566D01*
X140939189Y-95459335D01*
X140773748Y-95058937D01*
X140467674Y-94752329D01*
X140067566Y-94586189D01*
X139634335Y-94585811D01*
X139233937Y-94751252D01*
X138927329Y-95057326D01*
X138761189Y-95457434D01*
X138760811Y-95890665D01*
X138448812Y-95890665D01*
X138449197Y-95449433D01*
X138276160Y-95030651D01*
X137956034Y-94709966D01*
X137862000Y-94670920D01*
X137862000Y-91801720D01*
X139202675Y-91801720D01*
X139487829Y-92491846D01*
X140015376Y-93020316D01*
X140705004Y-93306674D01*
X141451720Y-93307325D01*
X142141846Y-93022171D01*
X142670316Y-92494624D01*
X142956674Y-91804996D01*
X142957325Y-91058280D01*
X142672171Y-90368154D01*
X142144624Y-89839684D01*
X141454996Y-89553326D01*
X140708280Y-89552675D01*
X140018154Y-89837829D01*
X139489684Y-90365376D01*
X139203326Y-91055004D01*
X139202675Y-91801720D01*
X137862000Y-91801720D01*
X137862000Y-71720000D01*
X137850463Y-71662000D01*
X139915545Y-71662000D01*
X139988298Y-71838075D01*
X140350021Y-72200429D01*
X140782957Y-72380200D01*
X140351925Y-72558298D01*
X139989571Y-72920021D01*
X139793224Y-73392877D01*
X139792777Y-73904877D01*
X139988298Y-74378075D01*
X140350021Y-74740429D01*
X140822877Y-74936776D01*
X141334877Y-74937223D01*
X141808075Y-74741702D01*
X142170429Y-74379979D01*
X142366776Y-73907123D01*
X142367131Y-73500000D01*
X143396000Y-73500000D01*
X143396000Y-81500000D01*
X143419141Y-81616336D01*
X143485040Y-81714960D01*
X143583664Y-81780859D01*
X143700000Y-81804000D01*
X147700000Y-81804000D01*
X147816336Y-81780859D01*
X147914960Y-81714960D01*
X147980859Y-81616336D01*
X148004000Y-81500000D01*
X148004000Y-73500000D01*
X147980859Y-73383664D01*
X147914960Y-73285040D01*
X147816336Y-73219141D01*
X147700000Y-73196000D01*
X143700000Y-73196000D01*
X143583664Y-73219141D01*
X143485040Y-73285040D01*
X143419141Y-73383664D01*
X143396000Y-73500000D01*
X142367131Y-73500000D01*
X142367223Y-73395123D01*
X142171702Y-72921925D01*
X141809979Y-72559571D01*
X141377043Y-72379800D01*
X141808075Y-72201702D01*
X142170429Y-71839979D01*
X142366776Y-71367123D01*
X142367223Y-70855123D01*
X142171702Y-70381925D01*
X141809979Y-70019571D01*
X141337123Y-69823224D01*
X140825123Y-69822777D01*
X140351925Y-70018298D01*
X139989571Y-70380021D01*
X139915668Y-70558000D01*
X136928646Y-70558000D01*
X136670483Y-70299837D01*
X136708802Y-70207555D01*
X136709197Y-69754433D01*
X136536160Y-69335651D01*
X136216034Y-69014966D01*
X135797555Y-68841198D01*
X135344433Y-68840803D01*
X134925651Y-69013840D01*
X134604966Y-69333966D01*
X134431198Y-69752445D01*
X134430803Y-70205567D01*
X134115488Y-70205567D01*
X134118811Y-70197566D01*
X134119189Y-69764335D01*
X133953748Y-69363937D01*
X133647674Y-69057329D01*
X133247566Y-68891189D01*
X132814335Y-68890811D01*
X132413937Y-69056252D01*
X132107329Y-69362326D01*
X131941189Y-69762434D01*
X131940811Y-70195665D01*
X131578812Y-70195665D01*
X131579189Y-69764335D01*
X131413748Y-69363937D01*
X131107674Y-69057329D01*
X130707566Y-68891189D01*
X130274335Y-68890811D01*
X129873937Y-69056252D01*
X129567329Y-69362326D01*
X129401189Y-69762434D01*
X129400811Y-70195665D01*
X128921140Y-70195665D01*
X128954353Y-70090515D01*
X128920194Y-69697753D01*
X128835610Y-69493548D01*
X128707782Y-69401823D01*
X128129605Y-69980000D01*
X127770395Y-69980000D01*
X127192218Y-69401823D01*
X127064390Y-69493548D01*
X126945647Y-69869485D01*
X126499097Y-69869485D01*
X126499189Y-69764335D01*
X126333748Y-69363937D01*
X126192276Y-69222218D01*
X127371823Y-69222218D01*
X127950000Y-69800395D01*
X128528177Y-69222218D01*
X128436452Y-69094390D01*
X128060515Y-68975647D01*
X127667753Y-69009806D01*
X127463548Y-69094390D01*
X127371823Y-69222218D01*
X126192276Y-69222218D01*
X126027674Y-69057329D01*
X125627566Y-68891189D01*
X125194335Y-68890811D01*
X124793937Y-69056252D01*
X124487329Y-69362326D01*
X124321189Y-69762434D01*
X124320811Y-70195665D01*
X123958812Y-70195665D01*
X123959189Y-69764335D01*
X123793748Y-69363937D01*
X123487674Y-69057329D01*
X123087566Y-68891189D01*
X122654335Y-68890811D01*
X122253937Y-69056252D01*
X121947329Y-69362326D01*
X121781189Y-69762434D01*
X121780811Y-70195665D01*
X121418812Y-70195665D01*
X121419189Y-69764335D01*
X121253748Y-69363937D01*
X120947674Y-69057329D01*
X120547566Y-68891189D01*
X120114335Y-68890811D01*
X119713937Y-69056252D01*
X119407329Y-69362326D01*
X119241189Y-69762434D01*
X119240811Y-70195665D01*
X118878812Y-70195665D01*
X118879189Y-69764335D01*
X118713748Y-69363937D01*
X118407674Y-69057329D01*
X118007566Y-68891189D01*
X117574335Y-68890811D01*
X117173937Y-69056252D01*
X116867329Y-69362326D01*
X116701189Y-69762434D01*
X116700811Y-70195665D01*
X116866252Y-70596063D01*
X117172326Y-70902671D01*
X117499161Y-71038385D01*
X118248000Y-71787225D01*
X118248000Y-73312776D01*
X117112776Y-74448000D01*
X106471517Y-74448000D01*
X106568066Y-74351619D01*
X106756785Y-73897134D01*
X106757214Y-73405025D01*
X106569289Y-72950211D01*
X106355117Y-72735665D01*
X112890811Y-72735665D01*
X113056252Y-73136063D01*
X113362326Y-73442671D01*
X113762434Y-73608811D01*
X114195665Y-73609189D01*
X114596063Y-73443748D01*
X114902671Y-73137674D01*
X115068811Y-72737566D01*
X115068812Y-72735665D01*
X115430811Y-72735665D01*
X115596252Y-73136063D01*
X115902326Y-73442671D01*
X116302434Y-73608811D01*
X116735665Y-73609189D01*
X117136063Y-73443748D01*
X117442671Y-73137674D01*
X117608811Y-72737566D01*
X117609189Y-72304335D01*
X117443748Y-71903937D01*
X117137674Y-71597329D01*
X116737566Y-71431189D01*
X116304335Y-71430811D01*
X115903937Y-71596252D01*
X115597329Y-71902326D01*
X115431189Y-72302434D01*
X115430811Y-72735665D01*
X115068812Y-72735665D01*
X115069189Y-72304335D01*
X114903748Y-71903937D01*
X114597674Y-71597329D01*
X114197566Y-71431189D01*
X113764335Y-71430811D01*
X113363937Y-71596252D01*
X113057329Y-71902326D01*
X112891189Y-72302434D01*
X112890811Y-72735665D01*
X106355117Y-72735665D01*
X106221619Y-72601934D01*
X105767134Y-72413215D01*
X105275025Y-72412786D01*
X104820211Y-72600711D01*
X104471934Y-72948381D01*
X104283215Y-73402866D01*
X104282786Y-73894975D01*
X104470711Y-74349789D01*
X104568751Y-74448000D01*
X103687225Y-74448000D01*
X100594200Y-71354975D01*
X104282786Y-71354975D01*
X104470711Y-71809789D01*
X104818381Y-72158066D01*
X105272866Y-72346785D01*
X105764975Y-72347214D01*
X106219789Y-72159289D01*
X106568066Y-71811619D01*
X106756785Y-71357134D01*
X106757214Y-70865025D01*
X106569289Y-70410211D01*
X106355117Y-70195665D01*
X106540811Y-70195665D01*
X106706252Y-70596063D01*
X107012326Y-70902671D01*
X107412434Y-71068811D01*
X107845665Y-71069189D01*
X108246063Y-70903748D01*
X108552671Y-70597674D01*
X108718811Y-70197566D01*
X108718812Y-70195665D01*
X109080811Y-70195665D01*
X109246252Y-70596063D01*
X109552326Y-70902671D01*
X109952434Y-71068811D01*
X110385665Y-71069189D01*
X110786063Y-70903748D01*
X111092671Y-70597674D01*
X111258811Y-70197566D01*
X111258812Y-70195665D01*
X111620811Y-70195665D01*
X111786252Y-70596063D01*
X112092326Y-70902671D01*
X112492434Y-71068811D01*
X112925665Y-71069189D01*
X113326063Y-70903748D01*
X113632671Y-70597674D01*
X113798811Y-70197566D01*
X113798812Y-70195665D01*
X114160811Y-70195665D01*
X114326252Y-70596063D01*
X114632326Y-70902671D01*
X115032434Y-71068811D01*
X115465665Y-71069189D01*
X115866063Y-70903748D01*
X116172671Y-70597674D01*
X116338811Y-70197566D01*
X116339189Y-69764335D01*
X116173748Y-69363937D01*
X115867674Y-69057329D01*
X115467566Y-68891189D01*
X115034335Y-68890811D01*
X114633937Y-69056252D01*
X114327329Y-69362326D01*
X114161189Y-69762434D01*
X114160811Y-70195665D01*
X113798812Y-70195665D01*
X113799189Y-69764335D01*
X113633748Y-69363937D01*
X113327674Y-69057329D01*
X112927566Y-68891189D01*
X112494335Y-68890811D01*
X112093937Y-69056252D01*
X111787329Y-69362326D01*
X111621189Y-69762434D01*
X111620811Y-70195665D01*
X111258812Y-70195665D01*
X111259189Y-69764335D01*
X111093748Y-69363937D01*
X110787674Y-69057329D01*
X110387566Y-68891189D01*
X109954335Y-68890811D01*
X109553937Y-69056252D01*
X109247329Y-69362326D01*
X109081189Y-69762434D01*
X109080811Y-70195665D01*
X108718812Y-70195665D01*
X108719189Y-69764335D01*
X108553748Y-69363937D01*
X108247674Y-69057329D01*
X107847566Y-68891189D01*
X107414335Y-68890811D01*
X107013937Y-69056252D01*
X106707329Y-69362326D01*
X106541189Y-69762434D01*
X106540811Y-70195665D01*
X106355117Y-70195665D01*
X106221619Y-70061934D01*
X105767134Y-69873215D01*
X105275025Y-69872786D01*
X104820211Y-70060711D01*
X104471934Y-70408381D01*
X104283215Y-70862866D01*
X104282786Y-71354975D01*
X100594200Y-71354975D01*
X97519612Y-68280388D01*
X97372973Y-68182406D01*
X97200000Y-68148000D01*
X95700000Y-68148000D01*
X95527027Y-68182406D01*
X95380388Y-68280388D01*
X88980388Y-74680388D01*
X88882406Y-74827027D01*
X88848000Y-75000000D01*
X86527000Y-75000000D01*
X86527000Y-65204000D01*
X86800000Y-65204000D01*
X86916336Y-65180859D01*
X87014960Y-65114960D01*
X87080859Y-65016336D01*
X87104000Y-64900000D01*
X87104000Y-64724964D01*
X104239921Y-64655681D01*
X103929684Y-64965376D01*
X103643326Y-65655004D01*
X103642675Y-66401720D01*
X103927829Y-67091846D01*
X104455376Y-67620316D01*
X105145004Y-67906674D01*
X105891720Y-67907325D01*
X106581846Y-67622171D01*
X107110316Y-67094624D01*
X107396674Y-66404996D01*
X107397325Y-65658280D01*
X107112171Y-64968154D01*
X106789952Y-64645371D01*
X139944532Y-64511323D01*
X139489684Y-64965376D01*
X139203326Y-65655004D01*
X139202675Y-66401720D01*
X139487829Y-67091846D01*
X140015376Y-67620316D01*
X140705004Y-67906674D01*
X141451720Y-67907325D01*
X142141846Y-67622171D01*
X142670316Y-67094624D01*
X142956674Y-66404996D01*
X142957325Y-65658280D01*
X142672171Y-64968154D01*
X142207006Y-64502175D01*
X160496000Y-64428231D01*
X160496000Y-64900000D01*
M02*
