G04 #@! TF.FileFunction,Copper,L2,Bot,Signal*
%FSLAX46Y46*%
G04 Gerber Fmt 4.6, Leading zero omitted, Abs format (unit mm)*
G04 Created by KiCad (PCBNEW 4.0.2-stable) date Thursday, March 16, 2017 'PMt' 02:05:18 PM*
%MOMM*%
G01*
G04 APERTURE LIST*
%ADD10C,0.100000*%
%ADD11C,2.400000*%
%ADD12R,2.400000X2.400000*%
%ADD13O,1.500000X0.900000*%
%ADD14R,1.500000X0.900000*%
%ADD15C,3.810000*%
%ADD16C,1.524000*%
%ADD17C,3.100000*%
%ADD18C,4.200000*%
%ADD19O,1.501140X2.199640*%
%ADD20C,1.820000*%
%ADD21C,0.250000*%
%ADD22C,0.254000*%
G04 APERTURE END LIST*
D10*
D11*
X94000000Y-120600000D03*
X94000000Y-124100000D03*
D12*
X94000000Y-117100000D03*
D13*
X93600000Y-108530000D03*
X93600000Y-107260000D03*
D14*
X93600000Y-109800000D03*
D15*
X103050000Y-136150000D03*
D16*
X139850000Y-95675000D03*
X137310000Y-95675000D03*
X134770000Y-95675000D03*
X132230000Y-95675000D03*
X129690000Y-95675000D03*
X127150000Y-95675000D03*
X124610000Y-95675000D03*
X122070000Y-95675000D03*
X119530000Y-95675000D03*
X116990000Y-95675000D03*
X114450000Y-95675000D03*
X111910000Y-95675000D03*
X109370000Y-95675000D03*
X106830000Y-95675000D03*
X104290000Y-95675000D03*
X101750000Y-95675000D03*
D15*
X138550000Y-136150000D03*
D17*
X83750000Y-71710000D03*
D16*
X96450000Y-71710000D03*
X96450000Y-74250000D03*
X96450000Y-76790000D03*
X96450000Y-79330000D03*
X96450000Y-81870000D03*
X96450000Y-84410000D03*
X96450000Y-86950000D03*
X96450000Y-89490000D03*
D17*
X83750000Y-89490000D03*
D18*
X80700000Y-101600000D03*
X168700000Y-101600000D03*
X124700000Y-57600000D03*
X124700000Y-146000000D03*
D19*
X116520000Y-72520000D03*
X113980000Y-72520000D03*
X135570000Y-85220000D03*
X133030000Y-85220000D03*
X130490000Y-85220000D03*
X127950000Y-85220000D03*
X125410000Y-85220000D03*
X122870000Y-85220000D03*
X120330000Y-85220000D03*
X117790000Y-85220000D03*
X115250000Y-85220000D03*
X112710000Y-85220000D03*
X110170000Y-85220000D03*
X107630000Y-85220000D03*
X107630000Y-69980000D03*
X110170000Y-69980000D03*
X112710000Y-69980000D03*
X115250000Y-69980000D03*
X117790000Y-69980000D03*
X120330000Y-69980000D03*
X122870000Y-69980000D03*
X125410000Y-69980000D03*
X127950000Y-69980000D03*
X130490000Y-69980000D03*
X133030000Y-69980000D03*
X135570000Y-69980000D03*
X124140000Y-72520000D03*
X126680000Y-72520000D03*
D20*
X141080000Y-83750000D03*
D17*
X105520000Y-65970000D03*
X141080000Y-65970000D03*
X105520000Y-91370000D03*
X141080000Y-91370000D03*
D20*
X141080000Y-86290000D03*
D21*
X96450000Y-74250000D02*
X111150000Y-74250000D01*
X120390000Y-80200000D02*
X125410000Y-85220000D01*
X117100000Y-80200000D02*
X120390000Y-80200000D01*
X111150000Y-74250000D02*
X117100000Y-80200000D01*
D22*
G36*
X103929684Y-64905376D02*
X103643326Y-65595004D01*
X103642675Y-66341720D01*
X103927829Y-67031846D01*
X104455376Y-67560316D01*
X105145004Y-67846674D01*
X105891720Y-67847325D01*
X106581846Y-67562171D01*
X107110316Y-67034624D01*
X107396674Y-66344996D01*
X107397325Y-65598280D01*
X107112171Y-64908154D01*
X106731683Y-64527000D01*
X139868722Y-64527000D01*
X139489684Y-64905376D01*
X139203326Y-65595004D01*
X139202675Y-66341720D01*
X139487829Y-67031846D01*
X140015376Y-67560316D01*
X140705004Y-67846674D01*
X141451720Y-67847325D01*
X142141846Y-67562171D01*
X142670316Y-67034624D01*
X142956674Y-66344996D01*
X142957325Y-65598280D01*
X142672171Y-64908154D01*
X142291683Y-64527000D01*
X160496000Y-64527000D01*
X160496000Y-64900000D01*
X160519141Y-65016336D01*
X160585040Y-65114960D01*
X160683664Y-65180859D01*
X160800000Y-65204000D01*
X160870835Y-65204000D01*
X160675163Y-137896000D01*
X160500000Y-137896000D01*
X160383664Y-137919141D01*
X160285040Y-137985040D01*
X160219141Y-138083664D01*
X160196000Y-138200000D01*
X160196000Y-138571371D01*
X86904000Y-138373818D01*
X86904000Y-136592024D01*
X100817614Y-136592024D01*
X101156700Y-137412674D01*
X101784023Y-138041094D01*
X102604080Y-138381611D01*
X103492024Y-138382386D01*
X104312674Y-138043300D01*
X104941094Y-137415977D01*
X105281611Y-136595920D01*
X105281614Y-136592024D01*
X136317614Y-136592024D01*
X136656700Y-137412674D01*
X137284023Y-138041094D01*
X138104080Y-138381611D01*
X138992024Y-138382386D01*
X139812674Y-138043300D01*
X140441094Y-137415977D01*
X140781611Y-136595920D01*
X140782386Y-135707976D01*
X140443300Y-134887326D01*
X139815977Y-134258906D01*
X138995920Y-133918389D01*
X138107976Y-133917614D01*
X137287326Y-134256700D01*
X136658906Y-134884023D01*
X136318389Y-135704080D01*
X136317614Y-136592024D01*
X105281614Y-136592024D01*
X105282386Y-135707976D01*
X104943300Y-134887326D01*
X104315977Y-134258906D01*
X103495920Y-133918389D01*
X102607976Y-133917614D01*
X101787326Y-134256700D01*
X101158906Y-134884023D01*
X100818389Y-135704080D01*
X100817614Y-136592024D01*
X86904000Y-136592024D01*
X86904000Y-125175490D01*
X93104115Y-125175490D01*
X93249604Y-125348896D01*
X93784657Y-125540994D01*
X94352493Y-125513712D01*
X94750396Y-125348896D01*
X94895885Y-125175490D01*
X94000000Y-124279605D01*
X93104115Y-125175490D01*
X86904000Y-125175490D01*
X86904000Y-123884657D01*
X92559006Y-123884657D01*
X92586288Y-124452493D01*
X92751104Y-124850396D01*
X92924510Y-124995885D01*
X93820395Y-124100000D01*
X94179605Y-124100000D01*
X95075490Y-124995885D01*
X95248896Y-124850396D01*
X95440994Y-124315343D01*
X95413712Y-123747507D01*
X95248896Y-123349604D01*
X95075490Y-123204115D01*
X94179605Y-124100000D01*
X93820395Y-124100000D01*
X92924510Y-123204115D01*
X92751104Y-123349604D01*
X92559006Y-123884657D01*
X86904000Y-123884657D01*
X86904000Y-123024510D01*
X93104115Y-123024510D01*
X94000000Y-123920395D01*
X94895885Y-123024510D01*
X94750396Y-122851104D01*
X94215343Y-122659006D01*
X93647507Y-122686288D01*
X93249604Y-122851104D01*
X93104115Y-123024510D01*
X86904000Y-123024510D01*
X86904000Y-120902407D01*
X92472735Y-120902407D01*
X92704717Y-121463846D01*
X93133894Y-121893773D01*
X93694928Y-122126735D01*
X94302407Y-122127265D01*
X94863846Y-121895283D01*
X95293773Y-121466106D01*
X95526735Y-120905072D01*
X95527265Y-120297593D01*
X95295283Y-119736154D01*
X94866106Y-119306227D01*
X94305072Y-119073265D01*
X93697593Y-119072735D01*
X93136154Y-119304717D01*
X92706227Y-119733894D01*
X92473265Y-120294928D01*
X92472735Y-120902407D01*
X86904000Y-120902407D01*
X86904000Y-115900000D01*
X92466594Y-115900000D01*
X92466594Y-118300000D01*
X92489395Y-118421179D01*
X92561012Y-118532474D01*
X92670286Y-118607138D01*
X92800000Y-118633406D01*
X95200000Y-118633406D01*
X95321179Y-118610605D01*
X95432474Y-118538988D01*
X95507138Y-118429714D01*
X95533406Y-118300000D01*
X95533406Y-115900000D01*
X95510605Y-115778821D01*
X95438988Y-115667526D01*
X95329714Y-115592862D01*
X95200000Y-115566594D01*
X92800000Y-115566594D01*
X92678821Y-115589395D01*
X92567526Y-115661012D01*
X92492862Y-115770286D01*
X92466594Y-115900000D01*
X86904000Y-115900000D01*
X86904000Y-107260000D01*
X92450921Y-107260000D01*
X92513873Y-107576479D01*
X92693144Y-107844777D01*
X92812931Y-107924816D01*
X92729478Y-107980578D01*
X92561046Y-108232655D01*
X92501900Y-108530000D01*
X92561046Y-108827345D01*
X92710577Y-109051135D01*
X92617526Y-109111012D01*
X92542862Y-109220286D01*
X92516594Y-109350000D01*
X92516594Y-110250000D01*
X92539395Y-110371179D01*
X92611012Y-110482474D01*
X92720286Y-110557138D01*
X92850000Y-110583406D01*
X94350000Y-110583406D01*
X94471179Y-110560605D01*
X94582474Y-110488988D01*
X94657138Y-110379714D01*
X94683406Y-110250000D01*
X94683406Y-109350000D01*
X94660605Y-109228821D01*
X94588988Y-109117526D01*
X94490175Y-109050010D01*
X94638954Y-108827345D01*
X94698100Y-108530000D01*
X94638954Y-108232655D01*
X94470522Y-107980578D01*
X94387069Y-107924816D01*
X94506856Y-107844777D01*
X94686127Y-107576479D01*
X94749079Y-107260000D01*
X94686127Y-106943521D01*
X94506856Y-106675223D01*
X94238558Y-106495952D01*
X93922079Y-106433000D01*
X93277921Y-106433000D01*
X92961442Y-106495952D01*
X92693144Y-106675223D01*
X92513873Y-106943521D01*
X92450921Y-107260000D01*
X86904000Y-107260000D01*
X86904000Y-104800000D01*
X86880859Y-104683664D01*
X86814960Y-104585040D01*
X86727000Y-104526267D01*
X86727000Y-101600000D01*
X102896000Y-101600000D01*
X102896000Y-133000000D01*
X102919141Y-133116336D01*
X102985040Y-133214960D01*
X103083664Y-133280859D01*
X103200000Y-133304000D01*
X121200000Y-133304000D01*
X121316336Y-133280859D01*
X121414960Y-133214960D01*
X121480859Y-133116336D01*
X121504000Y-133000000D01*
X121504000Y-119400000D01*
X143396000Y-119400000D01*
X143396000Y-127400000D01*
X143419141Y-127516336D01*
X143485040Y-127614960D01*
X143583664Y-127680859D01*
X143700000Y-127704000D01*
X147700000Y-127704000D01*
X147816336Y-127680859D01*
X147914960Y-127614960D01*
X147980859Y-127516336D01*
X148004000Y-127400000D01*
X148004000Y-119400000D01*
X147980859Y-119283664D01*
X147914960Y-119185040D01*
X147816336Y-119119141D01*
X147700000Y-119096000D01*
X143700000Y-119096000D01*
X143583664Y-119119141D01*
X143485040Y-119185040D01*
X143419141Y-119283664D01*
X143396000Y-119400000D01*
X121504000Y-119400000D01*
X121504000Y-101600000D01*
X121480859Y-101483664D01*
X121414960Y-101385040D01*
X121316336Y-101319141D01*
X121200000Y-101296000D01*
X103200000Y-101296000D01*
X103083664Y-101319141D01*
X102985040Y-101385040D01*
X102919141Y-101483664D01*
X102896000Y-101600000D01*
X86727000Y-101600000D01*
X86727000Y-95890665D01*
X100660811Y-95890665D01*
X100826252Y-96291063D01*
X101132326Y-96597671D01*
X101532434Y-96763811D01*
X101965665Y-96764189D01*
X102366063Y-96598748D01*
X102672671Y-96292674D01*
X102838811Y-95892566D01*
X102838812Y-95890665D01*
X103200811Y-95890665D01*
X103366252Y-96291063D01*
X103672326Y-96597671D01*
X104072434Y-96763811D01*
X104505665Y-96764189D01*
X104906063Y-96598748D01*
X105212671Y-96292674D01*
X105378811Y-95892566D01*
X105378812Y-95890665D01*
X105740811Y-95890665D01*
X105906252Y-96291063D01*
X106212326Y-96597671D01*
X106612434Y-96763811D01*
X107045665Y-96764189D01*
X107446063Y-96598748D01*
X107752671Y-96292674D01*
X107918811Y-95892566D01*
X107918812Y-95890665D01*
X108280811Y-95890665D01*
X108446252Y-96291063D01*
X108752326Y-96597671D01*
X109152434Y-96763811D01*
X109585665Y-96764189D01*
X109986063Y-96598748D01*
X110292671Y-96292674D01*
X110458811Y-95892566D01*
X110458812Y-95890665D01*
X110820811Y-95890665D01*
X110986252Y-96291063D01*
X111292326Y-96597671D01*
X111692434Y-96763811D01*
X112125665Y-96764189D01*
X112526063Y-96598748D01*
X112832671Y-96292674D01*
X112998811Y-95892566D01*
X112998812Y-95890665D01*
X113360811Y-95890665D01*
X113526252Y-96291063D01*
X113832326Y-96597671D01*
X114232434Y-96763811D01*
X114665665Y-96764189D01*
X115066063Y-96598748D01*
X115372671Y-96292674D01*
X115538811Y-95892566D01*
X115538812Y-95890665D01*
X115900811Y-95890665D01*
X116066252Y-96291063D01*
X116372326Y-96597671D01*
X116772434Y-96763811D01*
X117205665Y-96764189D01*
X117606063Y-96598748D01*
X117912671Y-96292674D01*
X118078811Y-95892566D01*
X118078812Y-95890665D01*
X118440811Y-95890665D01*
X118606252Y-96291063D01*
X118912326Y-96597671D01*
X119312434Y-96763811D01*
X119745665Y-96764189D01*
X120146063Y-96598748D01*
X120452671Y-96292674D01*
X120618811Y-95892566D01*
X120618812Y-95890665D01*
X120980811Y-95890665D01*
X121146252Y-96291063D01*
X121452326Y-96597671D01*
X121852434Y-96763811D01*
X122285665Y-96764189D01*
X122686063Y-96598748D01*
X122992671Y-96292674D01*
X123158811Y-95892566D01*
X123158812Y-95890665D01*
X123520811Y-95890665D01*
X123686252Y-96291063D01*
X123992326Y-96597671D01*
X124392434Y-96763811D01*
X124825665Y-96764189D01*
X125226063Y-96598748D01*
X125532671Y-96292674D01*
X125698811Y-95892566D01*
X125698812Y-95890665D01*
X126060811Y-95890665D01*
X126226252Y-96291063D01*
X126532326Y-96597671D01*
X126932434Y-96763811D01*
X127365665Y-96764189D01*
X127766063Y-96598748D01*
X128072671Y-96292674D01*
X128238811Y-95892566D01*
X128238812Y-95890665D01*
X128600811Y-95890665D01*
X128766252Y-96291063D01*
X129072326Y-96597671D01*
X129472434Y-96763811D01*
X129905665Y-96764189D01*
X130306063Y-96598748D01*
X130612671Y-96292674D01*
X130775488Y-95900567D01*
X131090803Y-95900567D01*
X131263840Y-96319349D01*
X131583966Y-96640034D01*
X132002445Y-96813802D01*
X132455567Y-96814197D01*
X132874349Y-96641160D01*
X133083090Y-96432782D01*
X134191823Y-96432782D01*
X134283548Y-96560610D01*
X134659485Y-96679353D01*
X135052247Y-96645194D01*
X135256452Y-96560610D01*
X135348177Y-96432782D01*
X134770000Y-95854605D01*
X134191823Y-96432782D01*
X133083090Y-96432782D01*
X133195034Y-96321034D01*
X133368802Y-95902555D01*
X133369096Y-95564485D01*
X133765647Y-95564485D01*
X133799806Y-95957247D01*
X133884390Y-96161452D01*
X134012218Y-96253177D01*
X134590395Y-95675000D01*
X134949605Y-95675000D01*
X135527782Y-96253177D01*
X135655610Y-96161452D01*
X135738012Y-95900567D01*
X136170803Y-95900567D01*
X136343840Y-96319349D01*
X136663966Y-96640034D01*
X137082445Y-96813802D01*
X137535567Y-96814197D01*
X137954349Y-96641160D01*
X138275034Y-96321034D01*
X138448802Y-95902555D01*
X138448812Y-95890665D01*
X138760811Y-95890665D01*
X138926252Y-96291063D01*
X139232326Y-96597671D01*
X139632434Y-96763811D01*
X140065665Y-96764189D01*
X140466063Y-96598748D01*
X140772671Y-96292674D01*
X140938811Y-95892566D01*
X140939189Y-95459335D01*
X140773748Y-95058937D01*
X140467674Y-94752329D01*
X140067566Y-94586189D01*
X139634335Y-94585811D01*
X139233937Y-94751252D01*
X138927329Y-95057326D01*
X138761189Y-95457434D01*
X138760811Y-95890665D01*
X138448812Y-95890665D01*
X138449197Y-95449433D01*
X138276160Y-95030651D01*
X137956034Y-94709966D01*
X137537555Y-94536198D01*
X137084433Y-94535803D01*
X136665651Y-94708840D01*
X136344966Y-95028966D01*
X136171198Y-95447445D01*
X136170803Y-95900567D01*
X135738012Y-95900567D01*
X135774353Y-95785515D01*
X135740194Y-95392753D01*
X135655610Y-95188548D01*
X135527782Y-95096823D01*
X134949605Y-95675000D01*
X134590395Y-95675000D01*
X134012218Y-95096823D01*
X133884390Y-95188548D01*
X133765647Y-95564485D01*
X133369096Y-95564485D01*
X133369197Y-95449433D01*
X133196160Y-95030651D01*
X133082925Y-94917218D01*
X134191823Y-94917218D01*
X134770000Y-95495395D01*
X135348177Y-94917218D01*
X135256452Y-94789390D01*
X134880515Y-94670647D01*
X134487753Y-94704806D01*
X134283548Y-94789390D01*
X134191823Y-94917218D01*
X133082925Y-94917218D01*
X132876034Y-94709966D01*
X132457555Y-94536198D01*
X132004433Y-94535803D01*
X131585651Y-94708840D01*
X131264966Y-95028966D01*
X131091198Y-95447445D01*
X131090803Y-95900567D01*
X130775488Y-95900567D01*
X130778811Y-95892566D01*
X130779189Y-95459335D01*
X130613748Y-95058937D01*
X130307674Y-94752329D01*
X129907566Y-94586189D01*
X129474335Y-94585811D01*
X129073937Y-94751252D01*
X128767329Y-95057326D01*
X128601189Y-95457434D01*
X128600811Y-95890665D01*
X128238812Y-95890665D01*
X128239189Y-95459335D01*
X128073748Y-95058937D01*
X127767674Y-94752329D01*
X127367566Y-94586189D01*
X126934335Y-94585811D01*
X126533937Y-94751252D01*
X126227329Y-95057326D01*
X126061189Y-95457434D01*
X126060811Y-95890665D01*
X125698812Y-95890665D01*
X125699189Y-95459335D01*
X125533748Y-95058937D01*
X125227674Y-94752329D01*
X124827566Y-94586189D01*
X124394335Y-94585811D01*
X123993937Y-94751252D01*
X123687329Y-95057326D01*
X123521189Y-95457434D01*
X123520811Y-95890665D01*
X123158812Y-95890665D01*
X123159189Y-95459335D01*
X122993748Y-95058937D01*
X122687674Y-94752329D01*
X122287566Y-94586189D01*
X121854335Y-94585811D01*
X121453937Y-94751252D01*
X121147329Y-95057326D01*
X120981189Y-95457434D01*
X120980811Y-95890665D01*
X120618812Y-95890665D01*
X120619189Y-95459335D01*
X120453748Y-95058937D01*
X120147674Y-94752329D01*
X119747566Y-94586189D01*
X119314335Y-94585811D01*
X118913937Y-94751252D01*
X118607329Y-95057326D01*
X118441189Y-95457434D01*
X118440811Y-95890665D01*
X118078812Y-95890665D01*
X118079189Y-95459335D01*
X117913748Y-95058937D01*
X117607674Y-94752329D01*
X117207566Y-94586189D01*
X116774335Y-94585811D01*
X116373937Y-94751252D01*
X116067329Y-95057326D01*
X115901189Y-95457434D01*
X115900811Y-95890665D01*
X115538812Y-95890665D01*
X115539189Y-95459335D01*
X115373748Y-95058937D01*
X115067674Y-94752329D01*
X114667566Y-94586189D01*
X114234335Y-94585811D01*
X113833937Y-94751252D01*
X113527329Y-95057326D01*
X113361189Y-95457434D01*
X113360811Y-95890665D01*
X112998812Y-95890665D01*
X112999189Y-95459335D01*
X112833748Y-95058937D01*
X112527674Y-94752329D01*
X112127566Y-94586189D01*
X111694335Y-94585811D01*
X111293937Y-94751252D01*
X110987329Y-95057326D01*
X110821189Y-95457434D01*
X110820811Y-95890665D01*
X110458812Y-95890665D01*
X110459189Y-95459335D01*
X110293748Y-95058937D01*
X109987674Y-94752329D01*
X109587566Y-94586189D01*
X109154335Y-94585811D01*
X108753937Y-94751252D01*
X108447329Y-95057326D01*
X108281189Y-95457434D01*
X108280811Y-95890665D01*
X107918812Y-95890665D01*
X107919189Y-95459335D01*
X107753748Y-95058937D01*
X107447674Y-94752329D01*
X107047566Y-94586189D01*
X106614335Y-94585811D01*
X106213937Y-94751252D01*
X105907329Y-95057326D01*
X105741189Y-95457434D01*
X105740811Y-95890665D01*
X105378812Y-95890665D01*
X105379189Y-95459335D01*
X105213748Y-95058937D01*
X104907674Y-94752329D01*
X104507566Y-94586189D01*
X104074335Y-94585811D01*
X103673937Y-94751252D01*
X103367329Y-95057326D01*
X103201189Y-95457434D01*
X103200811Y-95890665D01*
X102838812Y-95890665D01*
X102839189Y-95459335D01*
X102673748Y-95058937D01*
X102367674Y-94752329D01*
X101967566Y-94586189D01*
X101534335Y-94585811D01*
X101133937Y-94751252D01*
X100827329Y-95057326D01*
X100661189Y-95457434D01*
X100660811Y-95890665D01*
X86727000Y-95890665D01*
X86727000Y-91741720D01*
X103642675Y-91741720D01*
X103927829Y-92431846D01*
X104455376Y-92960316D01*
X105145004Y-93246674D01*
X105891720Y-93247325D01*
X106581846Y-92962171D01*
X107110316Y-92434624D01*
X107396674Y-91744996D01*
X107396676Y-91741720D01*
X139202675Y-91741720D01*
X139487829Y-92431846D01*
X140015376Y-92960316D01*
X140705004Y-93246674D01*
X141451720Y-93247325D01*
X142141846Y-92962171D01*
X142670316Y-92434624D01*
X142956674Y-91744996D01*
X142957325Y-90998280D01*
X142672171Y-90308154D01*
X142144624Y-89779684D01*
X141454996Y-89493326D01*
X140708280Y-89492675D01*
X140018154Y-89777829D01*
X139489684Y-90305376D01*
X139203326Y-90995004D01*
X139202675Y-91741720D01*
X107396676Y-91741720D01*
X107397325Y-90998280D01*
X107112171Y-90308154D01*
X106584624Y-89779684D01*
X105894996Y-89493326D01*
X105148280Y-89492675D01*
X104458154Y-89777829D01*
X103929684Y-90305376D01*
X103643326Y-90995004D01*
X103642675Y-91741720D01*
X86727000Y-91741720D01*
X86727000Y-89715567D01*
X95310803Y-89715567D01*
X95483840Y-90134349D01*
X95803966Y-90455034D01*
X96222445Y-90628802D01*
X96675567Y-90629197D01*
X97094349Y-90456160D01*
X97415034Y-90136034D01*
X97588802Y-89717555D01*
X97589197Y-89264433D01*
X97416160Y-88845651D01*
X97096034Y-88524966D01*
X96677555Y-88351198D01*
X96224433Y-88350803D01*
X95805651Y-88523840D01*
X95484966Y-88843966D01*
X95311198Y-89262445D01*
X95310803Y-89715567D01*
X86727000Y-89715567D01*
X86727000Y-87707782D01*
X95871823Y-87707782D01*
X95963548Y-87835610D01*
X96339485Y-87954353D01*
X96732247Y-87920194D01*
X96936452Y-87835610D01*
X97028177Y-87707782D01*
X96450000Y-87129605D01*
X95871823Y-87707782D01*
X86727000Y-87707782D01*
X86727000Y-86839485D01*
X95445647Y-86839485D01*
X95479806Y-87232247D01*
X95564390Y-87436452D01*
X95692218Y-87528177D01*
X96270395Y-86950000D01*
X96629605Y-86950000D01*
X97207782Y-87528177D01*
X97335610Y-87436452D01*
X97454353Y-87060515D01*
X97420194Y-86667753D01*
X97335610Y-86463548D01*
X97207782Y-86371823D01*
X96629605Y-86950000D01*
X96270395Y-86950000D01*
X95692218Y-86371823D01*
X95564390Y-86463548D01*
X95445647Y-86839485D01*
X86727000Y-86839485D01*
X86727000Y-86192218D01*
X95871823Y-86192218D01*
X96450000Y-86770395D01*
X97028177Y-86192218D01*
X96936452Y-86064390D01*
X96560515Y-85945647D01*
X96167753Y-85979806D01*
X95963548Y-86064390D01*
X95871823Y-86192218D01*
X86727000Y-86192218D01*
X86727000Y-84625665D01*
X95360811Y-84625665D01*
X95526252Y-85026063D01*
X95832326Y-85332671D01*
X96232434Y-85498811D01*
X96665665Y-85499189D01*
X97066063Y-85333748D01*
X97372671Y-85027674D01*
X97449438Y-84842797D01*
X106552430Y-84842797D01*
X106552430Y-85597203D01*
X106634455Y-86009571D01*
X106868043Y-86359160D01*
X107217632Y-86592748D01*
X107630000Y-86674773D01*
X108042368Y-86592748D01*
X108391957Y-86359160D01*
X108625545Y-86009571D01*
X108707570Y-85597203D01*
X108707570Y-84842797D01*
X109092430Y-84842797D01*
X109092430Y-85597203D01*
X109174455Y-86009571D01*
X109408043Y-86359160D01*
X109757632Y-86592748D01*
X110170000Y-86674773D01*
X110582368Y-86592748D01*
X110931957Y-86359160D01*
X111165545Y-86009571D01*
X111247570Y-85597203D01*
X111247570Y-84842797D01*
X111632430Y-84842797D01*
X111632430Y-85597203D01*
X111714455Y-86009571D01*
X111948043Y-86359160D01*
X112297632Y-86592748D01*
X112710000Y-86674773D01*
X113122368Y-86592748D01*
X113471957Y-86359160D01*
X113705545Y-86009571D01*
X113787570Y-85597203D01*
X113787570Y-84842797D01*
X114172430Y-84842797D01*
X114172430Y-85597203D01*
X114254455Y-86009571D01*
X114488043Y-86359160D01*
X114837632Y-86592748D01*
X115250000Y-86674773D01*
X115662368Y-86592748D01*
X116011957Y-86359160D01*
X116245545Y-86009571D01*
X116327570Y-85597203D01*
X116327570Y-84842797D01*
X116712430Y-84842797D01*
X116712430Y-85597203D01*
X116794455Y-86009571D01*
X117028043Y-86359160D01*
X117377632Y-86592748D01*
X117790000Y-86674773D01*
X118202368Y-86592748D01*
X118551957Y-86359160D01*
X118785545Y-86009571D01*
X118867570Y-85597203D01*
X118867570Y-84842797D01*
X119252430Y-84842797D01*
X119252430Y-85597203D01*
X119334455Y-86009571D01*
X119568043Y-86359160D01*
X119917632Y-86592748D01*
X120330000Y-86674773D01*
X120742368Y-86592748D01*
X121091957Y-86359160D01*
X121325545Y-86009571D01*
X121407570Y-85597203D01*
X121407570Y-84842797D01*
X121325545Y-84430429D01*
X121091957Y-84080840D01*
X120742368Y-83847252D01*
X120330000Y-83765227D01*
X119917632Y-83847252D01*
X119568043Y-84080840D01*
X119334455Y-84430429D01*
X119252430Y-84842797D01*
X118867570Y-84842797D01*
X118785545Y-84430429D01*
X118551957Y-84080840D01*
X118202368Y-83847252D01*
X117790000Y-83765227D01*
X117377632Y-83847252D01*
X117028043Y-84080840D01*
X116794455Y-84430429D01*
X116712430Y-84842797D01*
X116327570Y-84842797D01*
X116245545Y-84430429D01*
X116011957Y-84080840D01*
X115662368Y-83847252D01*
X115250000Y-83765227D01*
X114837632Y-83847252D01*
X114488043Y-84080840D01*
X114254455Y-84430429D01*
X114172430Y-84842797D01*
X113787570Y-84842797D01*
X113705545Y-84430429D01*
X113471957Y-84080840D01*
X113122368Y-83847252D01*
X112710000Y-83765227D01*
X112297632Y-83847252D01*
X111948043Y-84080840D01*
X111714455Y-84430429D01*
X111632430Y-84842797D01*
X111247570Y-84842797D01*
X111165545Y-84430429D01*
X110931957Y-84080840D01*
X110582368Y-83847252D01*
X110170000Y-83765227D01*
X109757632Y-83847252D01*
X109408043Y-84080840D01*
X109174455Y-84430429D01*
X109092430Y-84842797D01*
X108707570Y-84842797D01*
X108625545Y-84430429D01*
X108391957Y-84080840D01*
X108042368Y-83847252D01*
X107630000Y-83765227D01*
X107217632Y-83847252D01*
X106868043Y-84080840D01*
X106634455Y-84430429D01*
X106552430Y-84842797D01*
X97449438Y-84842797D01*
X97538811Y-84627566D01*
X97539189Y-84194335D01*
X97373748Y-83793937D01*
X97067674Y-83487329D01*
X96667566Y-83321189D01*
X96234335Y-83320811D01*
X95833937Y-83486252D01*
X95527329Y-83792326D01*
X95361189Y-84192434D01*
X95360811Y-84625665D01*
X86727000Y-84625665D01*
X86727000Y-82085665D01*
X95360811Y-82085665D01*
X95526252Y-82486063D01*
X95832326Y-82792671D01*
X96232434Y-82958811D01*
X96665665Y-82959189D01*
X97066063Y-82793748D01*
X97372671Y-82487674D01*
X97538811Y-82087566D01*
X97539189Y-81654335D01*
X97373748Y-81253937D01*
X97067674Y-80947329D01*
X96667566Y-80781189D01*
X96234335Y-80780811D01*
X95833937Y-80946252D01*
X95527329Y-81252326D01*
X95361189Y-81652434D01*
X95360811Y-82085665D01*
X86727000Y-82085665D01*
X86727000Y-79545665D01*
X95360811Y-79545665D01*
X95526252Y-79946063D01*
X95832326Y-80252671D01*
X96232434Y-80418811D01*
X96665665Y-80419189D01*
X97066063Y-80253748D01*
X97372671Y-79947674D01*
X97538811Y-79547566D01*
X97539189Y-79114335D01*
X97373748Y-78713937D01*
X97067674Y-78407329D01*
X96667566Y-78241189D01*
X96234335Y-78240811D01*
X95833937Y-78406252D01*
X95527329Y-78712326D01*
X95361189Y-79112434D01*
X95360811Y-79545665D01*
X86727000Y-79545665D01*
X86727000Y-77005665D01*
X95360811Y-77005665D01*
X95526252Y-77406063D01*
X95832326Y-77712671D01*
X96232434Y-77878811D01*
X96665665Y-77879189D01*
X97066063Y-77713748D01*
X97372671Y-77407674D01*
X97538811Y-77007566D01*
X97539189Y-76574335D01*
X97373748Y-76173937D01*
X97067674Y-75867329D01*
X96667566Y-75701189D01*
X96234335Y-75700811D01*
X95833937Y-75866252D01*
X95527329Y-76172326D01*
X95361189Y-76572434D01*
X95360811Y-77005665D01*
X86727000Y-77005665D01*
X86727000Y-74465665D01*
X95360811Y-74465665D01*
X95526252Y-74866063D01*
X95832326Y-75172671D01*
X96232434Y-75338811D01*
X96665665Y-75339189D01*
X97066063Y-75173748D01*
X97372671Y-74867674D01*
X97441465Y-74702000D01*
X110962776Y-74702000D01*
X116780388Y-80519612D01*
X116927027Y-80617594D01*
X117100000Y-80652000D01*
X120202776Y-80652000D01*
X123630929Y-84080153D01*
X123282368Y-83847252D01*
X122870000Y-83765227D01*
X122457632Y-83847252D01*
X122108043Y-84080840D01*
X121874455Y-84430429D01*
X121792430Y-84842797D01*
X121792430Y-85597203D01*
X121874455Y-86009571D01*
X122108043Y-86359160D01*
X122457632Y-86592748D01*
X122870000Y-86674773D01*
X123282368Y-86592748D01*
X123631957Y-86359160D01*
X123865545Y-86009571D01*
X123947570Y-85597203D01*
X123947570Y-84842797D01*
X123865545Y-84430429D01*
X123632644Y-84081868D01*
X124342574Y-84791798D01*
X124332430Y-84842797D01*
X124332430Y-85597203D01*
X124414455Y-86009571D01*
X124648043Y-86359160D01*
X124997632Y-86592748D01*
X125410000Y-86674773D01*
X125822368Y-86592748D01*
X126171957Y-86359160D01*
X126405545Y-86009571D01*
X126487570Y-85597203D01*
X126487570Y-85347000D01*
X126970430Y-85347000D01*
X126970430Y-85696250D01*
X127093596Y-86061448D01*
X127347142Y-86351713D01*
X127672618Y-86508726D01*
X127823000Y-86482784D01*
X127823000Y-85347000D01*
X128077000Y-85347000D01*
X128077000Y-86482784D01*
X128227382Y-86508726D01*
X128552858Y-86351713D01*
X128806404Y-86061448D01*
X128929570Y-85696250D01*
X128929570Y-85347000D01*
X128077000Y-85347000D01*
X127823000Y-85347000D01*
X126970430Y-85347000D01*
X126487570Y-85347000D01*
X126487570Y-84842797D01*
X126467869Y-84743750D01*
X126970430Y-84743750D01*
X126970430Y-85093000D01*
X127823000Y-85093000D01*
X127823000Y-83957216D01*
X128077000Y-83957216D01*
X128077000Y-85093000D01*
X128929570Y-85093000D01*
X128929570Y-84842797D01*
X129412430Y-84842797D01*
X129412430Y-85597203D01*
X129494455Y-86009571D01*
X129728043Y-86359160D01*
X130077632Y-86592748D01*
X130490000Y-86674773D01*
X130902368Y-86592748D01*
X131251957Y-86359160D01*
X131485545Y-86009571D01*
X131567570Y-85597203D01*
X131567570Y-84842797D01*
X131952430Y-84842797D01*
X131952430Y-85597203D01*
X132034455Y-86009571D01*
X132268043Y-86359160D01*
X132617632Y-86592748D01*
X133030000Y-86674773D01*
X133442368Y-86592748D01*
X133791957Y-86359160D01*
X134025545Y-86009571D01*
X134107570Y-85597203D01*
X134107570Y-84842797D01*
X134492430Y-84842797D01*
X134492430Y-85597203D01*
X134574455Y-86009571D01*
X134808043Y-86359160D01*
X135157632Y-86592748D01*
X135570000Y-86674773D01*
X135982368Y-86592748D01*
X136054011Y-86544877D01*
X139792777Y-86544877D01*
X139988298Y-87018075D01*
X140350021Y-87380429D01*
X140822877Y-87576776D01*
X141334877Y-87577223D01*
X141808075Y-87381702D01*
X142170429Y-87019979D01*
X142366776Y-86547123D01*
X142367223Y-86035123D01*
X142171702Y-85561925D01*
X141809979Y-85199571D01*
X141337123Y-85003224D01*
X140825123Y-85002777D01*
X140351925Y-85198298D01*
X139989571Y-85560021D01*
X139793224Y-86032877D01*
X139792777Y-86544877D01*
X136054011Y-86544877D01*
X136331957Y-86359160D01*
X136565545Y-86009571D01*
X136647570Y-85597203D01*
X136647570Y-84842797D01*
X136602321Y-84615311D01*
X140394294Y-84615311D01*
X140504235Y-84758537D01*
X140934014Y-84902102D01*
X141386017Y-84870270D01*
X141655765Y-84758537D01*
X141765706Y-84615311D01*
X141080000Y-83929605D01*
X140394294Y-84615311D01*
X136602321Y-84615311D01*
X136565545Y-84430429D01*
X136331957Y-84080840D01*
X135982368Y-83847252D01*
X135570000Y-83765227D01*
X135157632Y-83847252D01*
X134808043Y-84080840D01*
X134574455Y-84430429D01*
X134492430Y-84842797D01*
X134107570Y-84842797D01*
X134025545Y-84430429D01*
X133791957Y-84080840D01*
X133442368Y-83847252D01*
X133030000Y-83765227D01*
X132617632Y-83847252D01*
X132268043Y-84080840D01*
X132034455Y-84430429D01*
X131952430Y-84842797D01*
X131567570Y-84842797D01*
X131485545Y-84430429D01*
X131251957Y-84080840D01*
X130902368Y-83847252D01*
X130490000Y-83765227D01*
X130077632Y-83847252D01*
X129728043Y-84080840D01*
X129494455Y-84430429D01*
X129412430Y-84842797D01*
X128929570Y-84842797D01*
X128929570Y-84743750D01*
X128806404Y-84378552D01*
X128552858Y-84088287D01*
X128227382Y-83931274D01*
X128077000Y-83957216D01*
X127823000Y-83957216D01*
X127672618Y-83931274D01*
X127347142Y-84088287D01*
X127093596Y-84378552D01*
X126970430Y-84743750D01*
X126467869Y-84743750D01*
X126405545Y-84430429D01*
X126171957Y-84080840D01*
X125822368Y-83847252D01*
X125410000Y-83765227D01*
X124997632Y-83847252D01*
X124805113Y-83975889D01*
X124433238Y-83604014D01*
X139927898Y-83604014D01*
X139959730Y-84056017D01*
X140071463Y-84325765D01*
X140214689Y-84435706D01*
X140900395Y-83750000D01*
X141259605Y-83750000D01*
X141945311Y-84435706D01*
X142088537Y-84325765D01*
X142232102Y-83895986D01*
X142200270Y-83443983D01*
X142088537Y-83174235D01*
X141945311Y-83064294D01*
X141259605Y-83750000D01*
X140900395Y-83750000D01*
X140214689Y-83064294D01*
X140071463Y-83174235D01*
X139927898Y-83604014D01*
X124433238Y-83604014D01*
X123713913Y-82884689D01*
X140394294Y-82884689D01*
X141080000Y-83570395D01*
X141765706Y-82884689D01*
X141655765Y-82741463D01*
X141225986Y-82597898D01*
X140773983Y-82629730D01*
X140504235Y-82741463D01*
X140394294Y-82884689D01*
X123713913Y-82884689D01*
X120709612Y-79880388D01*
X120562973Y-79782406D01*
X120390000Y-79748000D01*
X117287224Y-79748000D01*
X111469612Y-73930388D01*
X111322973Y-73832406D01*
X111150000Y-73798000D01*
X97441537Y-73798000D01*
X97373748Y-73633937D01*
X97067674Y-73327329D01*
X96667566Y-73161189D01*
X96234335Y-73160811D01*
X95833937Y-73326252D01*
X95527329Y-73632326D01*
X95361189Y-74032434D01*
X95360811Y-74465665D01*
X86727000Y-74465665D01*
X86727000Y-71925665D01*
X95360811Y-71925665D01*
X95526252Y-72326063D01*
X95832326Y-72632671D01*
X96232434Y-72798811D01*
X96665665Y-72799189D01*
X97066063Y-72633748D01*
X97372671Y-72327674D01*
X97449438Y-72142797D01*
X112902430Y-72142797D01*
X112902430Y-72897203D01*
X112984455Y-73309571D01*
X113218043Y-73659160D01*
X113567632Y-73892748D01*
X113980000Y-73974773D01*
X114392368Y-73892748D01*
X114741957Y-73659160D01*
X114975545Y-73309571D01*
X115057570Y-72897203D01*
X115057570Y-72142797D01*
X115442430Y-72142797D01*
X115442430Y-72897203D01*
X115524455Y-73309571D01*
X115758043Y-73659160D01*
X116107632Y-73892748D01*
X116520000Y-73974773D01*
X116932368Y-73892748D01*
X117281957Y-73659160D01*
X117515545Y-73309571D01*
X117597570Y-72897203D01*
X117597570Y-72142797D01*
X123062430Y-72142797D01*
X123062430Y-72897203D01*
X123144455Y-73309571D01*
X123378043Y-73659160D01*
X123727632Y-73892748D01*
X124140000Y-73974773D01*
X124552368Y-73892748D01*
X124901957Y-73659160D01*
X125135545Y-73309571D01*
X125217570Y-72897203D01*
X125217570Y-72142797D01*
X125602430Y-72142797D01*
X125602430Y-72897203D01*
X125684455Y-73309571D01*
X125918043Y-73659160D01*
X126267632Y-73892748D01*
X126680000Y-73974773D01*
X127092368Y-73892748D01*
X127441957Y-73659160D01*
X127548304Y-73500000D01*
X143396000Y-73500000D01*
X143396000Y-81500000D01*
X143419141Y-81616336D01*
X143485040Y-81714960D01*
X143583664Y-81780859D01*
X143700000Y-81804000D01*
X147700000Y-81804000D01*
X147816336Y-81780859D01*
X147914960Y-81714960D01*
X147980859Y-81616336D01*
X148004000Y-81500000D01*
X148004000Y-73500000D01*
X147980859Y-73383664D01*
X147914960Y-73285040D01*
X147816336Y-73219141D01*
X147700000Y-73196000D01*
X143700000Y-73196000D01*
X143583664Y-73219141D01*
X143485040Y-73285040D01*
X143419141Y-73383664D01*
X143396000Y-73500000D01*
X127548304Y-73500000D01*
X127675545Y-73309571D01*
X127757570Y-72897203D01*
X127757570Y-72142797D01*
X127675545Y-71730429D01*
X127441957Y-71380840D01*
X127092368Y-71147252D01*
X126680000Y-71065227D01*
X126267632Y-71147252D01*
X125918043Y-71380840D01*
X125684455Y-71730429D01*
X125602430Y-72142797D01*
X125217570Y-72142797D01*
X125135545Y-71730429D01*
X124901957Y-71380840D01*
X124552368Y-71147252D01*
X124140000Y-71065227D01*
X123727632Y-71147252D01*
X123378043Y-71380840D01*
X123144455Y-71730429D01*
X123062430Y-72142797D01*
X117597570Y-72142797D01*
X117515545Y-71730429D01*
X117281957Y-71380840D01*
X116932368Y-71147252D01*
X116520000Y-71065227D01*
X116107632Y-71147252D01*
X115758043Y-71380840D01*
X115524455Y-71730429D01*
X115442430Y-72142797D01*
X115057570Y-72142797D01*
X114975545Y-71730429D01*
X114741957Y-71380840D01*
X114392368Y-71147252D01*
X113980000Y-71065227D01*
X113567632Y-71147252D01*
X113218043Y-71380840D01*
X112984455Y-71730429D01*
X112902430Y-72142797D01*
X97449438Y-72142797D01*
X97538811Y-71927566D01*
X97539189Y-71494335D01*
X97373748Y-71093937D01*
X97067674Y-70787329D01*
X96667566Y-70621189D01*
X96234335Y-70620811D01*
X95833937Y-70786252D01*
X95527329Y-71092326D01*
X95361189Y-71492434D01*
X95360811Y-71925665D01*
X86727000Y-71925665D01*
X86727000Y-69602797D01*
X106552430Y-69602797D01*
X106552430Y-70357203D01*
X106634455Y-70769571D01*
X106868043Y-71119160D01*
X107217632Y-71352748D01*
X107630000Y-71434773D01*
X108042368Y-71352748D01*
X108391957Y-71119160D01*
X108625545Y-70769571D01*
X108707570Y-70357203D01*
X108707570Y-69602797D01*
X109092430Y-69602797D01*
X109092430Y-70357203D01*
X109174455Y-70769571D01*
X109408043Y-71119160D01*
X109757632Y-71352748D01*
X110170000Y-71434773D01*
X110582368Y-71352748D01*
X110931957Y-71119160D01*
X111165545Y-70769571D01*
X111247570Y-70357203D01*
X111247570Y-69602797D01*
X111632430Y-69602797D01*
X111632430Y-70357203D01*
X111714455Y-70769571D01*
X111948043Y-71119160D01*
X112297632Y-71352748D01*
X112710000Y-71434773D01*
X113122368Y-71352748D01*
X113471957Y-71119160D01*
X113705545Y-70769571D01*
X113787570Y-70357203D01*
X113787570Y-69602797D01*
X114172430Y-69602797D01*
X114172430Y-70357203D01*
X114254455Y-70769571D01*
X114488043Y-71119160D01*
X114837632Y-71352748D01*
X115250000Y-71434773D01*
X115662368Y-71352748D01*
X116011957Y-71119160D01*
X116245545Y-70769571D01*
X116327570Y-70357203D01*
X116327570Y-69602797D01*
X116712430Y-69602797D01*
X116712430Y-70357203D01*
X116794455Y-70769571D01*
X117028043Y-71119160D01*
X117377632Y-71352748D01*
X117790000Y-71434773D01*
X118202368Y-71352748D01*
X118551957Y-71119160D01*
X118785545Y-70769571D01*
X118867570Y-70357203D01*
X118867570Y-69602797D01*
X119252430Y-69602797D01*
X119252430Y-70357203D01*
X119334455Y-70769571D01*
X119568043Y-71119160D01*
X119917632Y-71352748D01*
X120330000Y-71434773D01*
X120742368Y-71352748D01*
X121091957Y-71119160D01*
X121325545Y-70769571D01*
X121407570Y-70357203D01*
X121407570Y-69602797D01*
X121792430Y-69602797D01*
X121792430Y-70357203D01*
X121874455Y-70769571D01*
X122108043Y-71119160D01*
X122457632Y-71352748D01*
X122870000Y-71434773D01*
X123282368Y-71352748D01*
X123631957Y-71119160D01*
X123865545Y-70769571D01*
X123947570Y-70357203D01*
X123947570Y-69602797D01*
X124332430Y-69602797D01*
X124332430Y-70357203D01*
X124414455Y-70769571D01*
X124648043Y-71119160D01*
X124997632Y-71352748D01*
X125410000Y-71434773D01*
X125822368Y-71352748D01*
X126171957Y-71119160D01*
X126405545Y-70769571D01*
X126487570Y-70357203D01*
X126487570Y-69602797D01*
X126487376Y-69601817D01*
X126822430Y-69601817D01*
X126822430Y-70358183D01*
X126908261Y-70789685D01*
X127152688Y-71155495D01*
X127518498Y-71399922D01*
X127950000Y-71485753D01*
X128381502Y-71399922D01*
X128747312Y-71155495D01*
X128991739Y-70789685D01*
X129077570Y-70358183D01*
X129077570Y-69602797D01*
X129412430Y-69602797D01*
X129412430Y-70357203D01*
X129494455Y-70769571D01*
X129728043Y-71119160D01*
X130077632Y-71352748D01*
X130490000Y-71434773D01*
X130902368Y-71352748D01*
X131251957Y-71119160D01*
X131485545Y-70769571D01*
X131567570Y-70357203D01*
X131567570Y-69602797D01*
X131952430Y-69602797D01*
X131952430Y-70357203D01*
X132034455Y-70769571D01*
X132268043Y-71119160D01*
X132617632Y-71352748D01*
X133030000Y-71434773D01*
X133442368Y-71352748D01*
X133791957Y-71119160D01*
X134025545Y-70769571D01*
X134107570Y-70357203D01*
X134107570Y-69602797D01*
X134107376Y-69601817D01*
X134442430Y-69601817D01*
X134442430Y-70358183D01*
X134528261Y-70789685D01*
X134772688Y-71155495D01*
X135138498Y-71399922D01*
X135570000Y-71485753D01*
X136001502Y-71399922D01*
X136367312Y-71155495D01*
X136611739Y-70789685D01*
X136697570Y-70358183D01*
X136697570Y-69601817D01*
X136611739Y-69170315D01*
X136367312Y-68804505D01*
X136001502Y-68560078D01*
X135570000Y-68474247D01*
X135138498Y-68560078D01*
X134772688Y-68804505D01*
X134528261Y-69170315D01*
X134442430Y-69601817D01*
X134107376Y-69601817D01*
X134025545Y-69190429D01*
X133791957Y-68840840D01*
X133442368Y-68607252D01*
X133030000Y-68525227D01*
X132617632Y-68607252D01*
X132268043Y-68840840D01*
X132034455Y-69190429D01*
X131952430Y-69602797D01*
X131567570Y-69602797D01*
X131485545Y-69190429D01*
X131251957Y-68840840D01*
X130902368Y-68607252D01*
X130490000Y-68525227D01*
X130077632Y-68607252D01*
X129728043Y-68840840D01*
X129494455Y-69190429D01*
X129412430Y-69602797D01*
X129077570Y-69602797D01*
X129077570Y-69601817D01*
X128991739Y-69170315D01*
X128747312Y-68804505D01*
X128381502Y-68560078D01*
X127950000Y-68474247D01*
X127518498Y-68560078D01*
X127152688Y-68804505D01*
X126908261Y-69170315D01*
X126822430Y-69601817D01*
X126487376Y-69601817D01*
X126405545Y-69190429D01*
X126171957Y-68840840D01*
X125822368Y-68607252D01*
X125410000Y-68525227D01*
X124997632Y-68607252D01*
X124648043Y-68840840D01*
X124414455Y-69190429D01*
X124332430Y-69602797D01*
X123947570Y-69602797D01*
X123865545Y-69190429D01*
X123631957Y-68840840D01*
X123282368Y-68607252D01*
X122870000Y-68525227D01*
X122457632Y-68607252D01*
X122108043Y-68840840D01*
X121874455Y-69190429D01*
X121792430Y-69602797D01*
X121407570Y-69602797D01*
X121325545Y-69190429D01*
X121091957Y-68840840D01*
X120742368Y-68607252D01*
X120330000Y-68525227D01*
X119917632Y-68607252D01*
X119568043Y-68840840D01*
X119334455Y-69190429D01*
X119252430Y-69602797D01*
X118867570Y-69602797D01*
X118785545Y-69190429D01*
X118551957Y-68840840D01*
X118202368Y-68607252D01*
X117790000Y-68525227D01*
X117377632Y-68607252D01*
X117028043Y-68840840D01*
X116794455Y-69190429D01*
X116712430Y-69602797D01*
X116327570Y-69602797D01*
X116245545Y-69190429D01*
X116011957Y-68840840D01*
X115662368Y-68607252D01*
X115250000Y-68525227D01*
X114837632Y-68607252D01*
X114488043Y-68840840D01*
X114254455Y-69190429D01*
X114172430Y-69602797D01*
X113787570Y-69602797D01*
X113705545Y-69190429D01*
X113471957Y-68840840D01*
X113122368Y-68607252D01*
X112710000Y-68525227D01*
X112297632Y-68607252D01*
X111948043Y-68840840D01*
X111714455Y-69190429D01*
X111632430Y-69602797D01*
X111247570Y-69602797D01*
X111165545Y-69190429D01*
X110931957Y-68840840D01*
X110582368Y-68607252D01*
X110170000Y-68525227D01*
X109757632Y-68607252D01*
X109408043Y-68840840D01*
X109174455Y-69190429D01*
X109092430Y-69602797D01*
X108707570Y-69602797D01*
X108625545Y-69190429D01*
X108391957Y-68840840D01*
X108042368Y-68607252D01*
X107630000Y-68525227D01*
X107217632Y-68607252D01*
X106868043Y-68840840D01*
X106634455Y-69190429D01*
X106552430Y-69602797D01*
X86727000Y-69602797D01*
X86727000Y-65204000D01*
X86800000Y-65204000D01*
X86916336Y-65180859D01*
X87014960Y-65114960D01*
X87080859Y-65016336D01*
X87104000Y-64900000D01*
X87104000Y-64527000D01*
X104308722Y-64527000D01*
X103929684Y-64905376D01*
X103929684Y-64905376D01*
G37*
X103929684Y-64905376D02*
X103643326Y-65595004D01*
X103642675Y-66341720D01*
X103927829Y-67031846D01*
X104455376Y-67560316D01*
X105145004Y-67846674D01*
X105891720Y-67847325D01*
X106581846Y-67562171D01*
X107110316Y-67034624D01*
X107396674Y-66344996D01*
X107397325Y-65598280D01*
X107112171Y-64908154D01*
X106731683Y-64527000D01*
X139868722Y-64527000D01*
X139489684Y-64905376D01*
X139203326Y-65595004D01*
X139202675Y-66341720D01*
X139487829Y-67031846D01*
X140015376Y-67560316D01*
X140705004Y-67846674D01*
X141451720Y-67847325D01*
X142141846Y-67562171D01*
X142670316Y-67034624D01*
X142956674Y-66344996D01*
X142957325Y-65598280D01*
X142672171Y-64908154D01*
X142291683Y-64527000D01*
X160496000Y-64527000D01*
X160496000Y-64900000D01*
X160519141Y-65016336D01*
X160585040Y-65114960D01*
X160683664Y-65180859D01*
X160800000Y-65204000D01*
X160870835Y-65204000D01*
X160675163Y-137896000D01*
X160500000Y-137896000D01*
X160383664Y-137919141D01*
X160285040Y-137985040D01*
X160219141Y-138083664D01*
X160196000Y-138200000D01*
X160196000Y-138571371D01*
X86904000Y-138373818D01*
X86904000Y-136592024D01*
X100817614Y-136592024D01*
X101156700Y-137412674D01*
X101784023Y-138041094D01*
X102604080Y-138381611D01*
X103492024Y-138382386D01*
X104312674Y-138043300D01*
X104941094Y-137415977D01*
X105281611Y-136595920D01*
X105281614Y-136592024D01*
X136317614Y-136592024D01*
X136656700Y-137412674D01*
X137284023Y-138041094D01*
X138104080Y-138381611D01*
X138992024Y-138382386D01*
X139812674Y-138043300D01*
X140441094Y-137415977D01*
X140781611Y-136595920D01*
X140782386Y-135707976D01*
X140443300Y-134887326D01*
X139815977Y-134258906D01*
X138995920Y-133918389D01*
X138107976Y-133917614D01*
X137287326Y-134256700D01*
X136658906Y-134884023D01*
X136318389Y-135704080D01*
X136317614Y-136592024D01*
X105281614Y-136592024D01*
X105282386Y-135707976D01*
X104943300Y-134887326D01*
X104315977Y-134258906D01*
X103495920Y-133918389D01*
X102607976Y-133917614D01*
X101787326Y-134256700D01*
X101158906Y-134884023D01*
X100818389Y-135704080D01*
X100817614Y-136592024D01*
X86904000Y-136592024D01*
X86904000Y-125175490D01*
X93104115Y-125175490D01*
X93249604Y-125348896D01*
X93784657Y-125540994D01*
X94352493Y-125513712D01*
X94750396Y-125348896D01*
X94895885Y-125175490D01*
X94000000Y-124279605D01*
X93104115Y-125175490D01*
X86904000Y-125175490D01*
X86904000Y-123884657D01*
X92559006Y-123884657D01*
X92586288Y-124452493D01*
X92751104Y-124850396D01*
X92924510Y-124995885D01*
X93820395Y-124100000D01*
X94179605Y-124100000D01*
X95075490Y-124995885D01*
X95248896Y-124850396D01*
X95440994Y-124315343D01*
X95413712Y-123747507D01*
X95248896Y-123349604D01*
X95075490Y-123204115D01*
X94179605Y-124100000D01*
X93820395Y-124100000D01*
X92924510Y-123204115D01*
X92751104Y-123349604D01*
X92559006Y-123884657D01*
X86904000Y-123884657D01*
X86904000Y-123024510D01*
X93104115Y-123024510D01*
X94000000Y-123920395D01*
X94895885Y-123024510D01*
X94750396Y-122851104D01*
X94215343Y-122659006D01*
X93647507Y-122686288D01*
X93249604Y-122851104D01*
X93104115Y-123024510D01*
X86904000Y-123024510D01*
X86904000Y-120902407D01*
X92472735Y-120902407D01*
X92704717Y-121463846D01*
X93133894Y-121893773D01*
X93694928Y-122126735D01*
X94302407Y-122127265D01*
X94863846Y-121895283D01*
X95293773Y-121466106D01*
X95526735Y-120905072D01*
X95527265Y-120297593D01*
X95295283Y-119736154D01*
X94866106Y-119306227D01*
X94305072Y-119073265D01*
X93697593Y-119072735D01*
X93136154Y-119304717D01*
X92706227Y-119733894D01*
X92473265Y-120294928D01*
X92472735Y-120902407D01*
X86904000Y-120902407D01*
X86904000Y-115900000D01*
X92466594Y-115900000D01*
X92466594Y-118300000D01*
X92489395Y-118421179D01*
X92561012Y-118532474D01*
X92670286Y-118607138D01*
X92800000Y-118633406D01*
X95200000Y-118633406D01*
X95321179Y-118610605D01*
X95432474Y-118538988D01*
X95507138Y-118429714D01*
X95533406Y-118300000D01*
X95533406Y-115900000D01*
X95510605Y-115778821D01*
X95438988Y-115667526D01*
X95329714Y-115592862D01*
X95200000Y-115566594D01*
X92800000Y-115566594D01*
X92678821Y-115589395D01*
X92567526Y-115661012D01*
X92492862Y-115770286D01*
X92466594Y-115900000D01*
X86904000Y-115900000D01*
X86904000Y-107260000D01*
X92450921Y-107260000D01*
X92513873Y-107576479D01*
X92693144Y-107844777D01*
X92812931Y-107924816D01*
X92729478Y-107980578D01*
X92561046Y-108232655D01*
X92501900Y-108530000D01*
X92561046Y-108827345D01*
X92710577Y-109051135D01*
X92617526Y-109111012D01*
X92542862Y-109220286D01*
X92516594Y-109350000D01*
X92516594Y-110250000D01*
X92539395Y-110371179D01*
X92611012Y-110482474D01*
X92720286Y-110557138D01*
X92850000Y-110583406D01*
X94350000Y-110583406D01*
X94471179Y-110560605D01*
X94582474Y-110488988D01*
X94657138Y-110379714D01*
X94683406Y-110250000D01*
X94683406Y-109350000D01*
X94660605Y-109228821D01*
X94588988Y-109117526D01*
X94490175Y-109050010D01*
X94638954Y-108827345D01*
X94698100Y-108530000D01*
X94638954Y-108232655D01*
X94470522Y-107980578D01*
X94387069Y-107924816D01*
X94506856Y-107844777D01*
X94686127Y-107576479D01*
X94749079Y-107260000D01*
X94686127Y-106943521D01*
X94506856Y-106675223D01*
X94238558Y-106495952D01*
X93922079Y-106433000D01*
X93277921Y-106433000D01*
X92961442Y-106495952D01*
X92693144Y-106675223D01*
X92513873Y-106943521D01*
X92450921Y-107260000D01*
X86904000Y-107260000D01*
X86904000Y-104800000D01*
X86880859Y-104683664D01*
X86814960Y-104585040D01*
X86727000Y-104526267D01*
X86727000Y-101600000D01*
X102896000Y-101600000D01*
X102896000Y-133000000D01*
X102919141Y-133116336D01*
X102985040Y-133214960D01*
X103083664Y-133280859D01*
X103200000Y-133304000D01*
X121200000Y-133304000D01*
X121316336Y-133280859D01*
X121414960Y-133214960D01*
X121480859Y-133116336D01*
X121504000Y-133000000D01*
X121504000Y-119400000D01*
X143396000Y-119400000D01*
X143396000Y-127400000D01*
X143419141Y-127516336D01*
X143485040Y-127614960D01*
X143583664Y-127680859D01*
X143700000Y-127704000D01*
X147700000Y-127704000D01*
X147816336Y-127680859D01*
X147914960Y-127614960D01*
X147980859Y-127516336D01*
X148004000Y-127400000D01*
X148004000Y-119400000D01*
X147980859Y-119283664D01*
X147914960Y-119185040D01*
X147816336Y-119119141D01*
X147700000Y-119096000D01*
X143700000Y-119096000D01*
X143583664Y-119119141D01*
X143485040Y-119185040D01*
X143419141Y-119283664D01*
X143396000Y-119400000D01*
X121504000Y-119400000D01*
X121504000Y-101600000D01*
X121480859Y-101483664D01*
X121414960Y-101385040D01*
X121316336Y-101319141D01*
X121200000Y-101296000D01*
X103200000Y-101296000D01*
X103083664Y-101319141D01*
X102985040Y-101385040D01*
X102919141Y-101483664D01*
X102896000Y-101600000D01*
X86727000Y-101600000D01*
X86727000Y-95890665D01*
X100660811Y-95890665D01*
X100826252Y-96291063D01*
X101132326Y-96597671D01*
X101532434Y-96763811D01*
X101965665Y-96764189D01*
X102366063Y-96598748D01*
X102672671Y-96292674D01*
X102838811Y-95892566D01*
X102838812Y-95890665D01*
X103200811Y-95890665D01*
X103366252Y-96291063D01*
X103672326Y-96597671D01*
X104072434Y-96763811D01*
X104505665Y-96764189D01*
X104906063Y-96598748D01*
X105212671Y-96292674D01*
X105378811Y-95892566D01*
X105378812Y-95890665D01*
X105740811Y-95890665D01*
X105906252Y-96291063D01*
X106212326Y-96597671D01*
X106612434Y-96763811D01*
X107045665Y-96764189D01*
X107446063Y-96598748D01*
X107752671Y-96292674D01*
X107918811Y-95892566D01*
X107918812Y-95890665D01*
X108280811Y-95890665D01*
X108446252Y-96291063D01*
X108752326Y-96597671D01*
X109152434Y-96763811D01*
X109585665Y-96764189D01*
X109986063Y-96598748D01*
X110292671Y-96292674D01*
X110458811Y-95892566D01*
X110458812Y-95890665D01*
X110820811Y-95890665D01*
X110986252Y-96291063D01*
X111292326Y-96597671D01*
X111692434Y-96763811D01*
X112125665Y-96764189D01*
X112526063Y-96598748D01*
X112832671Y-96292674D01*
X112998811Y-95892566D01*
X112998812Y-95890665D01*
X113360811Y-95890665D01*
X113526252Y-96291063D01*
X113832326Y-96597671D01*
X114232434Y-96763811D01*
X114665665Y-96764189D01*
X115066063Y-96598748D01*
X115372671Y-96292674D01*
X115538811Y-95892566D01*
X115538812Y-95890665D01*
X115900811Y-95890665D01*
X116066252Y-96291063D01*
X116372326Y-96597671D01*
X116772434Y-96763811D01*
X117205665Y-96764189D01*
X117606063Y-96598748D01*
X117912671Y-96292674D01*
X118078811Y-95892566D01*
X118078812Y-95890665D01*
X118440811Y-95890665D01*
X118606252Y-96291063D01*
X118912326Y-96597671D01*
X119312434Y-96763811D01*
X119745665Y-96764189D01*
X120146063Y-96598748D01*
X120452671Y-96292674D01*
X120618811Y-95892566D01*
X120618812Y-95890665D01*
X120980811Y-95890665D01*
X121146252Y-96291063D01*
X121452326Y-96597671D01*
X121852434Y-96763811D01*
X122285665Y-96764189D01*
X122686063Y-96598748D01*
X122992671Y-96292674D01*
X123158811Y-95892566D01*
X123158812Y-95890665D01*
X123520811Y-95890665D01*
X123686252Y-96291063D01*
X123992326Y-96597671D01*
X124392434Y-96763811D01*
X124825665Y-96764189D01*
X125226063Y-96598748D01*
X125532671Y-96292674D01*
X125698811Y-95892566D01*
X125698812Y-95890665D01*
X126060811Y-95890665D01*
X126226252Y-96291063D01*
X126532326Y-96597671D01*
X126932434Y-96763811D01*
X127365665Y-96764189D01*
X127766063Y-96598748D01*
X128072671Y-96292674D01*
X128238811Y-95892566D01*
X128238812Y-95890665D01*
X128600811Y-95890665D01*
X128766252Y-96291063D01*
X129072326Y-96597671D01*
X129472434Y-96763811D01*
X129905665Y-96764189D01*
X130306063Y-96598748D01*
X130612671Y-96292674D01*
X130775488Y-95900567D01*
X131090803Y-95900567D01*
X131263840Y-96319349D01*
X131583966Y-96640034D01*
X132002445Y-96813802D01*
X132455567Y-96814197D01*
X132874349Y-96641160D01*
X133083090Y-96432782D01*
X134191823Y-96432782D01*
X134283548Y-96560610D01*
X134659485Y-96679353D01*
X135052247Y-96645194D01*
X135256452Y-96560610D01*
X135348177Y-96432782D01*
X134770000Y-95854605D01*
X134191823Y-96432782D01*
X133083090Y-96432782D01*
X133195034Y-96321034D01*
X133368802Y-95902555D01*
X133369096Y-95564485D01*
X133765647Y-95564485D01*
X133799806Y-95957247D01*
X133884390Y-96161452D01*
X134012218Y-96253177D01*
X134590395Y-95675000D01*
X134949605Y-95675000D01*
X135527782Y-96253177D01*
X135655610Y-96161452D01*
X135738012Y-95900567D01*
X136170803Y-95900567D01*
X136343840Y-96319349D01*
X136663966Y-96640034D01*
X137082445Y-96813802D01*
X137535567Y-96814197D01*
X137954349Y-96641160D01*
X138275034Y-96321034D01*
X138448802Y-95902555D01*
X138448812Y-95890665D01*
X138760811Y-95890665D01*
X138926252Y-96291063D01*
X139232326Y-96597671D01*
X139632434Y-96763811D01*
X140065665Y-96764189D01*
X140466063Y-96598748D01*
X140772671Y-96292674D01*
X140938811Y-95892566D01*
X140939189Y-95459335D01*
X140773748Y-95058937D01*
X140467674Y-94752329D01*
X140067566Y-94586189D01*
X139634335Y-94585811D01*
X139233937Y-94751252D01*
X138927329Y-95057326D01*
X138761189Y-95457434D01*
X138760811Y-95890665D01*
X138448812Y-95890665D01*
X138449197Y-95449433D01*
X138276160Y-95030651D01*
X137956034Y-94709966D01*
X137537555Y-94536198D01*
X137084433Y-94535803D01*
X136665651Y-94708840D01*
X136344966Y-95028966D01*
X136171198Y-95447445D01*
X136170803Y-95900567D01*
X135738012Y-95900567D01*
X135774353Y-95785515D01*
X135740194Y-95392753D01*
X135655610Y-95188548D01*
X135527782Y-95096823D01*
X134949605Y-95675000D01*
X134590395Y-95675000D01*
X134012218Y-95096823D01*
X133884390Y-95188548D01*
X133765647Y-95564485D01*
X133369096Y-95564485D01*
X133369197Y-95449433D01*
X133196160Y-95030651D01*
X133082925Y-94917218D01*
X134191823Y-94917218D01*
X134770000Y-95495395D01*
X135348177Y-94917218D01*
X135256452Y-94789390D01*
X134880515Y-94670647D01*
X134487753Y-94704806D01*
X134283548Y-94789390D01*
X134191823Y-94917218D01*
X133082925Y-94917218D01*
X132876034Y-94709966D01*
X132457555Y-94536198D01*
X132004433Y-94535803D01*
X131585651Y-94708840D01*
X131264966Y-95028966D01*
X131091198Y-95447445D01*
X131090803Y-95900567D01*
X130775488Y-95900567D01*
X130778811Y-95892566D01*
X130779189Y-95459335D01*
X130613748Y-95058937D01*
X130307674Y-94752329D01*
X129907566Y-94586189D01*
X129474335Y-94585811D01*
X129073937Y-94751252D01*
X128767329Y-95057326D01*
X128601189Y-95457434D01*
X128600811Y-95890665D01*
X128238812Y-95890665D01*
X128239189Y-95459335D01*
X128073748Y-95058937D01*
X127767674Y-94752329D01*
X127367566Y-94586189D01*
X126934335Y-94585811D01*
X126533937Y-94751252D01*
X126227329Y-95057326D01*
X126061189Y-95457434D01*
X126060811Y-95890665D01*
X125698812Y-95890665D01*
X125699189Y-95459335D01*
X125533748Y-95058937D01*
X125227674Y-94752329D01*
X124827566Y-94586189D01*
X124394335Y-94585811D01*
X123993937Y-94751252D01*
X123687329Y-95057326D01*
X123521189Y-95457434D01*
X123520811Y-95890665D01*
X123158812Y-95890665D01*
X123159189Y-95459335D01*
X122993748Y-95058937D01*
X122687674Y-94752329D01*
X122287566Y-94586189D01*
X121854335Y-94585811D01*
X121453937Y-94751252D01*
X121147329Y-95057326D01*
X120981189Y-95457434D01*
X120980811Y-95890665D01*
X120618812Y-95890665D01*
X120619189Y-95459335D01*
X120453748Y-95058937D01*
X120147674Y-94752329D01*
X119747566Y-94586189D01*
X119314335Y-94585811D01*
X118913937Y-94751252D01*
X118607329Y-95057326D01*
X118441189Y-95457434D01*
X118440811Y-95890665D01*
X118078812Y-95890665D01*
X118079189Y-95459335D01*
X117913748Y-95058937D01*
X117607674Y-94752329D01*
X117207566Y-94586189D01*
X116774335Y-94585811D01*
X116373937Y-94751252D01*
X116067329Y-95057326D01*
X115901189Y-95457434D01*
X115900811Y-95890665D01*
X115538812Y-95890665D01*
X115539189Y-95459335D01*
X115373748Y-95058937D01*
X115067674Y-94752329D01*
X114667566Y-94586189D01*
X114234335Y-94585811D01*
X113833937Y-94751252D01*
X113527329Y-95057326D01*
X113361189Y-95457434D01*
X113360811Y-95890665D01*
X112998812Y-95890665D01*
X112999189Y-95459335D01*
X112833748Y-95058937D01*
X112527674Y-94752329D01*
X112127566Y-94586189D01*
X111694335Y-94585811D01*
X111293937Y-94751252D01*
X110987329Y-95057326D01*
X110821189Y-95457434D01*
X110820811Y-95890665D01*
X110458812Y-95890665D01*
X110459189Y-95459335D01*
X110293748Y-95058937D01*
X109987674Y-94752329D01*
X109587566Y-94586189D01*
X109154335Y-94585811D01*
X108753937Y-94751252D01*
X108447329Y-95057326D01*
X108281189Y-95457434D01*
X108280811Y-95890665D01*
X107918812Y-95890665D01*
X107919189Y-95459335D01*
X107753748Y-95058937D01*
X107447674Y-94752329D01*
X107047566Y-94586189D01*
X106614335Y-94585811D01*
X106213937Y-94751252D01*
X105907329Y-95057326D01*
X105741189Y-95457434D01*
X105740811Y-95890665D01*
X105378812Y-95890665D01*
X105379189Y-95459335D01*
X105213748Y-95058937D01*
X104907674Y-94752329D01*
X104507566Y-94586189D01*
X104074335Y-94585811D01*
X103673937Y-94751252D01*
X103367329Y-95057326D01*
X103201189Y-95457434D01*
X103200811Y-95890665D01*
X102838812Y-95890665D01*
X102839189Y-95459335D01*
X102673748Y-95058937D01*
X102367674Y-94752329D01*
X101967566Y-94586189D01*
X101534335Y-94585811D01*
X101133937Y-94751252D01*
X100827329Y-95057326D01*
X100661189Y-95457434D01*
X100660811Y-95890665D01*
X86727000Y-95890665D01*
X86727000Y-91741720D01*
X103642675Y-91741720D01*
X103927829Y-92431846D01*
X104455376Y-92960316D01*
X105145004Y-93246674D01*
X105891720Y-93247325D01*
X106581846Y-92962171D01*
X107110316Y-92434624D01*
X107396674Y-91744996D01*
X107396676Y-91741720D01*
X139202675Y-91741720D01*
X139487829Y-92431846D01*
X140015376Y-92960316D01*
X140705004Y-93246674D01*
X141451720Y-93247325D01*
X142141846Y-92962171D01*
X142670316Y-92434624D01*
X142956674Y-91744996D01*
X142957325Y-90998280D01*
X142672171Y-90308154D01*
X142144624Y-89779684D01*
X141454996Y-89493326D01*
X140708280Y-89492675D01*
X140018154Y-89777829D01*
X139489684Y-90305376D01*
X139203326Y-90995004D01*
X139202675Y-91741720D01*
X107396676Y-91741720D01*
X107397325Y-90998280D01*
X107112171Y-90308154D01*
X106584624Y-89779684D01*
X105894996Y-89493326D01*
X105148280Y-89492675D01*
X104458154Y-89777829D01*
X103929684Y-90305376D01*
X103643326Y-90995004D01*
X103642675Y-91741720D01*
X86727000Y-91741720D01*
X86727000Y-89715567D01*
X95310803Y-89715567D01*
X95483840Y-90134349D01*
X95803966Y-90455034D01*
X96222445Y-90628802D01*
X96675567Y-90629197D01*
X97094349Y-90456160D01*
X97415034Y-90136034D01*
X97588802Y-89717555D01*
X97589197Y-89264433D01*
X97416160Y-88845651D01*
X97096034Y-88524966D01*
X96677555Y-88351198D01*
X96224433Y-88350803D01*
X95805651Y-88523840D01*
X95484966Y-88843966D01*
X95311198Y-89262445D01*
X95310803Y-89715567D01*
X86727000Y-89715567D01*
X86727000Y-87707782D01*
X95871823Y-87707782D01*
X95963548Y-87835610D01*
X96339485Y-87954353D01*
X96732247Y-87920194D01*
X96936452Y-87835610D01*
X97028177Y-87707782D01*
X96450000Y-87129605D01*
X95871823Y-87707782D01*
X86727000Y-87707782D01*
X86727000Y-86839485D01*
X95445647Y-86839485D01*
X95479806Y-87232247D01*
X95564390Y-87436452D01*
X95692218Y-87528177D01*
X96270395Y-86950000D01*
X96629605Y-86950000D01*
X97207782Y-87528177D01*
X97335610Y-87436452D01*
X97454353Y-87060515D01*
X97420194Y-86667753D01*
X97335610Y-86463548D01*
X97207782Y-86371823D01*
X96629605Y-86950000D01*
X96270395Y-86950000D01*
X95692218Y-86371823D01*
X95564390Y-86463548D01*
X95445647Y-86839485D01*
X86727000Y-86839485D01*
X86727000Y-86192218D01*
X95871823Y-86192218D01*
X96450000Y-86770395D01*
X97028177Y-86192218D01*
X96936452Y-86064390D01*
X96560515Y-85945647D01*
X96167753Y-85979806D01*
X95963548Y-86064390D01*
X95871823Y-86192218D01*
X86727000Y-86192218D01*
X86727000Y-84625665D01*
X95360811Y-84625665D01*
X95526252Y-85026063D01*
X95832326Y-85332671D01*
X96232434Y-85498811D01*
X96665665Y-85499189D01*
X97066063Y-85333748D01*
X97372671Y-85027674D01*
X97449438Y-84842797D01*
X106552430Y-84842797D01*
X106552430Y-85597203D01*
X106634455Y-86009571D01*
X106868043Y-86359160D01*
X107217632Y-86592748D01*
X107630000Y-86674773D01*
X108042368Y-86592748D01*
X108391957Y-86359160D01*
X108625545Y-86009571D01*
X108707570Y-85597203D01*
X108707570Y-84842797D01*
X109092430Y-84842797D01*
X109092430Y-85597203D01*
X109174455Y-86009571D01*
X109408043Y-86359160D01*
X109757632Y-86592748D01*
X110170000Y-86674773D01*
X110582368Y-86592748D01*
X110931957Y-86359160D01*
X111165545Y-86009571D01*
X111247570Y-85597203D01*
X111247570Y-84842797D01*
X111632430Y-84842797D01*
X111632430Y-85597203D01*
X111714455Y-86009571D01*
X111948043Y-86359160D01*
X112297632Y-86592748D01*
X112710000Y-86674773D01*
X113122368Y-86592748D01*
X113471957Y-86359160D01*
X113705545Y-86009571D01*
X113787570Y-85597203D01*
X113787570Y-84842797D01*
X114172430Y-84842797D01*
X114172430Y-85597203D01*
X114254455Y-86009571D01*
X114488043Y-86359160D01*
X114837632Y-86592748D01*
X115250000Y-86674773D01*
X115662368Y-86592748D01*
X116011957Y-86359160D01*
X116245545Y-86009571D01*
X116327570Y-85597203D01*
X116327570Y-84842797D01*
X116712430Y-84842797D01*
X116712430Y-85597203D01*
X116794455Y-86009571D01*
X117028043Y-86359160D01*
X117377632Y-86592748D01*
X117790000Y-86674773D01*
X118202368Y-86592748D01*
X118551957Y-86359160D01*
X118785545Y-86009571D01*
X118867570Y-85597203D01*
X118867570Y-84842797D01*
X119252430Y-84842797D01*
X119252430Y-85597203D01*
X119334455Y-86009571D01*
X119568043Y-86359160D01*
X119917632Y-86592748D01*
X120330000Y-86674773D01*
X120742368Y-86592748D01*
X121091957Y-86359160D01*
X121325545Y-86009571D01*
X121407570Y-85597203D01*
X121407570Y-84842797D01*
X121325545Y-84430429D01*
X121091957Y-84080840D01*
X120742368Y-83847252D01*
X120330000Y-83765227D01*
X119917632Y-83847252D01*
X119568043Y-84080840D01*
X119334455Y-84430429D01*
X119252430Y-84842797D01*
X118867570Y-84842797D01*
X118785545Y-84430429D01*
X118551957Y-84080840D01*
X118202368Y-83847252D01*
X117790000Y-83765227D01*
X117377632Y-83847252D01*
X117028043Y-84080840D01*
X116794455Y-84430429D01*
X116712430Y-84842797D01*
X116327570Y-84842797D01*
X116245545Y-84430429D01*
X116011957Y-84080840D01*
X115662368Y-83847252D01*
X115250000Y-83765227D01*
X114837632Y-83847252D01*
X114488043Y-84080840D01*
X114254455Y-84430429D01*
X114172430Y-84842797D01*
X113787570Y-84842797D01*
X113705545Y-84430429D01*
X113471957Y-84080840D01*
X113122368Y-83847252D01*
X112710000Y-83765227D01*
X112297632Y-83847252D01*
X111948043Y-84080840D01*
X111714455Y-84430429D01*
X111632430Y-84842797D01*
X111247570Y-84842797D01*
X111165545Y-84430429D01*
X110931957Y-84080840D01*
X110582368Y-83847252D01*
X110170000Y-83765227D01*
X109757632Y-83847252D01*
X109408043Y-84080840D01*
X109174455Y-84430429D01*
X109092430Y-84842797D01*
X108707570Y-84842797D01*
X108625545Y-84430429D01*
X108391957Y-84080840D01*
X108042368Y-83847252D01*
X107630000Y-83765227D01*
X107217632Y-83847252D01*
X106868043Y-84080840D01*
X106634455Y-84430429D01*
X106552430Y-84842797D01*
X97449438Y-84842797D01*
X97538811Y-84627566D01*
X97539189Y-84194335D01*
X97373748Y-83793937D01*
X97067674Y-83487329D01*
X96667566Y-83321189D01*
X96234335Y-83320811D01*
X95833937Y-83486252D01*
X95527329Y-83792326D01*
X95361189Y-84192434D01*
X95360811Y-84625665D01*
X86727000Y-84625665D01*
X86727000Y-82085665D01*
X95360811Y-82085665D01*
X95526252Y-82486063D01*
X95832326Y-82792671D01*
X96232434Y-82958811D01*
X96665665Y-82959189D01*
X97066063Y-82793748D01*
X97372671Y-82487674D01*
X97538811Y-82087566D01*
X97539189Y-81654335D01*
X97373748Y-81253937D01*
X97067674Y-80947329D01*
X96667566Y-80781189D01*
X96234335Y-80780811D01*
X95833937Y-80946252D01*
X95527329Y-81252326D01*
X95361189Y-81652434D01*
X95360811Y-82085665D01*
X86727000Y-82085665D01*
X86727000Y-79545665D01*
X95360811Y-79545665D01*
X95526252Y-79946063D01*
X95832326Y-80252671D01*
X96232434Y-80418811D01*
X96665665Y-80419189D01*
X97066063Y-80253748D01*
X97372671Y-79947674D01*
X97538811Y-79547566D01*
X97539189Y-79114335D01*
X97373748Y-78713937D01*
X97067674Y-78407329D01*
X96667566Y-78241189D01*
X96234335Y-78240811D01*
X95833937Y-78406252D01*
X95527329Y-78712326D01*
X95361189Y-79112434D01*
X95360811Y-79545665D01*
X86727000Y-79545665D01*
X86727000Y-77005665D01*
X95360811Y-77005665D01*
X95526252Y-77406063D01*
X95832326Y-77712671D01*
X96232434Y-77878811D01*
X96665665Y-77879189D01*
X97066063Y-77713748D01*
X97372671Y-77407674D01*
X97538811Y-77007566D01*
X97539189Y-76574335D01*
X97373748Y-76173937D01*
X97067674Y-75867329D01*
X96667566Y-75701189D01*
X96234335Y-75700811D01*
X95833937Y-75866252D01*
X95527329Y-76172326D01*
X95361189Y-76572434D01*
X95360811Y-77005665D01*
X86727000Y-77005665D01*
X86727000Y-74465665D01*
X95360811Y-74465665D01*
X95526252Y-74866063D01*
X95832326Y-75172671D01*
X96232434Y-75338811D01*
X96665665Y-75339189D01*
X97066063Y-75173748D01*
X97372671Y-74867674D01*
X97441465Y-74702000D01*
X110962776Y-74702000D01*
X116780388Y-80519612D01*
X116927027Y-80617594D01*
X117100000Y-80652000D01*
X120202776Y-80652000D01*
X123630929Y-84080153D01*
X123282368Y-83847252D01*
X122870000Y-83765227D01*
X122457632Y-83847252D01*
X122108043Y-84080840D01*
X121874455Y-84430429D01*
X121792430Y-84842797D01*
X121792430Y-85597203D01*
X121874455Y-86009571D01*
X122108043Y-86359160D01*
X122457632Y-86592748D01*
X122870000Y-86674773D01*
X123282368Y-86592748D01*
X123631957Y-86359160D01*
X123865545Y-86009571D01*
X123947570Y-85597203D01*
X123947570Y-84842797D01*
X123865545Y-84430429D01*
X123632644Y-84081868D01*
X124342574Y-84791798D01*
X124332430Y-84842797D01*
X124332430Y-85597203D01*
X124414455Y-86009571D01*
X124648043Y-86359160D01*
X124997632Y-86592748D01*
X125410000Y-86674773D01*
X125822368Y-86592748D01*
X126171957Y-86359160D01*
X126405545Y-86009571D01*
X126487570Y-85597203D01*
X126487570Y-85347000D01*
X126970430Y-85347000D01*
X126970430Y-85696250D01*
X127093596Y-86061448D01*
X127347142Y-86351713D01*
X127672618Y-86508726D01*
X127823000Y-86482784D01*
X127823000Y-85347000D01*
X128077000Y-85347000D01*
X128077000Y-86482784D01*
X128227382Y-86508726D01*
X128552858Y-86351713D01*
X128806404Y-86061448D01*
X128929570Y-85696250D01*
X128929570Y-85347000D01*
X128077000Y-85347000D01*
X127823000Y-85347000D01*
X126970430Y-85347000D01*
X126487570Y-85347000D01*
X126487570Y-84842797D01*
X126467869Y-84743750D01*
X126970430Y-84743750D01*
X126970430Y-85093000D01*
X127823000Y-85093000D01*
X127823000Y-83957216D01*
X128077000Y-83957216D01*
X128077000Y-85093000D01*
X128929570Y-85093000D01*
X128929570Y-84842797D01*
X129412430Y-84842797D01*
X129412430Y-85597203D01*
X129494455Y-86009571D01*
X129728043Y-86359160D01*
X130077632Y-86592748D01*
X130490000Y-86674773D01*
X130902368Y-86592748D01*
X131251957Y-86359160D01*
X131485545Y-86009571D01*
X131567570Y-85597203D01*
X131567570Y-84842797D01*
X131952430Y-84842797D01*
X131952430Y-85597203D01*
X132034455Y-86009571D01*
X132268043Y-86359160D01*
X132617632Y-86592748D01*
X133030000Y-86674773D01*
X133442368Y-86592748D01*
X133791957Y-86359160D01*
X134025545Y-86009571D01*
X134107570Y-85597203D01*
X134107570Y-84842797D01*
X134492430Y-84842797D01*
X134492430Y-85597203D01*
X134574455Y-86009571D01*
X134808043Y-86359160D01*
X135157632Y-86592748D01*
X135570000Y-86674773D01*
X135982368Y-86592748D01*
X136054011Y-86544877D01*
X139792777Y-86544877D01*
X139988298Y-87018075D01*
X140350021Y-87380429D01*
X140822877Y-87576776D01*
X141334877Y-87577223D01*
X141808075Y-87381702D01*
X142170429Y-87019979D01*
X142366776Y-86547123D01*
X142367223Y-86035123D01*
X142171702Y-85561925D01*
X141809979Y-85199571D01*
X141337123Y-85003224D01*
X140825123Y-85002777D01*
X140351925Y-85198298D01*
X139989571Y-85560021D01*
X139793224Y-86032877D01*
X139792777Y-86544877D01*
X136054011Y-86544877D01*
X136331957Y-86359160D01*
X136565545Y-86009571D01*
X136647570Y-85597203D01*
X136647570Y-84842797D01*
X136602321Y-84615311D01*
X140394294Y-84615311D01*
X140504235Y-84758537D01*
X140934014Y-84902102D01*
X141386017Y-84870270D01*
X141655765Y-84758537D01*
X141765706Y-84615311D01*
X141080000Y-83929605D01*
X140394294Y-84615311D01*
X136602321Y-84615311D01*
X136565545Y-84430429D01*
X136331957Y-84080840D01*
X135982368Y-83847252D01*
X135570000Y-83765227D01*
X135157632Y-83847252D01*
X134808043Y-84080840D01*
X134574455Y-84430429D01*
X134492430Y-84842797D01*
X134107570Y-84842797D01*
X134025545Y-84430429D01*
X133791957Y-84080840D01*
X133442368Y-83847252D01*
X133030000Y-83765227D01*
X132617632Y-83847252D01*
X132268043Y-84080840D01*
X132034455Y-84430429D01*
X131952430Y-84842797D01*
X131567570Y-84842797D01*
X131485545Y-84430429D01*
X131251957Y-84080840D01*
X130902368Y-83847252D01*
X130490000Y-83765227D01*
X130077632Y-83847252D01*
X129728043Y-84080840D01*
X129494455Y-84430429D01*
X129412430Y-84842797D01*
X128929570Y-84842797D01*
X128929570Y-84743750D01*
X128806404Y-84378552D01*
X128552858Y-84088287D01*
X128227382Y-83931274D01*
X128077000Y-83957216D01*
X127823000Y-83957216D01*
X127672618Y-83931274D01*
X127347142Y-84088287D01*
X127093596Y-84378552D01*
X126970430Y-84743750D01*
X126467869Y-84743750D01*
X126405545Y-84430429D01*
X126171957Y-84080840D01*
X125822368Y-83847252D01*
X125410000Y-83765227D01*
X124997632Y-83847252D01*
X124805113Y-83975889D01*
X124433238Y-83604014D01*
X139927898Y-83604014D01*
X139959730Y-84056017D01*
X140071463Y-84325765D01*
X140214689Y-84435706D01*
X140900395Y-83750000D01*
X141259605Y-83750000D01*
X141945311Y-84435706D01*
X142088537Y-84325765D01*
X142232102Y-83895986D01*
X142200270Y-83443983D01*
X142088537Y-83174235D01*
X141945311Y-83064294D01*
X141259605Y-83750000D01*
X140900395Y-83750000D01*
X140214689Y-83064294D01*
X140071463Y-83174235D01*
X139927898Y-83604014D01*
X124433238Y-83604014D01*
X123713913Y-82884689D01*
X140394294Y-82884689D01*
X141080000Y-83570395D01*
X141765706Y-82884689D01*
X141655765Y-82741463D01*
X141225986Y-82597898D01*
X140773983Y-82629730D01*
X140504235Y-82741463D01*
X140394294Y-82884689D01*
X123713913Y-82884689D01*
X120709612Y-79880388D01*
X120562973Y-79782406D01*
X120390000Y-79748000D01*
X117287224Y-79748000D01*
X111469612Y-73930388D01*
X111322973Y-73832406D01*
X111150000Y-73798000D01*
X97441537Y-73798000D01*
X97373748Y-73633937D01*
X97067674Y-73327329D01*
X96667566Y-73161189D01*
X96234335Y-73160811D01*
X95833937Y-73326252D01*
X95527329Y-73632326D01*
X95361189Y-74032434D01*
X95360811Y-74465665D01*
X86727000Y-74465665D01*
X86727000Y-71925665D01*
X95360811Y-71925665D01*
X95526252Y-72326063D01*
X95832326Y-72632671D01*
X96232434Y-72798811D01*
X96665665Y-72799189D01*
X97066063Y-72633748D01*
X97372671Y-72327674D01*
X97449438Y-72142797D01*
X112902430Y-72142797D01*
X112902430Y-72897203D01*
X112984455Y-73309571D01*
X113218043Y-73659160D01*
X113567632Y-73892748D01*
X113980000Y-73974773D01*
X114392368Y-73892748D01*
X114741957Y-73659160D01*
X114975545Y-73309571D01*
X115057570Y-72897203D01*
X115057570Y-72142797D01*
X115442430Y-72142797D01*
X115442430Y-72897203D01*
X115524455Y-73309571D01*
X115758043Y-73659160D01*
X116107632Y-73892748D01*
X116520000Y-73974773D01*
X116932368Y-73892748D01*
X117281957Y-73659160D01*
X117515545Y-73309571D01*
X117597570Y-72897203D01*
X117597570Y-72142797D01*
X123062430Y-72142797D01*
X123062430Y-72897203D01*
X123144455Y-73309571D01*
X123378043Y-73659160D01*
X123727632Y-73892748D01*
X124140000Y-73974773D01*
X124552368Y-73892748D01*
X124901957Y-73659160D01*
X125135545Y-73309571D01*
X125217570Y-72897203D01*
X125217570Y-72142797D01*
X125602430Y-72142797D01*
X125602430Y-72897203D01*
X125684455Y-73309571D01*
X125918043Y-73659160D01*
X126267632Y-73892748D01*
X126680000Y-73974773D01*
X127092368Y-73892748D01*
X127441957Y-73659160D01*
X127548304Y-73500000D01*
X143396000Y-73500000D01*
X143396000Y-81500000D01*
X143419141Y-81616336D01*
X143485040Y-81714960D01*
X143583664Y-81780859D01*
X143700000Y-81804000D01*
X147700000Y-81804000D01*
X147816336Y-81780859D01*
X147914960Y-81714960D01*
X147980859Y-81616336D01*
X148004000Y-81500000D01*
X148004000Y-73500000D01*
X147980859Y-73383664D01*
X147914960Y-73285040D01*
X147816336Y-73219141D01*
X147700000Y-73196000D01*
X143700000Y-73196000D01*
X143583664Y-73219141D01*
X143485040Y-73285040D01*
X143419141Y-73383664D01*
X143396000Y-73500000D01*
X127548304Y-73500000D01*
X127675545Y-73309571D01*
X127757570Y-72897203D01*
X127757570Y-72142797D01*
X127675545Y-71730429D01*
X127441957Y-71380840D01*
X127092368Y-71147252D01*
X126680000Y-71065227D01*
X126267632Y-71147252D01*
X125918043Y-71380840D01*
X125684455Y-71730429D01*
X125602430Y-72142797D01*
X125217570Y-72142797D01*
X125135545Y-71730429D01*
X124901957Y-71380840D01*
X124552368Y-71147252D01*
X124140000Y-71065227D01*
X123727632Y-71147252D01*
X123378043Y-71380840D01*
X123144455Y-71730429D01*
X123062430Y-72142797D01*
X117597570Y-72142797D01*
X117515545Y-71730429D01*
X117281957Y-71380840D01*
X116932368Y-71147252D01*
X116520000Y-71065227D01*
X116107632Y-71147252D01*
X115758043Y-71380840D01*
X115524455Y-71730429D01*
X115442430Y-72142797D01*
X115057570Y-72142797D01*
X114975545Y-71730429D01*
X114741957Y-71380840D01*
X114392368Y-71147252D01*
X113980000Y-71065227D01*
X113567632Y-71147252D01*
X113218043Y-71380840D01*
X112984455Y-71730429D01*
X112902430Y-72142797D01*
X97449438Y-72142797D01*
X97538811Y-71927566D01*
X97539189Y-71494335D01*
X97373748Y-71093937D01*
X97067674Y-70787329D01*
X96667566Y-70621189D01*
X96234335Y-70620811D01*
X95833937Y-70786252D01*
X95527329Y-71092326D01*
X95361189Y-71492434D01*
X95360811Y-71925665D01*
X86727000Y-71925665D01*
X86727000Y-69602797D01*
X106552430Y-69602797D01*
X106552430Y-70357203D01*
X106634455Y-70769571D01*
X106868043Y-71119160D01*
X107217632Y-71352748D01*
X107630000Y-71434773D01*
X108042368Y-71352748D01*
X108391957Y-71119160D01*
X108625545Y-70769571D01*
X108707570Y-70357203D01*
X108707570Y-69602797D01*
X109092430Y-69602797D01*
X109092430Y-70357203D01*
X109174455Y-70769571D01*
X109408043Y-71119160D01*
X109757632Y-71352748D01*
X110170000Y-71434773D01*
X110582368Y-71352748D01*
X110931957Y-71119160D01*
X111165545Y-70769571D01*
X111247570Y-70357203D01*
X111247570Y-69602797D01*
X111632430Y-69602797D01*
X111632430Y-70357203D01*
X111714455Y-70769571D01*
X111948043Y-71119160D01*
X112297632Y-71352748D01*
X112710000Y-71434773D01*
X113122368Y-71352748D01*
X113471957Y-71119160D01*
X113705545Y-70769571D01*
X113787570Y-70357203D01*
X113787570Y-69602797D01*
X114172430Y-69602797D01*
X114172430Y-70357203D01*
X114254455Y-70769571D01*
X114488043Y-71119160D01*
X114837632Y-71352748D01*
X115250000Y-71434773D01*
X115662368Y-71352748D01*
X116011957Y-71119160D01*
X116245545Y-70769571D01*
X116327570Y-70357203D01*
X116327570Y-69602797D01*
X116712430Y-69602797D01*
X116712430Y-70357203D01*
X116794455Y-70769571D01*
X117028043Y-71119160D01*
X117377632Y-71352748D01*
X117790000Y-71434773D01*
X118202368Y-71352748D01*
X118551957Y-71119160D01*
X118785545Y-70769571D01*
X118867570Y-70357203D01*
X118867570Y-69602797D01*
X119252430Y-69602797D01*
X119252430Y-70357203D01*
X119334455Y-70769571D01*
X119568043Y-71119160D01*
X119917632Y-71352748D01*
X120330000Y-71434773D01*
X120742368Y-71352748D01*
X121091957Y-71119160D01*
X121325545Y-70769571D01*
X121407570Y-70357203D01*
X121407570Y-69602797D01*
X121792430Y-69602797D01*
X121792430Y-70357203D01*
X121874455Y-70769571D01*
X122108043Y-71119160D01*
X122457632Y-71352748D01*
X122870000Y-71434773D01*
X123282368Y-71352748D01*
X123631957Y-71119160D01*
X123865545Y-70769571D01*
X123947570Y-70357203D01*
X123947570Y-69602797D01*
X124332430Y-69602797D01*
X124332430Y-70357203D01*
X124414455Y-70769571D01*
X124648043Y-71119160D01*
X124997632Y-71352748D01*
X125410000Y-71434773D01*
X125822368Y-71352748D01*
X126171957Y-71119160D01*
X126405545Y-70769571D01*
X126487570Y-70357203D01*
X126487570Y-69602797D01*
X126487376Y-69601817D01*
X126822430Y-69601817D01*
X126822430Y-70358183D01*
X126908261Y-70789685D01*
X127152688Y-71155495D01*
X127518498Y-71399922D01*
X127950000Y-71485753D01*
X128381502Y-71399922D01*
X128747312Y-71155495D01*
X128991739Y-70789685D01*
X129077570Y-70358183D01*
X129077570Y-69602797D01*
X129412430Y-69602797D01*
X129412430Y-70357203D01*
X129494455Y-70769571D01*
X129728043Y-71119160D01*
X130077632Y-71352748D01*
X130490000Y-71434773D01*
X130902368Y-71352748D01*
X131251957Y-71119160D01*
X131485545Y-70769571D01*
X131567570Y-70357203D01*
X131567570Y-69602797D01*
X131952430Y-69602797D01*
X131952430Y-70357203D01*
X132034455Y-70769571D01*
X132268043Y-71119160D01*
X132617632Y-71352748D01*
X133030000Y-71434773D01*
X133442368Y-71352748D01*
X133791957Y-71119160D01*
X134025545Y-70769571D01*
X134107570Y-70357203D01*
X134107570Y-69602797D01*
X134107376Y-69601817D01*
X134442430Y-69601817D01*
X134442430Y-70358183D01*
X134528261Y-70789685D01*
X134772688Y-71155495D01*
X135138498Y-71399922D01*
X135570000Y-71485753D01*
X136001502Y-71399922D01*
X136367312Y-71155495D01*
X136611739Y-70789685D01*
X136697570Y-70358183D01*
X136697570Y-69601817D01*
X136611739Y-69170315D01*
X136367312Y-68804505D01*
X136001502Y-68560078D01*
X135570000Y-68474247D01*
X135138498Y-68560078D01*
X134772688Y-68804505D01*
X134528261Y-69170315D01*
X134442430Y-69601817D01*
X134107376Y-69601817D01*
X134025545Y-69190429D01*
X133791957Y-68840840D01*
X133442368Y-68607252D01*
X133030000Y-68525227D01*
X132617632Y-68607252D01*
X132268043Y-68840840D01*
X132034455Y-69190429D01*
X131952430Y-69602797D01*
X131567570Y-69602797D01*
X131485545Y-69190429D01*
X131251957Y-68840840D01*
X130902368Y-68607252D01*
X130490000Y-68525227D01*
X130077632Y-68607252D01*
X129728043Y-68840840D01*
X129494455Y-69190429D01*
X129412430Y-69602797D01*
X129077570Y-69602797D01*
X129077570Y-69601817D01*
X128991739Y-69170315D01*
X128747312Y-68804505D01*
X128381502Y-68560078D01*
X127950000Y-68474247D01*
X127518498Y-68560078D01*
X127152688Y-68804505D01*
X126908261Y-69170315D01*
X126822430Y-69601817D01*
X126487376Y-69601817D01*
X126405545Y-69190429D01*
X126171957Y-68840840D01*
X125822368Y-68607252D01*
X125410000Y-68525227D01*
X124997632Y-68607252D01*
X124648043Y-68840840D01*
X124414455Y-69190429D01*
X124332430Y-69602797D01*
X123947570Y-69602797D01*
X123865545Y-69190429D01*
X123631957Y-68840840D01*
X123282368Y-68607252D01*
X122870000Y-68525227D01*
X122457632Y-68607252D01*
X122108043Y-68840840D01*
X121874455Y-69190429D01*
X121792430Y-69602797D01*
X121407570Y-69602797D01*
X121325545Y-69190429D01*
X121091957Y-68840840D01*
X120742368Y-68607252D01*
X120330000Y-68525227D01*
X119917632Y-68607252D01*
X119568043Y-68840840D01*
X119334455Y-69190429D01*
X119252430Y-69602797D01*
X118867570Y-69602797D01*
X118785545Y-69190429D01*
X118551957Y-68840840D01*
X118202368Y-68607252D01*
X117790000Y-68525227D01*
X117377632Y-68607252D01*
X117028043Y-68840840D01*
X116794455Y-69190429D01*
X116712430Y-69602797D01*
X116327570Y-69602797D01*
X116245545Y-69190429D01*
X116011957Y-68840840D01*
X115662368Y-68607252D01*
X115250000Y-68525227D01*
X114837632Y-68607252D01*
X114488043Y-68840840D01*
X114254455Y-69190429D01*
X114172430Y-69602797D01*
X113787570Y-69602797D01*
X113705545Y-69190429D01*
X113471957Y-68840840D01*
X113122368Y-68607252D01*
X112710000Y-68525227D01*
X112297632Y-68607252D01*
X111948043Y-68840840D01*
X111714455Y-69190429D01*
X111632430Y-69602797D01*
X111247570Y-69602797D01*
X111165545Y-69190429D01*
X110931957Y-68840840D01*
X110582368Y-68607252D01*
X110170000Y-68525227D01*
X109757632Y-68607252D01*
X109408043Y-68840840D01*
X109174455Y-69190429D01*
X109092430Y-69602797D01*
X108707570Y-69602797D01*
X108625545Y-69190429D01*
X108391957Y-68840840D01*
X108042368Y-68607252D01*
X107630000Y-68525227D01*
X107217632Y-68607252D01*
X106868043Y-68840840D01*
X106634455Y-69190429D01*
X106552430Y-69602797D01*
X86727000Y-69602797D01*
X86727000Y-65204000D01*
X86800000Y-65204000D01*
X86916336Y-65180859D01*
X87014960Y-65114960D01*
X87080859Y-65016336D01*
X87104000Y-64900000D01*
X87104000Y-64527000D01*
X104308722Y-64527000D01*
X103929684Y-64905376D01*
M02*
