G04 #@! TF.FileFunction,Legend,Bot*
%FSLAX46Y46*%
G04 Gerber Fmt 4.6, Leading zero omitted, Abs format (unit mm)*
G04 Created by KiCad (PCBNEW 4.0.2-stable) date Thursday, March 16, 2017 'PMt' 02:05:18 PM*
%MOMM*%
G01*
G04 APERTURE LIST*
%ADD10C,0.100000*%
%ADD11C,0.300000*%
%ADD12C,0.150000*%
%ADD13C,0.160000*%
G04 APERTURE END LIST*
D10*
D11*
X156050002Y-112978571D02*
X156050002Y-111478571D01*
X155407145Y-112978571D02*
X155407145Y-112192857D01*
X155478574Y-112050000D01*
X155621431Y-111978571D01*
X155835716Y-111978571D01*
X155978574Y-112050000D01*
X156050002Y-112121429D01*
X154907145Y-111978571D02*
X154335716Y-111978571D01*
X154692859Y-111478571D02*
X154692859Y-112764286D01*
X154621431Y-112907143D01*
X154478573Y-112978571D01*
X154335716Y-112978571D01*
X154050002Y-111978571D02*
X153478573Y-111978571D01*
X153835716Y-111478571D02*
X153835716Y-112764286D01*
X153764288Y-112907143D01*
X153621430Y-112978571D01*
X153478573Y-112978571D01*
X152978573Y-111978571D02*
X152978573Y-113478571D01*
X152978573Y-112050000D02*
X152835716Y-111978571D01*
X152550002Y-111978571D01*
X152407145Y-112050000D01*
X152335716Y-112121429D01*
X152264287Y-112264286D01*
X152264287Y-112692857D01*
X152335716Y-112835714D01*
X152407145Y-112907143D01*
X152550002Y-112978571D01*
X152835716Y-112978571D01*
X152978573Y-112907143D01*
X151621430Y-112835714D02*
X151550002Y-112907143D01*
X151621430Y-112978571D01*
X151692859Y-112907143D01*
X151621430Y-112835714D01*
X151621430Y-112978571D01*
X151621430Y-112050000D02*
X151550002Y-112121429D01*
X151621430Y-112192857D01*
X151692859Y-112121429D01*
X151621430Y-112050000D01*
X151621430Y-112192857D01*
X149835716Y-111407143D02*
X151121430Y-113335714D01*
X148264287Y-111407143D02*
X149550001Y-113335714D01*
X147764286Y-112978571D02*
X147764286Y-111978571D01*
X147764286Y-111478571D02*
X147835715Y-111550000D01*
X147764286Y-111621429D01*
X147692858Y-111550000D01*
X147764286Y-111478571D01*
X147764286Y-111621429D01*
X146407143Y-111978571D02*
X146407143Y-112978571D01*
X147050000Y-111978571D02*
X147050000Y-112764286D01*
X146978572Y-112907143D01*
X146835714Y-112978571D01*
X146621429Y-112978571D01*
X146478572Y-112907143D01*
X146407143Y-112835714D01*
X145835714Y-111978571D02*
X145550000Y-112978571D01*
X145264286Y-112264286D01*
X144978571Y-112978571D01*
X144692857Y-111978571D01*
X143478571Y-112978571D02*
X143478571Y-112192857D01*
X143550000Y-112050000D01*
X143692857Y-111978571D01*
X143978571Y-111978571D01*
X144121428Y-112050000D01*
X143478571Y-112907143D02*
X143621428Y-112978571D01*
X143978571Y-112978571D01*
X144121428Y-112907143D01*
X144192857Y-112764286D01*
X144192857Y-112621429D01*
X144121428Y-112478571D01*
X143978571Y-112407143D01*
X143621428Y-112407143D01*
X143478571Y-112335714D01*
X142835714Y-112907143D02*
X142692857Y-112978571D01*
X142407142Y-112978571D01*
X142264285Y-112907143D01*
X142192857Y-112764286D01*
X142192857Y-112692857D01*
X142264285Y-112550000D01*
X142407142Y-112478571D01*
X142621428Y-112478571D01*
X142764285Y-112407143D01*
X142835714Y-112264286D01*
X142835714Y-112192857D01*
X142764285Y-112050000D01*
X142621428Y-111978571D01*
X142407142Y-111978571D01*
X142264285Y-112050000D01*
X141549999Y-112978571D02*
X141549999Y-111478571D01*
X140907142Y-112978571D02*
X140907142Y-112192857D01*
X140978571Y-112050000D01*
X141121428Y-111978571D01*
X141335713Y-111978571D01*
X141478571Y-112050000D01*
X141549999Y-112121429D01*
X140192856Y-112835714D02*
X140121428Y-112907143D01*
X140192856Y-112978571D01*
X140264285Y-112907143D01*
X140192856Y-112835714D01*
X140192856Y-112978571D01*
X139264284Y-112978571D02*
X139407142Y-112907143D01*
X139478570Y-112835714D01*
X139549999Y-112692857D01*
X139549999Y-112264286D01*
X139478570Y-112121429D01*
X139407142Y-112050000D01*
X139264284Y-111978571D01*
X139049999Y-111978571D01*
X138907142Y-112050000D01*
X138835713Y-112121429D01*
X138764284Y-112264286D01*
X138764284Y-112692857D01*
X138835713Y-112835714D01*
X138907142Y-112907143D01*
X139049999Y-112978571D01*
X139264284Y-112978571D01*
X138121427Y-112978571D02*
X138121427Y-111978571D01*
X138121427Y-112264286D02*
X138049999Y-112121429D01*
X137978570Y-112050000D01*
X137835713Y-111978571D01*
X137692856Y-111978571D01*
X137192856Y-112835714D02*
X137121428Y-112907143D01*
X137192856Y-112978571D01*
X137264285Y-112907143D01*
X137192856Y-112835714D01*
X137192856Y-112978571D01*
X136478570Y-112978571D02*
X136478570Y-111978571D01*
X136478570Y-111478571D02*
X136549999Y-111550000D01*
X136478570Y-111621429D01*
X136407142Y-111550000D01*
X136478570Y-111478571D01*
X136478570Y-111621429D01*
X135121427Y-112978571D02*
X135121427Y-111478571D01*
X135121427Y-112907143D02*
X135264284Y-112978571D01*
X135549998Y-112978571D01*
X135692856Y-112907143D01*
X135764284Y-112835714D01*
X135835713Y-112692857D01*
X135835713Y-112264286D01*
X135764284Y-112121429D01*
X135692856Y-112050000D01*
X135549998Y-111978571D01*
X135264284Y-111978571D01*
X135121427Y-112050000D01*
X133335713Y-111407143D02*
X134621427Y-113335714D01*
X157457141Y-109478571D02*
X157457141Y-107978571D01*
X156885713Y-107978571D01*
X156742855Y-108050000D01*
X156671427Y-108121429D01*
X156599998Y-108264286D01*
X156599998Y-108478571D01*
X156671427Y-108621429D01*
X156742855Y-108692857D01*
X156885713Y-108764286D01*
X157457141Y-108764286D01*
X155957141Y-109478571D02*
X155957141Y-108478571D01*
X155957141Y-108764286D02*
X155885713Y-108621429D01*
X155814284Y-108550000D01*
X155671427Y-108478571D01*
X155528570Y-108478571D01*
X154457142Y-109407143D02*
X154599999Y-109478571D01*
X154885713Y-109478571D01*
X155028570Y-109407143D01*
X155099999Y-109264286D01*
X155099999Y-108692857D01*
X155028570Y-108550000D01*
X154885713Y-108478571D01*
X154599999Y-108478571D01*
X154457142Y-108550000D01*
X154385713Y-108692857D01*
X154385713Y-108835714D01*
X155099999Y-108978571D01*
X153814285Y-109407143D02*
X153671428Y-109478571D01*
X153385713Y-109478571D01*
X153242856Y-109407143D01*
X153171428Y-109264286D01*
X153171428Y-109192857D01*
X153242856Y-109050000D01*
X153385713Y-108978571D01*
X153599999Y-108978571D01*
X153742856Y-108907143D01*
X153814285Y-108764286D01*
X153814285Y-108692857D01*
X153742856Y-108550000D01*
X153599999Y-108478571D01*
X153385713Y-108478571D01*
X153242856Y-108550000D01*
X152599999Y-109407143D02*
X152457142Y-109478571D01*
X152171427Y-109478571D01*
X152028570Y-109407143D01*
X151957142Y-109264286D01*
X151957142Y-109192857D01*
X152028570Y-109050000D01*
X152171427Y-108978571D01*
X152385713Y-108978571D01*
X152528570Y-108907143D01*
X152599999Y-108764286D01*
X152599999Y-108692857D01*
X152528570Y-108550000D01*
X152385713Y-108478571D01*
X152171427Y-108478571D01*
X152028570Y-108550000D01*
X150671427Y-108478571D02*
X150671427Y-109478571D01*
X151314284Y-108478571D02*
X151314284Y-109264286D01*
X151242856Y-109407143D01*
X151099998Y-109478571D01*
X150885713Y-109478571D01*
X150742856Y-109407143D01*
X150671427Y-109335714D01*
X149957141Y-109478571D02*
X149957141Y-108478571D01*
X149957141Y-108764286D02*
X149885713Y-108621429D01*
X149814284Y-108550000D01*
X149671427Y-108478571D01*
X149528570Y-108478571D01*
X148457142Y-109407143D02*
X148599999Y-109478571D01*
X148885713Y-109478571D01*
X149028570Y-109407143D01*
X149099999Y-109264286D01*
X149099999Y-108692857D01*
X149028570Y-108550000D01*
X148885713Y-108478571D01*
X148599999Y-108478571D01*
X148457142Y-108550000D01*
X148385713Y-108692857D01*
X148385713Y-108835714D01*
X149099999Y-108978571D01*
X146814285Y-107978571D02*
X145957142Y-107978571D01*
X146385713Y-109478571D02*
X146385713Y-107978571D01*
X144885714Y-109407143D02*
X145028571Y-109478571D01*
X145314285Y-109478571D01*
X145457142Y-109407143D01*
X145528571Y-109264286D01*
X145528571Y-108692857D01*
X145457142Y-108550000D01*
X145314285Y-108478571D01*
X145028571Y-108478571D01*
X144885714Y-108550000D01*
X144814285Y-108692857D01*
X144814285Y-108835714D01*
X145528571Y-108978571D01*
X143957142Y-109478571D02*
X144100000Y-109407143D01*
X144171428Y-109264286D01*
X144171428Y-107978571D01*
X142814286Y-109407143D02*
X142957143Y-109478571D01*
X143242857Y-109478571D01*
X143385714Y-109407143D01*
X143457143Y-109264286D01*
X143457143Y-108692857D01*
X143385714Y-108550000D01*
X143242857Y-108478571D01*
X142957143Y-108478571D01*
X142814286Y-108550000D01*
X142742857Y-108692857D01*
X142742857Y-108835714D01*
X143457143Y-108978571D01*
X142100000Y-109478571D02*
X142100000Y-108478571D01*
X142100000Y-108621429D02*
X142028572Y-108550000D01*
X141885714Y-108478571D01*
X141671429Y-108478571D01*
X141528572Y-108550000D01*
X141457143Y-108692857D01*
X141457143Y-109478571D01*
X141457143Y-108692857D02*
X141385714Y-108550000D01*
X141242857Y-108478571D01*
X141028572Y-108478571D01*
X140885714Y-108550000D01*
X140814286Y-108692857D01*
X140814286Y-109478571D01*
X139528572Y-109407143D02*
X139671429Y-109478571D01*
X139957143Y-109478571D01*
X140100000Y-109407143D01*
X140171429Y-109264286D01*
X140171429Y-108692857D01*
X140100000Y-108550000D01*
X139957143Y-108478571D01*
X139671429Y-108478571D01*
X139528572Y-108550000D01*
X139457143Y-108692857D01*
X139457143Y-108835714D01*
X140171429Y-108978571D01*
X139028572Y-108478571D02*
X138457143Y-108478571D01*
X138814286Y-107978571D02*
X138814286Y-109264286D01*
X138742858Y-109407143D01*
X138600000Y-109478571D01*
X138457143Y-109478571D01*
X137957143Y-109478571D02*
X137957143Y-108478571D01*
X137957143Y-108764286D02*
X137885715Y-108621429D01*
X137814286Y-108550000D01*
X137671429Y-108478571D01*
X137528572Y-108478571D01*
X137171429Y-108478571D02*
X136814286Y-109478571D01*
X136457144Y-108478571D02*
X136814286Y-109478571D01*
X136957144Y-109835714D01*
X137028572Y-109907143D01*
X137171429Y-109978571D01*
X134885715Y-108478571D02*
X134528572Y-109478571D01*
X134171430Y-108478571D01*
X133314287Y-107978571D02*
X133171430Y-107978571D01*
X133028573Y-108050000D01*
X132957144Y-108121429D01*
X132885715Y-108264286D01*
X132814287Y-108550000D01*
X132814287Y-108907143D01*
X132885715Y-109192857D01*
X132957144Y-109335714D01*
X133028573Y-109407143D01*
X133171430Y-109478571D01*
X133314287Y-109478571D01*
X133457144Y-109407143D01*
X133528573Y-109335714D01*
X133600001Y-109192857D01*
X133671430Y-108907143D01*
X133671430Y-108550000D01*
X133600001Y-108264286D01*
X133528573Y-108121429D01*
X133457144Y-108050000D01*
X133314287Y-107978571D01*
X132171430Y-109335714D02*
X132100002Y-109407143D01*
X132171430Y-109478571D01*
X132242859Y-109407143D01*
X132171430Y-109335714D01*
X132171430Y-109478571D01*
X130671430Y-109478571D02*
X131528573Y-109478571D01*
X131100001Y-109478571D02*
X131100001Y-107978571D01*
X131242858Y-108192857D01*
X131385716Y-108335714D01*
X131528573Y-108407143D01*
X159599999Y-106157143D02*
X159599999Y-103157143D01*
X158885714Y-103157143D01*
X158457142Y-103300000D01*
X158171428Y-103585714D01*
X158028571Y-103871429D01*
X157885714Y-104442857D01*
X157885714Y-104871429D01*
X158028571Y-105442857D01*
X158171428Y-105728571D01*
X158457142Y-106014286D01*
X158885714Y-106157143D01*
X159599999Y-106157143D01*
X156742856Y-105300000D02*
X155314285Y-105300000D01*
X157028571Y-106157143D02*
X156028571Y-103157143D01*
X155028571Y-106157143D01*
X154028570Y-106157143D02*
X154028570Y-103157143D01*
X150314285Y-106157143D02*
X150314285Y-103157143D01*
X149314285Y-105300000D01*
X148314285Y-103157143D01*
X148314285Y-106157143D01*
X145600000Y-106157143D02*
X145600000Y-104585714D01*
X145742857Y-104300000D01*
X146028571Y-104157143D01*
X146600000Y-104157143D01*
X146885714Y-104300000D01*
X145600000Y-106014286D02*
X145885714Y-106157143D01*
X146600000Y-106157143D01*
X146885714Y-106014286D01*
X147028571Y-105728571D01*
X147028571Y-105442857D01*
X146885714Y-105157143D01*
X146600000Y-105014286D01*
X145885714Y-105014286D01*
X145600000Y-104871429D01*
X144171428Y-106157143D02*
X144171428Y-103157143D01*
X143885714Y-105014286D02*
X143028571Y-106157143D01*
X143028571Y-104157143D02*
X144171428Y-105300000D01*
X140600000Y-106014286D02*
X140885714Y-106157143D01*
X141457143Y-106157143D01*
X141742857Y-106014286D01*
X141885714Y-105728571D01*
X141885714Y-104585714D01*
X141742857Y-104300000D01*
X141457143Y-104157143D01*
X140885714Y-104157143D01*
X140600000Y-104300000D01*
X140457143Y-104585714D01*
X140457143Y-104871429D01*
X141885714Y-105157143D01*
X139171428Y-106157143D02*
X139171428Y-104157143D01*
X139171428Y-104728571D02*
X139028571Y-104442857D01*
X138885714Y-104300000D01*
X138600000Y-104157143D01*
X138314285Y-104157143D01*
X133600000Y-106157143D02*
X135028571Y-106157143D01*
X135028571Y-103157143D01*
X131314286Y-106157143D02*
X131314286Y-104585714D01*
X131457143Y-104300000D01*
X131742857Y-104157143D01*
X132314286Y-104157143D01*
X132600000Y-104300000D01*
X131314286Y-106014286D02*
X131600000Y-106157143D01*
X132314286Y-106157143D01*
X132600000Y-106014286D01*
X132742857Y-105728571D01*
X132742857Y-105442857D01*
X132600000Y-105157143D01*
X132314286Y-105014286D01*
X131600000Y-105014286D01*
X131314286Y-104871429D01*
X129885714Y-106157143D02*
X129885714Y-103157143D01*
X129885714Y-104300000D02*
X129600000Y-104157143D01*
X129028571Y-104157143D01*
X128742857Y-104300000D01*
X128600000Y-104442857D01*
X128457143Y-104728571D01*
X128457143Y-105585714D01*
X128600000Y-105871429D01*
X128742857Y-106014286D01*
X129028571Y-106157143D01*
X129600000Y-106157143D01*
X129885714Y-106014286D01*
D12*
X106360000Y-86744000D02*
X106360000Y-68710000D01*
X139126000Y-68710000D02*
X139126000Y-86744000D01*
X106360000Y-86744000D02*
X139126000Y-86744000D01*
X139126000Y-68710000D02*
X106360000Y-68710000D01*
D13*
X136350952Y-88121905D02*
X136350952Y-87321905D01*
X135512857Y-88045714D02*
X135550952Y-88083810D01*
X135665238Y-88121905D01*
X135741428Y-88121905D01*
X135855714Y-88083810D01*
X135931905Y-88007619D01*
X135970000Y-87931429D01*
X136008095Y-87779048D01*
X136008095Y-87664762D01*
X135970000Y-87512381D01*
X135931905Y-87436190D01*
X135855714Y-87360000D01*
X135741428Y-87321905D01*
X135665238Y-87321905D01*
X135550952Y-87360000D01*
X135512857Y-87398095D01*
X134750952Y-88121905D02*
X135208095Y-88121905D01*
X134979524Y-88121905D02*
X134979524Y-87321905D01*
X135055714Y-87436190D01*
X135131905Y-87512381D01*
X135208095Y-87550476D01*
D12*
X108082381Y-76147619D02*
X107606190Y-75814285D01*
X108082381Y-75576190D02*
X107082381Y-75576190D01*
X107082381Y-75957143D01*
X107130000Y-76052381D01*
X107177619Y-76100000D01*
X107272857Y-76147619D01*
X107415714Y-76147619D01*
X107510952Y-76100000D01*
X107558571Y-76052381D01*
X107606190Y-75957143D01*
X107606190Y-75576190D01*
X107558571Y-76576190D02*
X107558571Y-76909524D01*
X108082381Y-77052381D02*
X108082381Y-76576190D01*
X107082381Y-76576190D01*
X107082381Y-77052381D01*
X108034762Y-77433333D02*
X108082381Y-77576190D01*
X108082381Y-77814286D01*
X108034762Y-77909524D01*
X107987143Y-77957143D01*
X107891905Y-78004762D01*
X107796667Y-78004762D01*
X107701429Y-77957143D01*
X107653810Y-77909524D01*
X107606190Y-77814286D01*
X107558571Y-77623809D01*
X107510952Y-77528571D01*
X107463333Y-77480952D01*
X107368095Y-77433333D01*
X107272857Y-77433333D01*
X107177619Y-77480952D01*
X107130000Y-77528571D01*
X107082381Y-77623809D01*
X107082381Y-77861905D01*
X107130000Y-78004762D01*
X107558571Y-78433333D02*
X107558571Y-78766667D01*
X108082381Y-78909524D02*
X108082381Y-78433333D01*
X107082381Y-78433333D01*
X107082381Y-78909524D01*
X107082381Y-79195238D02*
X107082381Y-79766667D01*
X108082381Y-79480952D02*
X107082381Y-79480952D01*
X138038571Y-76623810D02*
X138038571Y-76290476D01*
X138562381Y-76290476D02*
X137562381Y-76290476D01*
X137562381Y-76766667D01*
X137562381Y-77004762D02*
X137562381Y-77576191D01*
X138562381Y-77290476D02*
X137562381Y-77290476D01*
X138562381Y-77909524D02*
X137562381Y-77909524D01*
X137562381Y-78147619D01*
X137610000Y-78290477D01*
X137705238Y-78385715D01*
X137800476Y-78433334D01*
X137990952Y-78480953D01*
X138133810Y-78480953D01*
X138324286Y-78433334D01*
X138419524Y-78385715D01*
X138514762Y-78290477D01*
X138562381Y-78147619D01*
X138562381Y-77909524D01*
X138562381Y-78909524D02*
X137562381Y-78909524D01*
M02*
